Mertz-Light-kernagic+adjusted.ufo
<glyph name="exclam" format="1">
  <advance width="527"/>
  <unicode hex="0021"/>
  <outline>
    <contour>
      <point x="245" y="-16" type="curve" smooth="yes"/>
      <point x="186" y="-16"/>
      <point x="155" y="28"/>
      <point x="155" y="72" type="curve" smooth="yes"/>
      <point x="155" y="115"/>
      <point x="186" y="160"/>
      <point x="245" y="160" type="curve" smooth="yes"/>
      <point x="302" y="160"/>
      <point x="333" y="114"/>
      <point x="333" y="72" type="curve" smooth="yes"/>
      <point x="333" y="28"/>
      <point x="302" y="-16"/>
    </contour>
    <contour>
      <point x="231" y="319" type="line" smooth="yes"/>
      <point x="220" y="319"/>
      <point x="216" y="325"/>
      <point x="215" y="336" type="curve" smooth="yes"/>
      <point x="175" y="1206" type="line" smooth="yes"/>
      <point x="174" y="1228"/>
      <point x="185" y="1240"/>
      <point x="207" y="1240" type="curve" smooth="yes"/>
      <point x="267" y="1240" type="line" smooth="yes"/>
      <point x="289" y="1240"/>
      <point x="300" y="1228"/>
      <point x="299" y="1206" type="curve" smooth="yes"/>
      <point x="259" y="336" type="line" smooth="yes"/>
      <point x="258" y="325"/>
      <point x="254" y="319"/>
      <point x="243" y="319" type="curve" smooth="yes"/>
    </contour>
  </outline>
</glyph>
<glyph name="quotedbl" format="1">
  <advance width="677"/>
  <unicode hex="0022"/>
  <outline>
    <contour>
      <point x="188" y="728" type="line" smooth="yes"/>
      <point x="177" y="728"/>
      <point x="170" y="734"/>
      <point x="170" y="745" type="curve" smooth="yes"/>
      <point x="170" y="1206" type="line" smooth="yes"/>
      <point x="170" y="1228"/>
      <point x="180" y="1240"/>
      <point x="202" y="1240" type="curve" smooth="yes"/>
      <point x="261" y="1240" type="line" smooth="yes"/>
      <point x="280" y="1240"/>
      <point x="293" y="1230.19"/>
      <point x="293" y="1212.04" type="curve" smooth="yes"/>
      <point x="293" y="1206" type="line" smooth="yes"/>
      <point x="225" y="745" type="line" smooth="yes"/>
      <point x="223" y="734"/>
      <point x="218" y="728"/>
      <point x="207" y="728" type="curve" smooth="yes"/>
    </contour>
    <contour>
      <point x="439" y="728" type="line" smooth="yes"/>
      <point x="428" y="728"/>
      <point x="421" y="734"/>
      <point x="421" y="745" type="curve" smooth="yes"/>
      <point x="421" y="1206" type="line" smooth="yes"/>
      <point x="421" y="1228"/>
      <point x="431" y="1240"/>
      <point x="453" y="1240" type="curve" smooth="yes"/>
      <point x="512" y="1240" type="line" smooth="yes"/>
      <point x="531" y="1240"/>
      <point x="544" y="1230.19"/>
      <point x="544" y="1212.04" type="curve" smooth="yes"/>
      <point x="544" y="1206" type="line" smooth="yes"/>
      <point x="476" y="745" type="line" smooth="yes"/>
      <point x="474" y="734"/>
      <point x="469" y="728"/>
      <point x="458" y="728" type="curve" smooth="yes"/>
    </contour>
  </outline>
</glyph>
<glyph name="dollar" format="1">
  <advance width="903"/>
  <unicode hex="0024"/>
  <outline>
    <contour>
      <point x="405" y="1166.25" type="line"/>
      <point x="247" y="1153.54"/>
      <point x="176" y="1073.1"/>
      <point x="176" y="974.999" type="curve" smooth="yes"/>
      <point x="176" y="890.999"/>
      <point x="225" y="830.999"/>
      <point x="324" y="771.999" type="curve" smooth="yes"/>
      <point x="405" y="724.122" type="line"/>
    </contour>
    <contour>
      <point x="492" y="73.7666" type="line"/>
      <point x="634" y="86.4277"/>
      <point x="705" y="165.963"/>
      <point x="705" y="274" type="curve" smooth="yes"/>
      <point x="705" y="359"/>
      <point x="656" y="445"/>
      <point x="533" y="517" type="curve" smooth="yes"/>
      <point x="492" y="540.868" type="line"/>
    </contour>
    <contour>
      <point x="439" y="-216" type="line" smooth="yes"/>
      <point x="417" y="-216"/>
      <point x="405" y="-204"/>
      <point x="405" y="-182" type="curve" smooth="yes"/>
      <point x="405" y="-32.6768" type="line"/>
      <point x="263" y="-24.9014"/>
      <point x="170" y="15.5996"/>
      <point x="114" y="48" type="curve" smooth="yes"/>
      <point x="94" y="59"/>
      <point x="84" y="76"/>
      <point x="84" y="98" type="curve" smooth="yes"/>
      <point x="84" y="148" type="line" smooth="yes"/>
      <point x="84" y="167"/>
      <point x="97" y="174"/>
      <point x="113" y="165" type="curve" smooth="yes"/>
      <point x="194" y="116.185"/>
      <point x="288" y="80.7607"/>
      <point x="405" y="73.4111" type="curve"/>
      <point x="405" y="591.514" type="line"/>
      <point x="253" y="679.999" type="line" smooth="yes"/>
      <point x="125" y="754.999"/>
      <point x="53" y="851.999"/>
      <point x="53" y="967.999" type="curve" smooth="yes"/>
      <point x="53" y="1128.94"/>
      <point x="171" y="1262.35"/>
      <point x="405" y="1273.28" type="curve"/>
      <point x="405" y="1400" type="line" smooth="yes"/>
      <point x="405" y="1422"/>
      <point x="417" y="1434"/>
      <point x="439" y="1434" type="curve" smooth="yes"/>
      <point x="458" y="1434" type="line" smooth="yes"/>
      <point x="479" y="1434"/>
      <point x="492" y="1422"/>
      <point x="492" y="1400" type="curve" smooth="yes"/>
      <point x="492" y="1272.16" type="line"/>
      <point x="596" y="1265.26"/>
      <point x="680" y="1240.18"/>
      <point x="734" y="1218" type="curve" smooth="yes"/>
      <point x="755" y="1209"/>
      <point x="765" y="1193"/>
      <point x="765" y="1171" type="curve" smooth="yes"/>
      <point x="765" y="1122.6" type="line" smooth="yes"/>
      <point x="765" y="1103.1"/>
      <point x="752" y="1094.88"/>
      <point x="734" y="1103.02" type="curve" smooth="yes"/>
      <point x="660" y="1137.25"/>
      <point x="573" y="1160.28"/>
      <point x="492" y="1166.38" type="curve"/>
      <point x="492" y="672.699" type="line"/>
      <point x="594" y="613" type="line"/>
      <point x="785" y="500"/>
      <point x="830" y="398"/>
      <point x="830" y="281" type="curve" smooth="yes"/>
      <point x="830" y="77.335"/>
      <point x="669" y="-20.7197"/>
      <point x="492" y="-32.7344" type="curve"/>
      <point x="492" y="-182" type="line" smooth="yes"/>
      <point x="492" y="-204"/>
      <point x="479" y="-216"/>
      <point x="458" y="-216" type="curve" smooth="yes"/>
    </contour>
  </outline>
</glyph>
<glyph name="percent" format="1">
  <advance width="1581"/>
  <unicode hex="0025"/>
  <outline>
    <contour>
      <point x="454" y="1" type="line" smooth="yes"/>
      <point x="439" y="1"/>
      <point x="431" y="8.35254"/>
      <point x="431" y="19.6553" type="curve" smooth="yes"/>
      <point x="431" y="23.3818"/>
      <point x="432" y="27.5371"/>
      <point x="434" y="32" type="curve" smooth="yes"/>
      <point x="964" y="1210" type="line" smooth="yes"/>
      <point x="973" y="1231"/>
      <point x="989" y="1241"/>
      <point x="1012" y="1241" type="curve" smooth="yes"/>
      <point x="1064" y="1241" type="line" smooth="yes"/>
      <point x="1078" y="1241"/>
      <point x="1086" y="1233.65"/>
      <point x="1086" y="1222.34" type="curve" smooth="yes"/>
      <point x="1086" y="1218.62"/>
      <point x="1085" y="1214.46"/>
      <point x="1084" y="1210" type="curve" smooth="yes"/>
      <point x="552" y="32" type="line" smooth="yes"/>
      <point x="543" y="11"/>
      <point x="527" y="1"/>
      <point x="504" y="1" type="curve" smooth="yes"/>
    </contour>
    <contour>
      <point x="293" y="692" type="curve" smooth="yes"/>
      <point x="445" y="692"/>
      <point x="512" y="807"/>
      <point x="512" y="923" type="curve" smooth="yes"/>
      <point x="512" y="1039"/>
      <point x="442" y="1156"/>
      <point x="293" y="1156" type="curve" smooth="yes"/>
      <point x="144" y="1156"/>
      <point x="74" y="1039"/>
      <point x="74" y="924" type="curve" smooth="yes"/>
      <point x="74" y="796"/>
      <point x="141" y="692"/>
    </contour>
    <contour>
      <point x="292" y="612" type="curve" smooth="yes"/>
      <point x="122" y="612"/>
      <point x="-23" y="725"/>
      <point x="-23" y="923" type="curve" smooth="yes"/>
      <point x="-23" y="1124"/>
      <point x="122" y="1240"/>
      <point x="293" y="1240" type="curve" smooth="yes"/>
      <point x="452" y="1240"/>
      <point x="609" y="1125"/>
      <point x="609" y="923" type="curve" smooth="yes"/>
      <point x="609" y="726"/>
      <point x="463" y="612"/>
    </contour>
    <contour>
      <point x="1224" y="80" type="curve" smooth="yes"/>
      <point x="1376" y="80"/>
      <point x="1443" y="195"/>
      <point x="1443" y="311" type="curve" smooth="yes"/>
      <point x="1443" y="427"/>
      <point x="1373" y="544"/>
      <point x="1224" y="544" type="curve" smooth="yes"/>
      <point x="1075" y="544"/>
      <point x="1005" y="427"/>
      <point x="1005" y="312" type="curve" smooth="yes"/>
      <point x="1005" y="184"/>
      <point x="1072" y="80"/>
    </contour>
    <contour>
      <point x="1223" y="0" type="curve" smooth="yes"/>
      <point x="1053" y="0"/>
      <point x="907" y="113"/>
      <point x="907" y="311" type="curve" smooth="yes"/>
      <point x="907" y="512"/>
      <point x="1053" y="628"/>
      <point x="1224" y="628" type="curve" smooth="yes"/>
      <point x="1383" y="628"/>
      <point x="1540" y="513"/>
      <point x="1540" y="311" type="curve" smooth="yes"/>
      <point x="1540" y="114"/>
      <point x="1394" y="0"/>
    </contour>
  </outline>
</glyph>
<glyph name="quotesingle" format="1">
  <advance width="451"/>
  <unicode hex="0027"/>
  <outline>
    <contour>
      <point x="197" y="728" type="line" smooth="yes"/>
      <point x="186" y="728"/>
      <point x="179" y="734"/>
      <point x="179" y="745" type="curve" smooth="yes"/>
      <point x="179" y="1206" type="line" smooth="yes"/>
      <point x="179" y="1228"/>
      <point x="189" y="1240"/>
      <point x="211" y="1240" type="curve" smooth="yes"/>
      <point x="270" y="1240" type="line" smooth="yes"/>
      <point x="289" y="1240"/>
      <point x="302" y="1230.19"/>
      <point x="302" y="1212.04" type="curve" smooth="yes"/>
      <point x="302" y="1206" type="line" smooth="yes"/>
      <point x="234" y="745" type="line" smooth="yes"/>
      <point x="232" y="734"/>
      <point x="227" y="728"/>
      <point x="216" y="728" type="curve" smooth="yes"/>
    </contour>
  </outline>
</glyph>
<glyph name="parenleft" format="1">
  <advance width="527"/>
  <unicode hex="0028"/>
  <outline>
    <contour>
      <point x="291" y="-35" type="line"/>
      <point x="197" y="164"/>
      <point x="150" y="396"/>
      <point x="150" y="653" type="curve" smooth="yes"/>
      <point x="150" y="910"/>
      <point x="197" y="1142"/>
      <point x="291" y="1341" type="curve"/>
      <point x="419" y="1341" type="line"/>
      <point x="326" y="1133"/>
      <point x="285" y="886"/>
      <point x="285" y="653" type="curve" smooth="yes"/>
      <point x="285" y="420"/>
      <point x="326" y="173"/>
      <point x="419" y="-35" type="curve"/>
    </contour>
  </outline>
</glyph>
<glyph name="parenright" format="1">
  <advance width="527"/>
  <unicode hex="0029"/>
  <outline>
    <contour>
      <point x="136" y="-35" type="line"/>
      <point x="229" y="173"/>
      <point x="270" y="420"/>
      <point x="270" y="653" type="curve" smooth="yes"/>
      <point x="270" y="886"/>
      <point x="229" y="1133"/>
      <point x="136" y="1341" type="curve"/>
      <point x="264" y="1341" type="line"/>
      <point x="358" y="1142"/>
      <point x="405" y="910"/>
      <point x="405" y="653" type="curve" smooth="yes"/>
      <point x="405" y="396"/>
      <point x="358" y="164"/>
      <point x="264" y="-35" type="curve"/>
    </contour>
  </outline>
</glyph>
<glyph name="asterisk" format="1">
  <advance width="828"/>
  <unicode hex="002A"/>
  <outline>
    <contour>
      <point x="459" y="568.944" type="line"/>
      <point x="705" y="667" type="line"/>
      <point x="727" y="674"/>
      <point x="742" y="668"/>
      <point x="749" y="648" type="curve"/>
      <point x="759" y="624" type="line"/>
      <point x="760" y="618.75"/>
      <point x="761" y="613.875"/>
      <point x="761" y="609.391" type="curve" smooth="yes"/>
      <point x="761" y="595.938"/>
      <point x="753" y="586"/>
      <point x="738" y="580" type="curve" smooth="yes"/>
      <point x="498" y="484.126" type="line"/>
      <point x="683" y="276" type="line" smooth="yes"/>
      <point x="698" y="260"/>
      <point x="697" y="243"/>
      <point x="681" y="228" type="curve"/>
      <point x="661" y="212" type="line" smooth="yes"/>
      <point x="653" y="204.969"/>
      <point x="645" y="201.453"/>
      <point x="638" y="201.453" type="curve" smooth="yes"/>
      <point x="629" y="201.453"/>
      <point x="620" y="205.969"/>
      <point x="613" y="215" type="curve" smooth="yes"/>
      <point x="412" y="440.675" type="line"/>
      <point x="212" y="215" type="line" smooth="yes"/>
      <point x="204" y="205.969"/>
      <point x="195" y="201.453"/>
      <point x="186" y="201.453" type="curve" smooth="yes"/>
      <point x="179" y="201.453"/>
      <point x="171" y="204.969"/>
      <point x="164" y="212" type="curve"/>
      <point x="144" y="228" type="line"/>
      <point x="128" y="243"/>
      <point x="127" y="260"/>
      <point x="142" y="276" type="curve" smooth="yes"/>
      <point x="326" y="484.126" type="line"/>
      <point x="87" y="580" type="line" smooth="yes"/>
      <point x="71" y="586"/>
      <point x="63" y="595.938"/>
      <point x="63" y="609.391" type="curve" smooth="yes"/>
      <point x="63" y="613.875"/>
      <point x="64" y="618.75"/>
      <point x="66" y="624" type="curve" smooth="yes"/>
      <point x="76" y="648" type="line"/>
      <point x="83" y="668"/>
      <point x="98" y="674"/>
      <point x="120" y="667" type="curve"/>
      <point x="366" y="568.944" type="line"/>
      <point x="366" y="860" type="line" smooth="yes"/>
      <point x="366" y="882"/>
      <point x="378" y="894"/>
      <point x="400" y="894" type="curve" smooth="yes"/>
      <point x="425" y="894" type="line" smooth="yes"/>
      <point x="447" y="894"/>
      <point x="459" y="882"/>
      <point x="459" y="860" type="curve" smooth="yes"/>
    </contour>
    <contour>
      <point x="426" y="532" type="line"/>
      <point x="398" y="532" type="line"/>
      <point x="389" y="507.563" type="line"/>
      <point x="412" y="486.543" type="line"/>
      <point x="435" y="507.563" type="line"/>
    </contour>
  </outline>
</glyph>
<glyph name="plus" format="1">
  <advance width="903"/>
  <unicode hex="002B"/>
  <outline>
    <contour>
      <point x="429" y="103" type="line" smooth="yes"/>
      <point x="407" y="103"/>
      <point x="395" y="115"/>
      <point x="395" y="137" type="curve" smooth="yes"/>
      <point x="395" y="449" type="line"/>
      <point x="131" y="449" type="line" smooth="yes"/>
      <point x="109" y="449"/>
      <point x="97" y="461"/>
      <point x="97" y="483" type="curve" smooth="yes"/>
      <point x="97" y="498" type="line" smooth="yes"/>
      <point x="97" y="520"/>
      <point x="109" y="532"/>
      <point x="131" y="532" type="curve" smooth="yes"/>
      <point x="395" y="532" type="line"/>
      <point x="395" y="860" type="line" smooth="yes"/>
      <point x="395" y="882"/>
      <point x="407" y="894"/>
      <point x="429" y="894" type="curve" smooth="yes"/>
      <point x="454" y="894" type="line" smooth="yes"/>
      <point x="476" y="894"/>
      <point x="488" y="882"/>
      <point x="488" y="860" type="curve" smooth="yes"/>
      <point x="488" y="532" type="line"/>
      <point x="752" y="532" type="line" smooth="yes"/>
      <point x="774" y="532"/>
      <point x="786" y="520"/>
      <point x="786" y="498" type="curve" smooth="yes"/>
      <point x="786" y="483" type="line" smooth="yes"/>
      <point x="786" y="461"/>
      <point x="774" y="449"/>
      <point x="752" y="449" type="curve" smooth="yes"/>
      <point x="488" y="449" type="line"/>
      <point x="488" y="137" type="line" smooth="yes"/>
      <point x="488" y="115"/>
      <point x="476" y="103"/>
      <point x="454" y="103" type="curve" smooth="yes"/>
    </contour>
  </outline>
</glyph>
<glyph name="comma" format="1">
  <advance width="527"/>
  <unicode hex="002C"/>
  <outline>
    <contour>
      <point x="170" y="-153" type="line" smooth="yes"/>
      <point x="160" y="-153"/>
      <point x="155" y="-148.13"/>
      <point x="155" y="-141.446" type="curve" smooth="yes"/>
      <point x="155" y="-138.116"/>
      <point x="156" y="-134.335"/>
      <point x="159" y="-130.481" type="curve" smooth="yes"/>
      <point x="190" y="-90.6816"/>
      <point x="218" y="-52.1143"/>
      <point x="228" y="-10" type="curve"/>
      <point x="192" y="3"/>
      <point x="173" y="38"/>
      <point x="173" y="72" type="curve" smooth="yes"/>
      <point x="173" y="115"/>
      <point x="204" y="160"/>
      <point x="263" y="160" type="curve" smooth="yes"/>
      <point x="320" y="160"/>
      <point x="351" y="114"/>
      <point x="351" y="72" type="curve" smooth="yes"/>
      <point x="351" y="17.0479"/>
      <point x="315" y="-50.917"/>
      <point x="222" y="-134.318" type="curve" smooth="yes"/>
      <point x="208" y="-146.547"/>
      <point x="191" y="-153"/>
      <point x="173" y="-153" type="curve" smooth="yes"/>
    </contour>
  </outline>
</glyph>
<glyph name="hyphen" format="1">
  <advance width="828"/>
  <unicode hex="002D"/>
  <outline>
    <contour>
      <point x="141" y="505" type="line" smooth="yes"/>
      <point x="119" y="505"/>
      <point x="107" y="517"/>
      <point x="107" y="539" type="curve" smooth="yes"/>
      <point x="107" y="576" type="line" smooth="yes"/>
      <point x="107" y="598"/>
      <point x="119" y="610"/>
      <point x="141" y="610" type="curve" smooth="yes"/>
      <point x="673" y="610" type="line" smooth="yes"/>
      <point x="695" y="610"/>
      <point x="707" y="598"/>
      <point x="707" y="576" type="curve" smooth="yes"/>
      <point x="707" y="539" type="line" smooth="yes"/>
      <point x="707" y="517"/>
      <point x="695" y="505"/>
      <point x="673" y="505" type="curve" smooth="yes"/>
    </contour>
  </outline>
</glyph>
<glyph name="slash" format="1">
  <advance width="753"/>
  <unicode hex="002F"/>
  <outline>
    <contour>
      <point x="100" y="0" type="line" smooth="yes"/>
      <point x="86" y="0"/>
      <point x="78" y="7.48926"/>
      <point x="78" y="18.6738" type="curve" smooth="yes"/>
      <point x="78" y="22.4131"/>
      <point x="78" y="26.5664"/>
      <point x="80" y="30.9912" type="curve" smooth="yes"/>
      <point x="610" y="1209" type="line" smooth="yes"/>
      <point x="619" y="1230"/>
      <point x="635" y="1240"/>
      <point x="658" y="1240" type="curve" smooth="yes"/>
      <point x="710" y="1240" type="line" smooth="yes"/>
      <point x="725" y="1240"/>
      <point x="733" y="1232.65"/>
      <point x="733" y="1221.34" type="curve" smooth="yes"/>
      <point x="733" y="1217.62"/>
      <point x="732" y="1213.46"/>
      <point x="730" y="1209" type="curve" smooth="yes"/>
      <point x="198" y="30.9912" type="line" smooth="yes"/>
      <point x="189" y="10.0557"/>
      <point x="173" y="0"/>
      <point x="150" y="0" type="curve" smooth="yes"/>
    </contour>
  </outline>
</glyph>
<glyph name="zero" format="1">
  <advance width="1054"/>
  <unicode hex="0030"/>
  <outline>
    <contour>
      <point x="526" y="73" type="curve" smooth="yes"/>
      <point x="712" y="73"/>
      <point x="819" y="222"/>
      <point x="819" y="619" type="curve" smooth="yes"/>
      <point x="819" y="1011"/>
      <point x="712" y="1167"/>
      <point x="526" y="1167" type="curve" smooth="yes"/>
      <point x="341" y="1167"/>
      <point x="233" y="1011"/>
      <point x="233" y="619" type="curve" smooth="yes"/>
      <point x="233" y="222"/>
      <point x="341" y="73"/>
    </contour>
    <contour>
      <point x="526" y="-34" type="curve" smooth="yes"/>
      <point x="271" y="-34"/>
      <point x="111" y="179"/>
      <point x="111" y="619" type="curve" smooth="yes"/>
      <point x="111" y="1081"/>
      <point x="266" y="1274"/>
      <point x="526" y="1274" type="curve" smooth="yes"/>
      <point x="786" y="1274"/>
      <point x="941" y="1081"/>
      <point x="941" y="619" type="curve" smooth="yes"/>
      <point x="941" y="179"/>
      <point x="782" y="-34"/>
    </contour>
  </outline>
</glyph>
<glyph name="one" format="1">
  <advance width="753"/>
  <unicode hex="0031"/>
  <outline>
    <contour>
      <point x="487" y="0" type="line" smooth="yes"/>
      <point x="465" y="0"/>
      <point x="453" y="12"/>
      <point x="453" y="34" type="curve" smooth="yes"/>
      <point x="453" y="1057" type="line"/>
      <point x="384" y="1013"/>
      <point x="304" y="977"/>
      <point x="236" y="954" type="curve" smooth="yes"/>
      <point x="218" y="947"/>
      <point x="204" y="957"/>
      <point x="204" y="977" type="curve" smooth="yes"/>
      <point x="204" y="1011" type="line" smooth="yes"/>
      <point x="204" y="1035"/>
      <point x="214" y="1050"/>
      <point x="235" y="1059" type="curve" smooth="yes"/>
      <point x="377" y="1120"/>
      <point x="500" y="1201"/>
      <point x="553" y="1238" type="curve" smooth="yes"/>
      <point x="557" y="1241.59"/>
      <point x="562" y="1243.26"/>
      <point x="566" y="1243.26" type="curve" smooth="yes"/>
      <point x="575" y="1243.26"/>
      <point x="581" y="1236.13"/>
      <point x="581" y="1224" type="curve" smooth="yes"/>
      <point x="581" y="34" type="line" smooth="yes"/>
      <point x="581" y="12"/>
      <point x="569" y="0"/>
      <point x="547" y="0" type="curve" smooth="yes"/>
    </contour>
  </outline>
</glyph>
<glyph name="two" format="1">
  <advance width="828"/>
  <unicode hex="0032"/>
  <outline>
    <contour>
      <point x="71" y="0" type="line" smooth="yes"/>
      <point x="59" y="0"/>
      <point x="53" y="5.58691"/>
      <point x="53" y="13.3789" type="curve" smooth="yes"/>
      <point x="53" y="17.4736"/>
      <point x="55" y="22.1777"/>
      <point x="59" y="27" type="curve" smooth="yes"/>
      <point x="474" y="586" type="line" smooth="yes"/>
      <point x="558" y="700"/>
      <point x="618" y="796"/>
      <point x="618" y="935" type="curve" smooth="yes"/>
      <point x="618" y="1090"/>
      <point x="516" y="1167"/>
      <point x="398" y="1167" type="curve" smooth="yes"/>
      <point x="304" y="1167"/>
      <point x="207" y="1119"/>
      <point x="152" y="1079" type="curve" smooth="yes"/>
      <point x="134" y="1066"/>
      <point x="120" y="1070"/>
      <point x="110" y="1090" type="curve" smooth="yes"/>
      <point x="91" y="1132" type="line" smooth="yes"/>
      <point x="83" y="1150"/>
      <point x="87" y="1169"/>
      <point x="104" y="1180" type="curve"/>
      <point x="170" y="1228"/>
      <point x="286" y="1274"/>
      <point x="402" y="1274" type="curve" smooth="yes"/>
      <point x="595" y="1274"/>
      <point x="737" y="1136"/>
      <point x="737" y="920" type="curve" smooth="yes"/>
      <point x="737" y="763"/>
      <point x="661" y="651"/>
      <point x="549" y="503" type="curve" smooth="yes"/>
      <point x="249" y="106" type="line"/>
      <point x="716" y="106" type="line" smooth="yes"/>
      <point x="737" y="106"/>
      <point x="749" y="94"/>
      <point x="749" y="72" type="curve" smooth="yes"/>
      <point x="749" y="34" type="line" smooth="yes"/>
      <point x="749" y="12"/>
      <point x="737" y="0"/>
      <point x="716" y="0" type="curve" smooth="yes"/>
    </contour>
  </outline>
</glyph>
<glyph name="three" format="1">
  <advance width="828"/>
  <unicode hex="0033"/>
  <outline>
    <contour>
      <point x="378" y="-33" type="curve" smooth="yes"/>
      <point x="302" y="-33"/>
      <point x="200" y="-8.99902"/>
      <point x="120" y="31.001" type="curve" smooth="yes"/>
      <point x="105" y="37.8311"/>
      <point x="97" y="49.8447"/>
      <point x="97" y="63.9824" type="curve" smooth="yes"/>
      <point x="97" y="68.4736"/>
      <point x="98" y="73.1787"/>
      <point x="100" y="78" type="curve" smooth="yes"/>
      <point x="110" y="109" type="line" smooth="yes"/>
      <point x="116" y="130"/>
      <point x="131" y="136"/>
      <point x="151" y="127" type="curve" smooth="yes"/>
      <point x="235" y="89"/>
      <point x="319" y="70"/>
      <point x="388" y="70" type="curve" smooth="yes"/>
      <point x="536" y="70"/>
      <point x="647" y="161"/>
      <point x="647" y="299" type="curve" smooth="yes"/>
      <point x="647" y="451"/>
      <point x="543" y="560"/>
      <point x="284" y="635" type="curve" smooth="yes"/>
      <point x="272" y="638"/>
      <point x="266" y="661"/>
      <point x="266" y="661" type="curve"/>
      <point x="266" y="674"/>
      <point x="272" y="682"/>
      <point x="284" y="686" type="curve" smooth="yes"/>
      <point x="462" y="744"/>
      <point x="623" y="813"/>
      <point x="623" y="962" type="curve" smooth="yes"/>
      <point x="623" y="1115"/>
      <point x="498" y="1173"/>
      <point x="379" y="1173" type="curve" smooth="yes"/>
      <point x="304" y="1173"/>
      <point x="220" y="1150"/>
      <point x="159" y="1115" type="curve" smooth="yes"/>
      <point x="139" y="1104"/>
      <point x="125" y="1109"/>
      <point x="116" y="1130" type="curve" smooth="yes"/>
      <point x="103" y="1162" type="line" smooth="yes"/>
      <point x="100" y="1167.9"/>
      <point x="99" y="1173.62"/>
      <point x="99" y="1179.01" type="curve" smooth="yes"/>
      <point x="99" y="1191.92"/>
      <point x="106" y="1202.95"/>
      <point x="119" y="1210" type="curve" smooth="yes"/>
      <point x="193" y="1250"/>
      <point x="295" y="1275"/>
      <point x="387" y="1275" type="curve" smooth="yes"/>
      <point x="566" y="1275"/>
      <point x="740" y="1183"/>
      <point x="740" y="961" type="curve" smooth="yes"/>
      <point x="740" y="799"/>
      <point x="601" y="703"/>
      <point x="477" y="663" type="curve"/>
      <point x="627" y="613"/>
      <point x="766" y="486"/>
      <point x="766" y="304" type="curve" smooth="yes"/>
      <point x="766" y="106"/>
      <point x="626" y="-33"/>
    </contour>
  </outline>
</glyph>
<glyph name="four" format="1">
  <advance width="903"/>
  <unicode hex="0034"/>
  <outline>
    <contour>
      <point x="631" y="0" type="line" smooth="yes"/>
      <point x="609" y="0"/>
      <point x="597" y="11.999"/>
      <point x="597" y="33.999" type="curve" smooth="yes"/>
      <point x="597" y="256.999" type="line"/>
      <point x="38" y="256.999" type="line" smooth="yes"/>
      <point x="25" y="256.999"/>
      <point x="19" y="262.909"/>
      <point x="19" y="271.357" type="curve" smooth="yes"/>
      <point x="19" y="275.439"/>
      <point x="20" y="280.113"/>
      <point x="24" y="285" type="curve" smooth="yes"/>
      <point x="699" y="1225" type="line" smooth="yes"/>
      <point x="702" y="1230.36"/>
      <point x="706" y="1232.83"/>
      <point x="710" y="1232.83" type="curve" smooth="yes"/>
      <point x="715" y="1232.83"/>
      <point x="719" y="1227.81"/>
      <point x="719" y="1219" type="curve" smooth="yes"/>
      <point x="719" y="363" type="line"/>
      <point x="883" y="363" type="line" smooth="yes"/>
      <point x="906" y="363"/>
      <point x="915" y="360"/>
      <point x="915" y="337" type="curve" smooth="yes"/>
      <point x="915" y="285" type="line" smooth="yes"/>
      <point x="915" y="264"/>
      <point x="910" y="256.999"/>
      <point x="889" y="256.999" type="curve" smooth="yes"/>
      <point x="719" y="256.999" type="line"/>
      <point x="719" y="33.999" type="line" smooth="yes"/>
      <point x="719" y="11.999"/>
      <point x="707" y="0"/>
      <point x="685" y="0" type="curve" smooth="yes"/>
    </contour>
    <contour>
      <point x="210" y="363" type="line"/>
      <point x="597" y="363" type="line"/>
      <point x="597" y="910" type="line"/>
    </contour>
  </outline>
</glyph>
<glyph name="five" format="1">
  <advance width="903"/>
  <unicode hex="0035"/>
  <outline>
    <contour>
      <point x="818" y="368.123" type="curve" smooth="yes"/>
      <point x="818" y="99.9248"/>
      <point x="643" y="-34.001"/>
      <point x="401" y="-34.001" type="curve" smooth="yes"/>
      <point x="289" y="-34.001"/>
      <point x="171" y="2.99902"/>
      <point x="100" y="57.999" type="curve" smooth="yes"/>
      <point x="88" y="67.3828"/>
      <point x="82" y="80.4141"/>
      <point x="82" y="94.084" type="curve" smooth="yes"/>
      <point x="82" y="99.3516"/>
      <point x="83" y="104.714"/>
      <point x="85" y="109.999" type="curve" smooth="yes"/>
      <point x="97" y="148.999" type="line"/>
      <point x="104" y="167.999"/>
      <point x="118" y="172.999"/>
      <point x="135" y="160.999" type="curve" smooth="yes"/>
      <point x="190" y="120.999"/>
      <point x="286" y="72.999"/>
      <point x="404" y="72.999" type="curve" smooth="yes"/>
      <point x="586" y="72.999"/>
      <point x="699" y="184.493"/>
      <point x="699" y="363.035" type="curve" smooth="yes"/>
      <point x="699" y="530.511"/>
      <point x="606" y="640"/>
      <point x="445" y="640" type="curve" smooth="yes"/>
      <point x="385" y="640"/>
      <point x="304" y="628"/>
      <point x="257" y="588" type="curve" smooth="yes"/>
      <point x="240" y="574.664"/>
      <point x="228" y="569.013"/>
      <point x="212" y="569.013" type="curve" smooth="yes"/>
      <point x="206" y="569.013"/>
      <point x="200" y="569.704"/>
      <point x="193" y="571" type="curve" smooth="yes"/>
      <point x="164" y="575" type="line" smooth="yes"/>
      <point x="142" y="579"/>
      <point x="131" y="593"/>
      <point x="132" y="615" type="curve" smooth="yes"/>
      <point x="160" y="1207" type="line" smooth="yes"/>
      <point x="161" y="1229"/>
      <point x="174" y="1241"/>
      <point x="196" y="1241" type="curve" smooth="yes"/>
      <point x="688" y="1241" type="line" smooth="yes"/>
      <point x="709" y="1241"/>
      <point x="721" y="1228"/>
      <point x="719" y="1207" type="curve"/>
      <point x="717" y="1156" type="line"/>
      <point x="715" y="1134"/>
      <point x="702" y="1122"/>
      <point x="680" y="1122" type="curve" smooth="yes"/>
      <point x="263" y="1122" type="line"/>
      <point x="244" y="685" type="line"/>
      <point x="304" y="726"/>
      <point x="389" y="743"/>
      <point x="450" y="743" type="curve" smooth="yes"/>
      <point x="639" y="743"/>
      <point x="818" y="613.163"/>
    </contour>
  </outline>
</glyph>
<glyph name="six" format="1">
  <advance width="978"/>
  <unicode hex="0036"/>
  <outline>
    <contour>
      <point x="683" y="1241" type="line" smooth="yes"/>
      <point x="700" y="1241"/>
      <point x="708" y="1228"/>
      <point x="696" y="1213.68" type="curve"/>
      <point x="270" y="646" type="line"/>
      <point x="318" y="681"/>
      <point x="389" y="731"/>
      <point x="499" y="731" type="curve" smooth="yes"/>
      <point x="688" y="731"/>
      <point x="867" y="588"/>
      <point x="867" y="359" type="curve" smooth="yes"/>
      <point x="867" y="137"/>
      <point x="699" y="-33"/>
      <point x="471" y="-33" type="curve" smooth="yes"/>
      <point x="230" y="-33"/>
      <point x="87" y="137"/>
      <point x="87" y="362" type="curve" smooth="yes"/>
      <point x="87" y="526"/>
      <point x="144" y="640"/>
      <point x="265" y="806" type="curve" smooth="yes"/>
      <point x="561" y="1214" type="line" smooth="yes"/>
      <point x="574" y="1232"/>
      <point x="593" y="1241"/>
      <point x="616" y="1241" type="curve" smooth="yes"/>
    </contour>
    <contour>
      <point x="471" y="631" type="curve" smooth="yes"/>
      <point x="290" y="631"/>
      <point x="209" y="505"/>
      <point x="209" y="352" type="curve" smooth="yes"/>
      <point x="209" y="198"/>
      <point x="297" y="74"/>
      <point x="464" y="74" type="curve" smooth="yes"/>
      <point x="631" y="74"/>
      <point x="745" y="202"/>
      <point x="745" y="358" type="curve" smooth="yes"/>
      <point x="745" y="523"/>
      <point x="634" y="631"/>
    </contour>
  </outline>
</glyph>
<glyph name="eight" format="1">
  <advance width="903"/>
  <unicode hex="0038"/>
  <outline>
    <contour>
      <point x="446" y="1274" type="curve" smooth="yes"/>
      <point x="664" y="1274"/>
      <point x="787" y="1129"/>
      <point x="787" y="970" type="curve" smooth="yes"/>
      <point x="787" y="846"/>
      <point x="711" y="719"/>
      <point x="550" y="657" type="curve"/>
      <point x="730" y="579"/>
      <point x="810" y="442"/>
      <point x="810" y="281" type="curve" smooth="yes"/>
      <point x="810" y="75"/>
      <point x="626" y="-34"/>
      <point x="446" y="-34" type="curve" smooth="yes"/>
      <point x="266" y="-34"/>
      <point x="82" y="75"/>
      <point x="82" y="281" type="curve" smooth="yes"/>
      <point x="82" y="442"/>
      <point x="162" y="579"/>
      <point x="342" y="657" type="curve"/>
      <point x="181" y="719"/>
      <point x="105" y="846"/>
      <point x="105" y="970" type="curve" smooth="yes"/>
      <point x="105" y="1129"/>
      <point x="228" y="1274"/>
    </contour>
    <contour>
      <point x="446" y="710" type="curve"/>
      <point x="602" y="764"/>
      <point x="669" y="865"/>
      <point x="669" y="973" type="curve" smooth="yes"/>
      <point x="669" y="1093"/>
      <point x="573" y="1168"/>
      <point x="446" y="1168" type="curve" smooth="yes"/>
      <point x="319" y="1168"/>
      <point x="223" y="1093"/>
      <point x="223" y="973" type="curve" smooth="yes"/>
      <point x="223" y="865"/>
      <point x="290" y="764"/>
    </contour>
    <contour>
      <point x="209" y="311.733" type="curve" smooth="yes"/>
      <point x="209" y="151.424"/>
      <point x="316" y="72"/>
      <point x="446" y="72" type="curve" smooth="yes"/>
      <point x="575" y="72"/>
      <point x="682" y="151.405"/>
      <point x="682" y="311.733" type="curve" smooth="yes"/>
      <point x="682" y="443.389"/>
      <point x="603" y="554.035"/>
      <point x="446" y="605" type="curve"/>
      <point x="288" y="554.035"/>
      <point x="209" y="443.389"/>
    </contour>
  </outline>
</glyph>
<glyph name="nine" format="1">
  <advance width="903"/>
  <unicode hex="0039"/>
  <outline>
    <contour>
      <point x="252" y="0" type="line" smooth="yes"/>
      <point x="234" y="0"/>
      <point x="227" y="13"/>
      <point x="238" y="27.3223" type="curve" smooth="yes"/>
      <point x="665" y="595" type="line"/>
      <point x="617" y="560"/>
      <point x="546" y="510"/>
      <point x="436" y="510" type="curve" smooth="yes"/>
      <point x="247" y="510"/>
      <point x="68" y="653"/>
      <point x="68" y="882" type="curve" smooth="yes"/>
      <point x="68" y="1104"/>
      <point x="236" y="1274"/>
      <point x="464" y="1274" type="curve" smooth="yes"/>
      <point x="705" y="1274"/>
      <point x="848" y="1104"/>
      <point x="848" y="879" type="curve" smooth="yes"/>
      <point x="848" y="715"/>
      <point x="791" y="601"/>
      <point x="670" y="435" type="curve" smooth="yes"/>
      <point x="374" y="27" type="line" smooth="yes"/>
      <point x="361" y="9"/>
      <point x="342" y="0"/>
      <point x="319" y="0" type="curve" smooth="yes"/>
    </contour>
    <contour>
      <point x="464" y="610" type="curve" smooth="yes"/>
      <point x="645" y="610"/>
      <point x="726" y="736"/>
      <point x="726" y="889" type="curve" smooth="yes"/>
      <point x="726" y="1043"/>
      <point x="638" y="1167"/>
      <point x="471" y="1167" type="curve" smooth="yes"/>
      <point x="304" y="1167"/>
      <point x="190" y="1039"/>
      <point x="190" y="883" type="curve" smooth="yes"/>
      <point x="190" y="718"/>
      <point x="301" y="610"/>
    </contour>
  </outline>
</glyph>
<glyph name="colon" format="1">
  <advance width="527"/>
  <unicode hex="003A"/>
  <outline>
    <contour>
      <point x="255" y="655" type="curve" smooth="yes"/>
      <point x="196" y="655"/>
      <point x="165" y="699"/>
      <point x="165" y="743" type="curve" smooth="yes"/>
      <point x="165" y="786"/>
      <point x="196" y="831"/>
      <point x="255" y="831" type="curve" smooth="yes"/>
      <point x="312" y="831"/>
      <point x="343" y="785"/>
      <point x="343" y="743" type="curve" smooth="yes"/>
      <point x="343" y="699"/>
      <point x="312" y="655"/>
    </contour>
    <contour>
      <point x="255" y="-1" type="curve" smooth="yes"/>
      <point x="196" y="-1"/>
      <point x="165" y="43"/>
      <point x="165" y="87" type="curve" smooth="yes"/>
      <point x="165" y="130"/>
      <point x="196" y="175"/>
      <point x="255" y="175" type="curve" smooth="yes"/>
      <point x="312" y="175"/>
      <point x="343" y="129"/>
      <point x="343" y="87" type="curve" smooth="yes"/>
      <point x="343" y="43"/>
      <point x="312" y="-1"/>
    </contour>
  </outline>
</glyph>
<glyph name="less" format="1">
  <advance width="978"/>
  <unicode hex="003C"/>
  <outline>
    <contour>
      <point x="836" y="2.45312" type="curve" smooth="yes"/>
      <point x="41" y="375.545" type="line" smooth="yes"/>
      <point x="33" y="379.239"/>
      <point x="29" y="384.697"/>
      <point x="29" y="390.171" type="curve" smooth="yes"/>
      <point x="29" y="395.602"/>
      <point x="33" y="401.047"/>
      <point x="41" y="404.801" type="curve" smooth="yes"/>
      <point x="836" y="789.194" type="line" smooth="yes"/>
      <point x="840" y="791.369"/>
      <point x="845" y="792.403"/>
      <point x="848" y="792.403" type="curve" smooth="yes"/>
      <point x="859" y="792.403"/>
      <point x="866" y="784.128"/>
      <point x="866" y="769.998" type="curve" smooth="yes"/>
      <point x="866" y="707.998" type="line" smooth="yes"/>
      <point x="866" y="685.017"/>
      <point x="856" y="669.378"/>
      <point x="836" y="659.741" type="curve" smooth="yes"/>
      <point x="249" y="388.999" type="line"/>
      <point x="835" y="128.799" type="line" smooth="yes"/>
      <point x="856" y="119.48"/>
      <point x="866" y="103.959"/>
      <point x="866" y="81" type="curve" smooth="yes"/>
      <point x="866" y="22" type="line" smooth="yes"/>
      <point x="866" y="7.70117"/>
      <point x="859" y="-0.655273"/>
      <point x="848" y="-0.655273" type="curve" smooth="yes"/>
      <point x="844" y="-0.655273"/>
      <point x="840" y="0.347656"/>
    </contour>
  </outline>
</glyph>
<glyph name="equal" format="1">
  <advance width="828"/>
  <unicode hex="003D"/>
  <outline>
    <contour>
      <point x="141" y="410" type="line" smooth="yes"/>
      <point x="119" y="410"/>
      <point x="107" y="422.264"/>
      <point x="107" y="444" type="curve" smooth="yes"/>
      <point x="107" y="469" type="line" smooth="yes"/>
      <point x="107" y="490.736"/>
      <point x="119" y="503"/>
      <point x="141" y="503" type="curve" smooth="yes"/>
      <point x="683" y="503" type="line" smooth="yes"/>
      <point x="704" y="503"/>
      <point x="717" y="490.736"/>
      <point x="717" y="469" type="curve" smooth="yes"/>
      <point x="717" y="444" type="line" smooth="yes"/>
      <point x="717" y="422.264"/>
      <point x="704" y="410"/>
      <point x="683" y="410" type="curve" smooth="yes"/>
    </contour>
    <contour>
      <point x="141" y="647" type="line" smooth="yes"/>
      <point x="119" y="647"/>
      <point x="107" y="659.264"/>
      <point x="107" y="681" type="curve" smooth="yes"/>
      <point x="107" y="706" type="line" smooth="yes"/>
      <point x="107" y="727.736"/>
      <point x="119" y="740"/>
      <point x="141" y="740" type="curve" smooth="yes"/>
      <point x="683" y="740" type="line" smooth="yes"/>
      <point x="704" y="740"/>
      <point x="717" y="727.736"/>
      <point x="717" y="706" type="curve" smooth="yes"/>
      <point x="717" y="681" type="line" smooth="yes"/>
      <point x="717" y="659.264"/>
      <point x="704" y="647"/>
      <point x="683" y="647" type="curve" smooth="yes"/>
    </contour>
  </outline>
</glyph>
<glyph name="greater" format="1">
  <advance width="978"/>
  <unicode hex="003E"/>
  <outline>
    <contour>
      <point x="103" y="2.80371" type="line" smooth="yes"/>
      <point x="99" y="0.628906"/>
      <point x="94" y="-0.402344"/>
      <point x="91" y="-0.402344" type="curve" smooth="yes"/>
      <point x="80" y="-0.402344"/>
      <point x="73" y="7.87305"/>
      <point x="73" y="22.0029" type="curve" smooth="yes"/>
      <point x="73" y="84.0029" type="line" smooth="yes"/>
      <point x="73" y="106.984"/>
      <point x="83" y="122.623"/>
      <point x="103" y="132.26" type="curve" smooth="yes"/>
      <point x="690" y="403.002" type="line"/>
      <point x="104" y="663.202" type="line" smooth="yes"/>
      <point x="83" y="672.521"/>
      <point x="73" y="688.042"/>
      <point x="73" y="711.001" type="curve" smooth="yes"/>
      <point x="73" y="770.001" type="line" smooth="yes"/>
      <point x="73" y="784.3"/>
      <point x="80" y="792.656"/>
      <point x="91" y="792.656" type="curve" smooth="yes"/>
      <point x="95" y="792.656"/>
      <point x="99" y="791.653"/>
      <point x="103" y="789.548" type="curve" smooth="yes"/>
      <point x="898" y="416.453" type="line" smooth="yes"/>
      <point x="906" y="412.759"/>
      <point x="910" y="407.301"/>
      <point x="910" y="401.827" type="curve" smooth="yes"/>
      <point x="910" y="396.396"/>
      <point x="906" y="390.951"/>
      <point x="898" y="387.197" type="curve" smooth="yes"/>
    </contour>
  </outline>
</glyph>
<glyph name="question" format="1">
  <advance width="828"/>
  <unicode hex="003F"/>
  <outline>
    <contour>
      <point x="215" y="-16" type="curve" smooth="yes"/>
      <point x="156" y="-16"/>
      <point x="125" y="28"/>
      <point x="125" y="72" type="curve" smooth="yes"/>
      <point x="125" y="115"/>
      <point x="156" y="160"/>
      <point x="215" y="160" type="curve" smooth="yes"/>
      <point x="272" y="160"/>
      <point x="303" y="114"/>
      <point x="303" y="72" type="curve" smooth="yes"/>
      <point x="303" y="28"/>
      <point x="272" y="-16"/>
    </contour>
    <contour>
      <point x="216" y="348" type="line" smooth="yes"/>
      <point x="199" y="348"/>
      <point x="194" y="360.617"/>
      <point x="205" y="373.234" type="curve" smooth="yes"/>
      <point x="520" y="723.183"/>
      <point x="597" y="812.346"/>
      <point x="597" y="954" type="curve" smooth="yes"/>
      <point x="597" y="1101"/>
      <point x="482" y="1167"/>
      <point x="364" y="1167" type="curve" smooth="yes"/>
      <point x="270" y="1167"/>
      <point x="185" y="1133.69"/>
      <point x="114" y="1087.53" type="curve" smooth="yes"/>
      <point x="96" y="1075.41"/>
      <point x="80" y="1079.17"/>
      <point x="69" y="1098.31" type="curve" smooth="yes"/>
      <point x="49" y="1132.65" type="line" smooth="yes"/>
      <point x="46" y="1138.97"/>
      <point x="44" y="1145.45"/>
      <point x="44" y="1151.68" type="curve" smooth="yes"/>
      <point x="44" y="1162.77"/>
      <point x="49" y="1173.09"/>
      <point x="60" y="1180.4" type="curve" smooth="yes"/>
      <point x="130" y="1228.06"/>
      <point x="251" y="1274"/>
      <point x="372" y="1274" type="curve" smooth="yes"/>
      <point x="563" y="1274"/>
      <point x="726" y="1162"/>
      <point x="726" y="946.999" type="curve" smooth="yes"/>
      <point x="726" y="760.624"/>
      <point x="577" y="636.812"/>
      <point x="318" y="372.336" type="curve" smooth="yes"/>
      <point x="302" y="355.823"/>
      <point x="283" y="348"/>
      <point x="260" y="348" type="curve" smooth="yes"/>
    </contour>
  </outline>
</glyph>
<glyph name="at" format="1">
  <advance width="1506"/>
  <unicode hex="0040"/>
  <outline>
    <contour>
      <point x="778" y="1073.31" type="curve" smooth="yes"/>
      <point x="479" y="1073.31"/>
      <point x="212" y="891.736"/>
      <point x="212" y="510.001" type="curve" smooth="yes"/>
      <point x="212" y="136.001"/>
      <point x="485" y="-50.999"/>
      <point x="755" y="-50.999" type="curve" smooth="yes"/>
      <point x="833" y="-50.999"/>
      <point x="928" y="-34.999"/>
      <point x="1003" y="-0.999023" type="curve"/>
      <point x="1034" y="-89.999" type="line"/>
      <point x="946" y="-124.999"/>
      <point x="851" y="-142.999"/>
      <point x="756" y="-142.999" type="curve" smooth="yes"/>
      <point x="421" y="-142.999"/>
      <point x="97" y="73.001"/>
      <point x="97" y="510.001" type="curve" smooth="yes"/>
      <point x="97" y="952.362"/>
      <point x="428" y="1169.09"/>
      <point x="771" y="1169.09" type="curve" smooth="yes"/>
      <point x="1124" y="1169.09"/>
      <point x="1414" y="956.945"/>
      <point x="1414" y="523.002" type="curve" smooth="yes"/>
      <point x="1414" y="315.973"/>
      <point x="1309" y="127.372"/>
      <point x="1136" y="127.372" type="curve" smooth="yes"/>
      <point x="1024" y="127.372"/>
      <point x="979" y="183.83"/>
      <point x="958" y="252.001" type="curve"/>
      <point x="883" y="168.842"/>
      <point x="805" y="119.985"/>
      <point x="700" y="119.985" type="curve" smooth="yes"/>
      <point x="596" y="119.985"/>
      <point x="480" y="191.892"/>
      <point x="480" y="341.766" type="curve" smooth="yes"/>
      <point x="480" y="415.043"/>
      <point x="496" y="523.025"/>
      <point x="775" y="578.001" type="curve" smooth="yes"/>
      <point x="933" y="609.001" type="line"/>
      <point x="933" y="781.956"/>
      <point x="875" y="833.522"/>
      <point x="781" y="833.522" type="curve" smooth="yes"/>
      <point x="716" y="833.522"/>
      <point x="633" y="809.093"/>
      <point x="541" y="783.001" type="curve" smooth="yes"/>
      <point x="521" y="777.001"/>
      <point x="505" y="780.001"/>
      <point x="497" y="800.001" type="curve" smooth="yes"/>
      <point x="488" y="824.001" type="line" smooth="yes"/>
      <point x="480" y="843.001"/>
      <point x="487" y="864.001"/>
      <point x="506" y="870.001" type="curve" smooth="yes"/>
      <point x="616" y="905.659"/>
      <point x="712" y="926.869"/>
      <point x="793" y="926.869" type="curve" smooth="yes"/>
      <point x="962" y="926.869"/>
      <point x="1060" y="832.178"/>
      <point x="1060" y="579.001" type="curve" smooth="yes"/>
      <point x="1060" y="321.001" type="line" smooth="yes"/>
      <point x="1060" y="242.035"/>
      <point x="1084" y="203.284"/>
      <point x="1145" y="203.284" type="curve" smooth="yes"/>
      <point x="1229" y="203.284"/>
      <point x="1307" y="298.979"/>
      <point x="1307" y="518.001" type="curve" smooth="yes"/>
      <point x="1307" y="885.407"/>
      <point x="1090" y="1073.31"/>
    </contour>
    <contour>
      <point x="722" y="206.134" type="curve" smooth="yes"/>
      <point x="787" y="206.134"/>
      <point x="866" y="241.566"/>
      <point x="932" y="315" type="curve"/>
      <point x="932" y="546" type="line"/>
      <point x="769" y="502" type="line" smooth="yes"/>
      <point x="623" y="462.595"/>
      <point x="589" y="403.78"/>
      <point x="589" y="342.765" type="curve" smooth="yes"/>
      <point x="589" y="252.995"/>
      <point x="647" y="206.134"/>
    </contour>
  </outline>
</glyph>
<glyph name="A" format="1">
  <advance width="1054"/>
  <unicode hex="0041"/>
  <outline>
    <contour>
      <point x="788.5" y="392" type="line"/>
      <point x="528.5" y="1009" type="line"/>
      <point x="268.5" y="392" type="line"/>
    </contour>
    <contour>
      <point x="8.5" y="0" type="line" smooth="yes"/>
      <point x="-7.5" y="0"/>
      <point x="-15.5" y="7.52734"/>
      <point x="-15.5" y="19.0576" type="curve" smooth="yes"/>
      <point x="-15.5" y="22.6797"/>
      <point x="-14.5" y="26.6973"/>
      <point x="-12.5" y="31" type="curve" smooth="yes"/>
      <point x="516.5" y="1228" type="line" smooth="yes"/>
      <point x="519.5" y="1235.5"/>
      <point x="524.5" y="1239.25"/>
      <point x="529.5" y="1239.25" type="curve" smooth="yes"/>
      <point x="534.5" y="1239.25"/>
      <point x="539.5" y="1235.5"/>
      <point x="543.5" y="1228" type="curve" smooth="yes"/>
      <point x="1067.5" y="31" type="line" smooth="yes"/>
      <point x="1068.5" y="26.5371"/>
      <point x="1069.5" y="22.3818"/>
      <point x="1069.5" y="18.6553" type="curve" smooth="yes"/>
      <point x="1069.5" y="7.35254"/>
      <point x="1061.5" y="0"/>
      <point x="1047.5" y="0" type="curve" smooth="yes"/>
      <point x="988.5" y="0" type="line" smooth="yes"/>
      <point x="965.5" y="0"/>
      <point x="949.5" y="10"/>
      <point x="940.5" y="31" type="curve" smooth="yes"/>
      <point x="827.5" y="299" type="line"/>
      <point x="229.5" y="299" type="line"/>
      <point x="116.5" y="31" type="line" smooth="yes"/>
      <point x="107.5" y="10"/>
      <point x="92.5" y="0"/>
      <point x="69.5" y="0" type="curve" smooth="yes"/>
    </contour>
  </outline>
</glyph>
<glyph name="B" format="1">
  <advance width="1054"/>
  <unicode hex="0042"/>
  <outline>
    <contour>
      <point x="471" y="0" type="curve" smooth="yes"/>
      <point x="155" y="0" type="line" smooth="yes"/>
      <point x="133" y="0"/>
      <point x="121" y="12"/>
      <point x="121" y="34" type="curve" smooth="yes"/>
      <point x="121" y="1206" type="line" smooth="yes"/>
      <point x="121" y="1228"/>
      <point x="133" y="1240"/>
      <point x="155" y="1240" type="curve" smooth="yes"/>
      <point x="440" y="1240" type="line" smooth="yes"/>
      <point x="766" y="1240"/>
      <point x="879" y="1134"/>
      <point x="879" y="938" type="curve" smooth="yes"/>
      <point x="879" y="842"/>
      <point x="819" y="712"/>
      <point x="661" y="676" type="curve"/>
      <point x="826" y="651"/>
      <point x="958" y="533"/>
      <point x="958" y="356" type="curve" smooth="yes"/>
      <point x="958" y="111"/>
      <point x="800" y="0"/>
    </contour>
    <contour>
      <point x="249" y="624" type="line"/>
      <point x="249" y="106" type="line"/>
      <point x="463" y="106" type="line" smooth="yes"/>
      <point x="724" y="106"/>
      <point x="836" y="178"/>
      <point x="836" y="353" type="curve" smooth="yes"/>
      <point x="836" y="522"/>
      <point x="735" y="624"/>
      <point x="444" y="624" type="curve" smooth="yes"/>
    </contour>
    <contour>
      <point x="249" y="1134" type="line"/>
      <point x="249" y="715" type="line"/>
      <point x="431" y="715" type="line" smooth="yes"/>
      <point x="542" y="715"/>
      <point x="766" y="726"/>
      <point x="766" y="940" type="curve" smooth="yes"/>
      <point x="766" y="1103"/>
      <point x="643" y="1134"/>
      <point x="437" y="1134" type="curve" smooth="yes"/>
    </contour>
  </outline>
</glyph>
<glyph name="C" format="1">
  <advance width="1204"/>
  <unicode hex="0043"/>
  <outline>
    <contour>
      <point x="221" y="622" type="curve" smooth="yes"/>
      <point x="221" y="270"/>
      <point x="447" y="72"/>
      <point x="777" y="72" type="curve" smooth="yes"/>
      <point x="890" y="72"/>
      <point x="1029" y="110"/>
      <point x="1136" y="158" type="curve" smooth="yes"/>
      <point x="1154" y="166"/>
      <point x="1167" y="158"/>
      <point x="1167" y="138" type="curve" smooth="yes"/>
      <point x="1167" y="86" type="line" smooth="yes"/>
      <point x="1167" y="64"/>
      <point x="1156" y="48"/>
      <point x="1136" y="39" type="curve" smooth="yes"/>
      <point x="1057" y="6"/>
      <point x="917" y="-34"/>
      <point x="768" y="-34" type="curve" smooth="yes"/>
      <point x="372" y="-34"/>
      <point x="92" y="194"/>
      <point x="92" y="622" type="curve" smooth="yes"/>
      <point x="92" y="1050"/>
      <point x="380" y="1274"/>
      <point x="770" y="1274" type="curve" smooth="yes"/>
      <point x="919" y="1274"/>
      <point x="1060" y="1227"/>
      <point x="1137" y="1188" type="curve" smooth="yes"/>
      <point x="1156" y="1179"/>
      <point x="1167" y="1161"/>
      <point x="1167" y="1140" type="curve" smooth="yes"/>
      <point x="1167" y="1095" type="line" smooth="yes"/>
      <point x="1167" y="1076"/>
      <point x="1154" y="1068"/>
      <point x="1136" y="1076" type="curve" smooth="yes"/>
      <point x="1031" y="1126"/>
      <point x="902" y="1168"/>
      <point x="770" y="1168" type="curve" smooth="yes"/>
      <point x="449" y="1168"/>
      <point x="221" y="976"/>
    </contour>
  </outline>
</glyph>
<glyph name="D" format="1">
  <advance width="1355"/>
  <unicode hex="0044"/>
  <outline>
    <contour>
      <point x="608" y="0" type="curve" smooth="yes"/>
      <point x="160" y="0" type="line" smooth="yes"/>
      <point x="138" y="0"/>
      <point x="126" y="12"/>
      <point x="126" y="34" type="curve" smooth="yes"/>
      <point x="126" y="1206" type="line" smooth="yes"/>
      <point x="126" y="1228"/>
      <point x="138" y="1240"/>
      <point x="160" y="1240" type="curve" smooth="yes"/>
      <point x="638" y="1240" type="line" smooth="yes"/>
      <point x="1051" y="1240"/>
      <point x="1263" y="989"/>
      <point x="1263" y="626" type="curve" smooth="yes"/>
      <point x="1263" y="294"/>
      <point x="1032" y="0"/>
    </contour>
    <contour>
      <point x="254" y="1134" type="line"/>
      <point x="254" y="106" type="line"/>
      <point x="590" y="106" type="line" smooth="yes"/>
      <point x="918" y="106"/>
      <point x="1134" y="322"/>
      <point x="1134" y="622" type="curve" smooth="yes"/>
      <point x="1134" y="984"/>
      <point x="935" y="1134"/>
      <point x="640" y="1134" type="curve" smooth="yes"/>
    </contour>
  </outline>
</glyph>
<glyph name="E" format="1">
  <advance width="903"/>
  <unicode hex="0045"/>
  <outline>
    <contour>
      <point x="254" y="106" type="line"/>
      <point x="822" y="106" type="line" smooth="yes"/>
      <point x="844" y="106"/>
      <point x="856" y="94"/>
      <point x="856" y="72" type="curve" smooth="yes"/>
      <point x="856" y="34" type="line" smooth="yes"/>
      <point x="856" y="12"/>
      <point x="844" y="0"/>
      <point x="822" y="0" type="curve" smooth="yes"/>
      <point x="160" y="0" type="line" smooth="yes"/>
      <point x="138" y="0"/>
      <point x="126" y="12"/>
      <point x="126" y="34" type="curve" smooth="yes"/>
      <point x="126" y="1206" type="line" smooth="yes"/>
      <point x="126" y="1228"/>
      <point x="138" y="1240"/>
      <point x="160" y="1240" type="curve" smooth="yes"/>
      <point x="812" y="1240" type="line" smooth="yes"/>
      <point x="834" y="1240"/>
      <point x="846" y="1228"/>
      <point x="846" y="1206" type="curve" smooth="yes"/>
      <point x="846" y="1168" type="line" smooth="yes"/>
      <point x="846" y="1146"/>
      <point x="834" y="1134"/>
      <point x="812" y="1134" type="curve" smooth="yes"/>
      <point x="254" y="1134" type="line"/>
      <point x="254" y="694" type="line"/>
      <point x="749" y="694" type="line" smooth="yes"/>
      <point x="771" y="694"/>
      <point x="783" y="682"/>
      <point x="783" y="660" type="curve" smooth="yes"/>
      <point x="783" y="622" type="line" smooth="yes"/>
      <point x="783" y="600"/>
      <point x="771" y="588"/>
      <point x="749" y="588" type="curve" smooth="yes"/>
      <point x="254" y="588" type="line"/>
    </contour>
  </outline>
</glyph>
<glyph name="F" format="1">
  <advance width="828"/>
  <unicode hex="0046"/>
  <outline>
    <contour>
      <point x="264" y="1134" type="line"/>
      <point x="264" y="725" type="line"/>
      <point x="660" y="725" type="line" smooth="yes"/>
      <point x="682" y="725"/>
      <point x="694" y="713"/>
      <point x="694" y="691" type="curve" smooth="yes"/>
      <point x="694" y="653" type="line" smooth="yes"/>
      <point x="694" y="631"/>
      <point x="682" y="619"/>
      <point x="660" y="619" type="curve" smooth="yes"/>
      <point x="264" y="619" type="line"/>
      <point x="264" y="34" type="line" smooth="yes"/>
      <point x="264" y="12"/>
      <point x="252" y="0"/>
      <point x="230" y="0" type="curve" smooth="yes"/>
      <point x="170" y="0" type="line" smooth="yes"/>
      <point x="148" y="0"/>
      <point x="136" y="12"/>
      <point x="136" y="34" type="curve" smooth="yes"/>
      <point x="136" y="1206" type="line" smooth="yes"/>
      <point x="136" y="1228"/>
      <point x="148" y="1240"/>
      <point x="170" y="1240" type="curve" smooth="yes"/>
      <point x="726" y="1240" type="line" smooth="yes"/>
      <point x="748" y="1240"/>
      <point x="760" y="1228"/>
      <point x="760" y="1206" type="curve" smooth="yes"/>
      <point x="760" y="1168" type="line" smooth="yes"/>
      <point x="760" y="1146"/>
      <point x="748" y="1134"/>
      <point x="726" y="1134" type="curve" smooth="yes"/>
    </contour>
  </outline>
</glyph>
<glyph name="G" format="1">
  <advance width="1355"/>
  <unicode hex="0047"/>
  <outline>
    <contour>
      <point x="1225" y="85" type="curve" smooth="yes"/>
      <point x="1106" y="20"/>
      <point x="995" y="-34.001"/>
      <point x="746" y="-34.001" type="curve" smooth="yes"/>
      <point x="427" y="-34.001"/>
      <point x="87" y="189.999"/>
      <point x="87" y="620.999" type="curve" smooth="yes"/>
      <point x="87" y="1025"/>
      <point x="391" y="1274"/>
      <point x="758" y="1274" type="curve" smooth="yes"/>
      <point x="907" y="1274"/>
      <point x="1054" y="1230.16"/>
      <point x="1134" y="1199.65" type="curve" smooth="yes"/>
      <point x="1155" y="1191.81"/>
      <point x="1166" y="1176.05"/>
      <point x="1166" y="1153.94" type="curve" smooth="yes"/>
      <point x="1166" y="1111.29" type="line" smooth="yes"/>
      <point x="1166" y="1091.66"/>
      <point x="1152" y="1082.96"/>
      <point x="1134" y="1090.49" type="curve" smooth="yes"/>
      <point x="1011" y="1141.64"/>
      <point x="885" y="1168"/>
      <point x="768" y="1168" type="curve" smooth="yes"/>
      <point x="464" y="1168"/>
      <point x="217" y="991.999"/>
      <point x="217" y="620.999" type="curve" smooth="yes"/>
      <point x="217" y="240.999"/>
      <point x="489" y="72"/>
      <point x="765" y="72" type="curve" smooth="yes"/>
      <point x="1010" y="72"/>
      <point x="1135" y="157"/>
      <point x="1136" y="158" type="curve"/>
      <point x="1136" y="555" type="line"/>
      <point x="827" y="555" type="line" smooth="yes"/>
      <point x="805" y="555"/>
      <point x="793" y="567.264"/>
      <point x="793" y="589" type="curve" smooth="yes"/>
      <point x="793" y="626" type="line" smooth="yes"/>
      <point x="793" y="647.736"/>
      <point x="805" y="660"/>
      <point x="827" y="660" type="curve" smooth="yes"/>
      <point x="1221" y="660" type="line" smooth="yes"/>
      <point x="1243" y="660"/>
      <point x="1255" y="648"/>
      <point x="1255" y="626" type="curve" smooth="yes"/>
      <point x="1255" y="136" type="line" smooth="yes"/>
      <point x="1255" y="113"/>
      <point x="1245" y="96"/>
    </contour>
  </outline>
</glyph>
<glyph name="H" format="1">
  <advance width="1280"/>
  <unicode hex="0048"/>
  <outline>
    <contour>
      <point x="1150.5" y="1206" type="curve" smooth="yes"/>
      <point x="1150.5" y="34" type="line" smooth="yes"/>
      <point x="1150.5" y="12"/>
      <point x="1138.5" y="0"/>
      <point x="1116.5" y="0" type="curve" smooth="yes"/>
      <point x="1056.5" y="0" type="line" smooth="yes"/>
      <point x="1034.5" y="0"/>
      <point x="1022.5" y="12"/>
      <point x="1022.5" y="34" type="curve" smooth="yes"/>
      <point x="1022.5" y="603" type="line"/>
      <point x="257.5" y="603" type="line"/>
      <point x="257.5" y="34" type="line" smooth="yes"/>
      <point x="257.5" y="12"/>
      <point x="245.5" y="0"/>
      <point x="223.5" y="0" type="curve" smooth="yes"/>
      <point x="163.5" y="0" type="line" smooth="yes"/>
      <point x="141.5" y="0"/>
      <point x="129.5" y="12"/>
      <point x="129.5" y="34" type="curve" smooth="yes"/>
      <point x="129.5" y="1206" type="line" smooth="yes"/>
      <point x="129.5" y="1228"/>
      <point x="141.5" y="1240"/>
      <point x="163.5" y="1240" type="curve" smooth="yes"/>
      <point x="223.5" y="1240" type="line" smooth="yes"/>
      <point x="245.5" y="1240"/>
      <point x="257.5" y="1228"/>
      <point x="257.5" y="1206" type="curve" smooth="yes"/>
      <point x="257.5" y="704" type="line"/>
      <point x="1022.5" y="704" type="line"/>
      <point x="1022.5" y="1206" type="line" smooth="yes"/>
      <point x="1022.5" y="1228"/>
      <point x="1034.5" y="1240"/>
      <point x="1056.5" y="1240" type="curve" smooth="yes"/>
      <point x="1116.5" y="1240" type="line" smooth="yes"/>
      <point x="1138.5" y="1240"/>
      <point x="1150.5" y="1228"/>
    </contour>
  </outline>
</glyph>
<glyph name="I" format="1">
  <advance width="527"/>
  <unicode hex="0049"/>
  <outline>
    <contour>
      <point x="307" y="1206" type="curve" smooth="yes"/>
      <point x="307" y="34" type="line" smooth="yes"/>
      <point x="307" y="12"/>
      <point x="295" y="0"/>
      <point x="273" y="0" type="curve" smooth="yes"/>
      <point x="213" y="0" type="line" smooth="yes"/>
      <point x="191" y="0"/>
      <point x="179" y="12"/>
      <point x="179" y="34" type="curve" smooth="yes"/>
      <point x="179" y="1206" type="line" smooth="yes"/>
      <point x="179" y="1228"/>
      <point x="191" y="1240"/>
      <point x="213" y="1240" type="curve" smooth="yes"/>
      <point x="273" y="1240" type="line" smooth="yes"/>
      <point x="295" y="1240"/>
      <point x="307" y="1228"/>
    </contour>
  </outline>
</glyph>
<glyph name="J" format="1">
  <advance width="677"/>
  <unicode hex="004A"/>
  <outline>
    <contour>
      <point x="181" y="-74" type="curve" smooth="yes"/>
      <point x="173" y="-74.6846"/>
      <point x="167" y="-75.0459"/>
      <point x="162" y="-75.0459" type="curve" smooth="yes"/>
      <point x="136" y="-75.0459"/>
      <point x="129" y="-66.5488"/>
      <point x="125" y="-44.999" type="curve" smooth="yes"/>
      <point x="117" y="-5.99902" type="line" smooth="yes"/>
      <point x="116" y="-2.45996"/>
      <point x="116" y="0.708008"/>
      <point x="116" y="3.5459" type="curve" smooth="yes"/>
      <point x="116" y="21.5596"/>
      <point x="130" y="26.2725"/>
      <point x="156" y="28" type="curve" smooth="yes"/>
      <point x="364" y="43"/>
      <point x="449" y="166"/>
      <point x="449" y="429" type="curve" smooth="yes"/>
      <point x="449" y="1206" type="line" smooth="yes"/>
      <point x="449" y="1228"/>
      <point x="461" y="1240"/>
      <point x="483" y="1240" type="curve" smooth="yes"/>
      <point x="543" y="1240" type="line" smooth="yes"/>
      <point x="564" y="1240"/>
      <point x="577" y="1228"/>
      <point x="577" y="1206" type="curve" smooth="yes"/>
      <point x="577" y="446" type="line" smooth="yes"/>
      <point x="577" y="124"/>
      <point x="480" y="-45"/>
    </contour>
  </outline>
</glyph>
<glyph name="K" format="1">
  <advance width="1054"/>
  <unicode hex="004B"/>
  <outline>
    <contour>
      <point x="249" y="1206" type="curve" smooth="yes"/>
      <point x="249" y="674.439" type="line"/>
      <point x="814" y="1216" type="line" smooth="yes"/>
      <point x="830" y="1232"/>
      <point x="849" y="1240"/>
      <point x="872" y="1240" type="curve" smooth="yes"/>
      <point x="962" y="1240" type="line" smooth="yes"/>
      <point x="978" y="1240"/>
      <point x="983" y="1228"/>
      <point x="972" y="1216" type="curve"/>
      <point x="370" y="642.001" type="line"/>
      <point x="1018" y="23.7256" type="line" smooth="yes"/>
      <point x="1023" y="19.4307"/>
      <point x="1025" y="15.0332"/>
      <point x="1025" y="11.209" type="curve" smooth="yes"/>
      <point x="1025" y="4.79883"/>
      <point x="1019" y="0"/>
      <point x="1009" y="0" type="curve" smooth="yes"/>
      <point x="916" y="0" type="line" smooth="yes"/>
      <point x="893" y="0"/>
      <point x="874" y="7.68457"/>
      <point x="857" y="23.7256" type="curve" smooth="yes"/>
      <point x="249" y="605.573" type="line"/>
      <point x="249" y="34" type="line" smooth="yes"/>
      <point x="249" y="12"/>
      <point x="237" y="0"/>
      <point x="215" y="0" type="curve" smooth="yes"/>
      <point x="155" y="0" type="line" smooth="yes"/>
      <point x="133" y="0"/>
      <point x="121" y="12"/>
      <point x="121" y="34" type="curve" smooth="yes"/>
      <point x="121" y="1206" type="line" smooth="yes"/>
      <point x="121" y="1228"/>
      <point x="133" y="1240"/>
      <point x="155" y="1240" type="curve" smooth="yes"/>
      <point x="215" y="1240" type="line" smooth="yes"/>
      <point x="237" y="1240"/>
      <point x="249" y="1228"/>
    </contour>
  </outline>
</glyph>
<glyph name="L" format="1">
  <advance width="903"/>
  <unicode hex="004C"/>
  <outline>
    <contour>
      <point x="259" y="1206" type="curve" smooth="yes"/>
      <point x="259" y="106" type="line"/>
      <point x="770" y="106" type="line" smooth="yes"/>
      <point x="792" y="106"/>
      <point x="804" y="93.7363"/>
      <point x="804" y="72" type="curve" smooth="yes"/>
      <point x="804" y="34" type="line" smooth="yes"/>
      <point x="804" y="12.2637"/>
      <point x="792" y="0"/>
      <point x="770" y="0" type="curve" smooth="yes"/>
      <point x="165" y="0" type="line" smooth="yes"/>
      <point x="143" y="0"/>
      <point x="131" y="12"/>
      <point x="131" y="34" type="curve" smooth="yes"/>
      <point x="131" y="1206" type="line" smooth="yes"/>
      <point x="131" y="1228"/>
      <point x="143" y="1240"/>
      <point x="165" y="1240" type="curve" smooth="yes"/>
      <point x="225" y="1240" type="line" smooth="yes"/>
      <point x="247" y="1240"/>
      <point x="259" y="1228"/>
    </contour>
  </outline>
</glyph>
<glyph name="M" format="1">
  <advance width="1656"/>
  <unicode hex="004D"/>
  <outline>
    <contour>
      <point x="107" y="0" type="line" smooth="yes"/>
      <point x="88" y="0"/>
      <point x="78" y="9.69434"/>
      <point x="78" y="25.8633" type="curve" smooth="yes"/>
      <point x="78" y="33.999" type="line" smooth="yes"/>
      <point x="271" y="1241" type="line" smooth="yes"/>
      <point x="273" y="1249.8"/>
      <point x="276" y="1254.36"/>
      <point x="281" y="1254.36" type="curve" smooth="yes"/>
      <point x="285" y="1254.36"/>
      <point x="289" y="1251.3"/>
      <point x="292" y="1245" type="curve" smooth="yes"/>
      <point x="828" y="265.998" type="line"/>
      <point x="1363" y="1245" type="line" smooth="yes"/>
      <point x="1366" y="1251.3"/>
      <point x="1371" y="1254.36"/>
      <point x="1374" y="1254.36" type="curve" smooth="yes"/>
      <point x="1379" y="1254.36"/>
      <point x="1383" y="1249.8"/>
      <point x="1385" y="1241" type="curve" smooth="yes"/>
      <point x="1578" y="33.999" type="line" smooth="yes"/>
      <point x="1578" y="25.8633" type="line" smooth="yes"/>
      <point x="1578" y="9.69434"/>
      <point x="1568" y="0"/>
      <point x="1550" y="0" type="curve" smooth="yes"/>
      <point x="1492" y="0" type="line" smooth="yes"/>
      <point x="1469" y="0"/>
      <point x="1456" y="11.999"/>
      <point x="1453" y="33.999" type="curve" smooth="yes"/>
      <point x="1318" y="928" type="line"/>
      <point x="845" y="58" type="line" smooth="yes"/>
      <point x="836" y="42"/>
      <point x="821" y="42"/>
      <point x="812" y="58" type="curve" smooth="yes"/>
      <point x="339" y="928" type="line"/>
      <point x="204" y="33.999" type="line" smooth="yes"/>
      <point x="201" y="11.999"/>
      <point x="188" y="0"/>
      <point x="165" y="0" type="curve" smooth="yes"/>
    </contour>
  </outline>
</glyph>
<glyph name="N" format="1">
  <advance width="1280"/>
  <unicode hex="004E"/>
  <outline>
    <contour>
      <point x="245.5" y="34" type="line" smooth="yes"/>
      <point x="245.5" y="12.2637"/>
      <point x="232.5" y="0"/>
      <point x="211.5" y="0" type="curve" smooth="yes"/>
      <point x="151.5" y="0" type="line" smooth="yes"/>
      <point x="129.5" y="0"/>
      <point x="117.5" y="12.2637"/>
      <point x="117.5" y="34" type="curve" smooth="yes"/>
      <point x="117.5" y="1229" type="line" smooth="yes"/>
      <point x="117.5" y="1239.04"/>
      <point x="121.5" y="1244.67"/>
      <point x="127.5" y="1244.67" type="curve" smooth="yes"/>
      <point x="131.5" y="1244.67"/>
      <point x="135.5" y="1242.55"/>
      <point x="140.5" y="1238.02" type="curve" smooth="yes"/>
      <point x="1034.5" y="270" type="line"/>
      <point x="1034.5" y="1206" type="line" smooth="yes"/>
      <point x="1034.5" y="1228"/>
      <point x="1046.5" y="1240"/>
      <point x="1068.5" y="1240" type="curve" smooth="yes"/>
      <point x="1128.5" y="1240" type="line" smooth="yes"/>
      <point x="1150.5" y="1240"/>
      <point x="1162.5" y="1228"/>
      <point x="1162.5" y="1206" type="curve" smooth="yes"/>
      <point x="1162.5" y="3" type="line" smooth="yes"/>
      <point x="1162.5" y="-7.06641"/>
      <point x="1157.5" y="-12.7168"/>
      <point x="1151.5" y="-12.7168" type="curve" smooth="yes"/>
      <point x="1147.5" y="-12.7168"/>
      <point x="1143.5" y="-10.6025"/>
      <point x="1138.5" y="-6.0918" type="curve" smooth="yes"/>
      <point x="245.5" y="956" type="line"/>
    </contour>
  </outline>
</glyph>
<glyph name="O" format="1">
  <advance width="1506"/>
  <unicode hex="004F"/>
  <outline>
    <contour>
      <point x="82" y="619" type="curve" smooth="yes"/>
      <point x="82" y="1058"/>
      <point x="406" y="1274"/>
      <point x="740" y="1274" type="curve" smooth="yes"/>
      <point x="1076" y="1274"/>
      <point x="1401" y="1058"/>
      <point x="1401" y="623" type="curve" smooth="yes"/>
      <point x="1401" y="182"/>
      <point x="1076" y="-34"/>
      <point x="741" y="-34" type="curve" smooth="yes"/>
      <point x="406" y="-34"/>
      <point x="82" y="182"/>
    </contour>
    <contour>
      <point x="1272" y="618" type="curve" smooth="yes"/>
      <point x="1272" y="994"/>
      <point x="1021" y="1168"/>
      <point x="740" y="1168" type="curve" smooth="yes"/>
      <point x="457" y="1168"/>
      <point x="211" y="994"/>
      <point x="211" y="619" type="curve" smooth="yes"/>
      <point x="211" y="245"/>
      <point x="470" y="72"/>
      <point x="740" y="72" type="curve" smooth="yes"/>
      <point x="994" y="72"/>
      <point x="1272" y="246"/>
    </contour>
  </outline>
</glyph>
<glyph name="P" format="1">
  <advance width="978"/>
  <unicode hex="0050"/>
  <outline>
    <contour>
      <point x="259" y="525" type="line"/>
      <point x="259" y="34" type="line" smooth="yes"/>
      <point x="259" y="12"/>
      <point x="247" y="0"/>
      <point x="225" y="0" type="curve" smooth="yes"/>
      <point x="165" y="0" type="line" smooth="yes"/>
      <point x="143" y="0"/>
      <point x="131" y="12"/>
      <point x="131" y="34" type="curve" smooth="yes"/>
      <point x="131" y="1206" type="line" smooth="yes"/>
      <point x="131" y="1228"/>
      <point x="143" y="1240"/>
      <point x="165" y="1240" type="curve" smooth="yes"/>
      <point x="452" y="1240" type="line" smooth="yes"/>
      <point x="755" y="1240"/>
      <point x="927" y="1127"/>
      <point x="927" y="887" type="curve" smooth="yes"/>
      <point x="927" y="606"/>
      <point x="729" y="525"/>
      <point x="448" y="525" type="curve" smooth="yes"/>
    </contour>
    <contour>
      <point x="259" y="1138" type="line"/>
      <point x="259" y="627" type="line"/>
      <point x="462" y="627" type="line" smooth="yes"/>
      <point x="668" y="627"/>
      <point x="799" y="691"/>
      <point x="799" y="882" type="curve" smooth="yes"/>
      <point x="799" y="1032"/>
      <point x="710" y="1138"/>
      <point x="457" y="1138" type="curve" smooth="yes"/>
    </contour>
  </outline>
</glyph>
<glyph name="Q" format="1">
  <advance width="1506"/>
  <unicode hex="0051"/>
  <outline>
    <contour>
      <point x="1049" y="164.979" type="line"/>
      <point x="1177" y="252.082"/>
      <point x="1272" y="401.512"/>
      <point x="1272" y="618" type="curve" smooth="yes"/>
      <point x="1272" y="994"/>
      <point x="1021" y="1168"/>
      <point x="739" y="1168" type="curve" smooth="yes"/>
      <point x="456" y="1168"/>
      <point x="210" y="994"/>
      <point x="210" y="619" type="curve" smooth="yes"/>
      <point x="210" y="245"/>
      <point x="469" y="72"/>
      <point x="739" y="72" type="curve" smooth="yes"/>
      <point x="808" y="72"/>
      <point x="879" y="84.7627"/>
      <point x="945" y="110.765" type="curve"/>
      <point x="884" y="210" type="line"/>
      <point x="870" y="229"/>
      <point x="873" y="248"/>
      <point x="891" y="263" type="curve" smooth="yes"/>
      <point x="913" y="280" type="line" smooth="yes"/>
      <point x="932" y="295"/>
      <point x="950" y="293"/>
      <point x="964" y="275" type="curve" smooth="yes"/>
    </contour>
    <contour>
      <point x="1188" y="-206" type="line"/>
      <point x="1179" y="-210.622"/>
      <point x="1172" y="-213.019"/>
      <point x="1165" y="-213.019" type="curve" smooth="yes"/>
      <point x="1153" y="-213.019"/>
      <point x="1143" y="-206.911"/>
      <point x="1135" y="-194" type="curve" smooth="yes"/>
      <point x="1005" y="14.0898" type="line"/>
      <point x="922" y="-18.0303"/>
      <point x="832" y="-34"/>
      <point x="741" y="-34" type="curve" smooth="yes"/>
      <point x="406" y="-34"/>
      <point x="82" y="182"/>
      <point x="82" y="619" type="curve" smooth="yes"/>
      <point x="82" y="1058"/>
      <point x="405" y="1274"/>
      <point x="739" y="1274" type="curve" smooth="yes"/>
      <point x="1076" y="1274"/>
      <point x="1401" y="1058"/>
      <point x="1401" y="623" type="curve" smooth="yes"/>
      <point x="1401" y="359.925"/>
      <point x="1285" y="176.919"/>
      <point x="1120" y="72.0713" type="curve"/>
      <point x="1264" y="-113" type="line" smooth="yes"/>
      <point x="1277" y="-129"/>
      <point x="1275" y="-148"/>
      <point x="1255" y="-159" type="curve"/>
    </contour>
  </outline>
</glyph>
<glyph name="R" format="1">
  <advance width="978"/>
  <unicode hex="0052"/>
  <outline>
    <contour>
      <point x="254" y="1134" type="line"/>
      <point x="254" y="679" type="line"/>
      <point x="369" y="679" type="line" smooth="yes"/>
      <point x="623" y="679"/>
      <point x="752" y="717"/>
      <point x="752" y="908" type="curve" smooth="yes"/>
      <point x="752" y="1058"/>
      <point x="667" y="1134"/>
      <point x="414" y="1134" type="curve" smooth="yes"/>
    </contour>
    <contour>
      <point x="825" y="0" type="line" smooth="yes"/>
      <point x="802" y="0"/>
      <point x="783" y="8"/>
      <point x="768" y="26" type="curve"/>
      <point x="254" y="570.931" type="line"/>
      <point x="254" y="34" type="line" smooth="yes"/>
      <point x="254" y="12"/>
      <point x="242" y="0"/>
      <point x="220" y="0" type="curve" smooth="yes"/>
      <point x="160" y="0" type="line" smooth="yes"/>
      <point x="138" y="0"/>
      <point x="126" y="12"/>
      <point x="126" y="34" type="curve" smooth="yes"/>
      <point x="126" y="1206" type="line" smooth="yes"/>
      <point x="126" y="1228"/>
      <point x="138" y="1240"/>
      <point x="160" y="1240" type="curve" smooth="yes"/>
      <point x="409" y="1240" type="line" smooth="yes"/>
      <point x="712" y="1240"/>
      <point x="880" y="1134"/>
      <point x="880" y="913" type="curve" smooth="yes"/>
      <point x="880" y="667"/>
      <point x="710" y="575"/>
      <point x="393" y="575" type="curve"/>
      <point x="393" y="575" type="line"/>
      <point x="924" y="25" type="line" smooth="yes"/>
      <point x="929" y="20.7002"/>
      <point x="931" y="16.2725"/>
      <point x="931" y="12.3604" type="curve" smooth="yes"/>
      <point x="931" y="5.35352"/>
      <point x="924" y="0"/>
      <point x="914" y="0" type="curve" smooth="yes"/>
    </contour>
  </outline>
</glyph>
<glyph name="S" format="1">
  <advance width="903"/>
  <unicode hex="0053"/>
  <outline>
    <contour>
      <point x="455" y="-34" type="curve" smooth="yes"/>
      <point x="284" y="-34"/>
      <point x="177" y="12"/>
      <point x="115" y="48" type="curve" smooth="yes"/>
      <point x="95" y="59"/>
      <point x="85" y="76"/>
      <point x="85" y="98" type="curve" smooth="yes"/>
      <point x="85" y="148" type="line" smooth="yes"/>
      <point x="85" y="167"/>
      <point x="98" y="174"/>
      <point x="114" y="165" type="curve" smooth="yes"/>
      <point x="205" y="110"/>
      <point x="312" y="72"/>
      <point x="452" y="72" type="curve" smooth="yes"/>
      <point x="621" y="72"/>
      <point x="705" y="156"/>
      <point x="705" y="274" type="curve" smooth="yes"/>
      <point x="705" y="359"/>
      <point x="657" y="445"/>
      <point x="534" y="517" type="curve" smooth="yes"/>
      <point x="254" y="680" type="line" smooth="yes"/>
      <point x="126" y="755"/>
      <point x="53" y="852"/>
      <point x="53" y="968" type="curve" smooth="yes"/>
      <point x="53" y="1136"/>
      <point x="182" y="1274"/>
      <point x="437" y="1274" type="curve" smooth="yes"/>
      <point x="567" y="1274"/>
      <point x="671" y="1244"/>
      <point x="734" y="1218" type="curve" smooth="yes"/>
      <point x="755" y="1209"/>
      <point x="765" y="1193"/>
      <point x="765" y="1171" type="curve" smooth="yes"/>
      <point x="765" y="1122.6" type="line" smooth="yes"/>
      <point x="765" y="1103.1"/>
      <point x="752" y="1094.88"/>
      <point x="734" y="1103.02" type="curve" smooth="yes"/>
      <point x="647" y="1143.25"/>
      <point x="542" y="1168"/>
      <point x="451" y="1168" type="curve" smooth="yes"/>
      <point x="260" y="1168"/>
      <point x="176" y="1082"/>
      <point x="176" y="975" type="curve" smooth="yes"/>
      <point x="176" y="891"/>
      <point x="226" y="831"/>
      <point x="325" y="772" type="curve" smooth="yes"/>
      <point x="594" y="613" type="line" smooth="yes"/>
      <point x="785" y="500"/>
      <point x="830" y="398"/>
      <point x="830" y="281" type="curve" smooth="yes"/>
      <point x="830" y="63"/>
      <point x="646" y="-34"/>
    </contour>
  </outline>
</glyph>
<glyph name="T" format="1">
  <advance width="1054"/>
  <unicode hex="0054"/>
  <outline>
    <contour>
      <point x="726" y="1134" type="line"/>
      <point x="726" y="34" type="line" smooth="yes"/>
      <point x="726" y="12"/>
      <point x="714" y="0"/>
      <point x="692" y="0" type="curve" smooth="yes"/>
      <point x="632" y="0" type="line" smooth="yes"/>
      <point x="610" y="0"/>
      <point x="598" y="12"/>
      <point x="598" y="34" type="curve" smooth="yes"/>
      <point x="598" y="1134" type="line"/>
      <point x="238" y="1134" type="line" smooth="yes"/>
      <point x="216" y="1134"/>
      <point x="204" y="1146"/>
      <point x="204" y="1168" type="curve" smooth="yes"/>
      <point x="204" y="1206" type="line" smooth="yes"/>
      <point x="204" y="1228"/>
      <point x="216" y="1240"/>
      <point x="238" y="1240" type="curve" smooth="yes"/>
      <point x="1088" y="1240" type="line" smooth="yes"/>
      <point x="1110" y="1240"/>
      <point x="1122" y="1228"/>
      <point x="1122" y="1206" type="curve" smooth="yes"/>
      <point x="1122" y="1168" type="line" smooth="yes"/>
      <point x="1122" y="1146"/>
      <point x="1110" y="1134"/>
      <point x="1088" y="1134" type="curve" smooth="yes"/>
    </contour>
  </outline>
</glyph>
<glyph name="U" format="1">
  <advance width="1280"/>
  <unicode hex="0055"/>
  <outline>
    <contour>
      <point x="655" y="72" type="curve" smooth="yes"/>
      <point x="906" y="72"/>
      <point x="1075" y="193"/>
      <point x="1075" y="480" type="curve" smooth="yes"/>
      <point x="1075" y="1206" type="line" smooth="yes"/>
      <point x="1075" y="1228"/>
      <point x="1087" y="1240"/>
      <point x="1109" y="1240" type="curve" smooth="yes"/>
      <point x="1169" y="1240" type="line" smooth="yes"/>
      <point x="1191" y="1240"/>
      <point x="1203" y="1228"/>
      <point x="1203" y="1206" type="curve" smooth="yes"/>
      <point x="1203" y="493" type="line" smooth="yes"/>
      <point x="1203" y="142"/>
      <point x="992" y="-34"/>
      <point x="655" y="-34" type="curve" smooth="yes"/>
      <point x="318" y="-34"/>
      <point x="107" y="142"/>
      <point x="107" y="493" type="curve" smooth="yes"/>
      <point x="107" y="1206" type="line" smooth="yes"/>
      <point x="107" y="1228"/>
      <point x="119" y="1240"/>
      <point x="141" y="1240" type="curve" smooth="yes"/>
      <point x="201" y="1240" type="line" smooth="yes"/>
      <point x="223" y="1240"/>
      <point x="235" y="1228"/>
      <point x="235" y="1206" type="curve" smooth="yes"/>
      <point x="235" y="480" type="line" smooth="yes"/>
      <point x="235" y="193"/>
      <point x="404" y="72"/>
    </contour>
  </outline>
</glyph>
<glyph name="V" format="1">
  <advance width="978"/>
  <unicode hex="0056"/>
  <outline>
    <contour>
      <point x="472" y="12.7773" type="curve" smooth="yes"/>
      <point x="-88" y="1209" type="line" smooth="yes"/>
      <point x="-91" y="1213.65"/>
      <point x="-91" y="1217.97"/>
      <point x="-91" y="1221.81" type="curve" smooth="yes"/>
      <point x="-91" y="1232.85"/>
      <point x="-83" y="1240"/>
      <point x="-68" y="1240" type="curve" smooth="yes"/>
      <point x="0" y="1240" type="line" smooth="yes"/>
      <point x="22" y="1240"/>
      <point x="37" y="1230"/>
      <point x="47" y="1209" type="curve" smooth="yes"/>
      <point x="486" y="247.999" type="line"/>
      <point x="897" y="1209" type="line" smooth="yes"/>
      <point x="906" y="1230"/>
      <point x="922" y="1240"/>
      <point x="945" y="1240" type="curve" smooth="yes"/>
      <point x="1020" y="1240" type="line" smooth="yes"/>
      <point x="1034" y="1240"/>
      <point x="1042" y="1232.65"/>
      <point x="1042" y="1221.34" type="curve" smooth="yes"/>
      <point x="1042" y="1217.62"/>
      <point x="1042" y="1213.46"/>
      <point x="1040" y="1209" type="curve" smooth="yes"/>
      <point x="500" y="13" type="line" smooth="yes"/>
      <point x="497" y="5.17773"/>
      <point x="491" y="1.25977"/>
      <point x="486" y="1.25977" type="curve" smooth="yes"/>
      <point x="481" y="1.25977"/>
      <point x="475" y="5.09473"/>
    </contour>
  </outline>
</glyph>
<glyph name="W" format="1">
  <advance width="1355"/>
  <unicode hex="0057"/>
  <outline>
    <contour>
      <point x="330" y="11" type="curve" smooth="yes"/>
      <point x="-156" y="1209" type="line" smooth="yes"/>
      <point x="-158" y="1213.11"/>
      <point x="-159" y="1216.97"/>
      <point x="-159" y="1220.46" type="curve" smooth="yes"/>
      <point x="-159" y="1232.26"/>
      <point x="-150" y="1240"/>
      <point x="-135" y="1240" type="curve" smooth="yes"/>
      <point x="-66" y="1240" type="line" smooth="yes"/>
      <point x="-43" y="1240"/>
      <point x="-28" y="1230"/>
      <point x="-20" y="1208" type="curve" smooth="yes"/>
      <point x="338" y="287" type="line"/>
      <point x="664" y="1190" type="line" smooth="yes"/>
      <point x="670" y="1205"/>
      <point x="683" y="1205"/>
      <point x="689" y="1190" type="curve" smooth="yes"/>
      <point x="1043" y="287" type="line"/>
      <point x="1373" y="1208" type="line" smooth="yes"/>
      <point x="1380" y="1230"/>
      <point x="1395" y="1240"/>
      <point x="1418" y="1240" type="curve" smooth="yes"/>
      <point x="1493" y="1240" type="line" smooth="yes"/>
      <point x="1508" y="1240"/>
      <point x="1517" y="1232.23"/>
      <point x="1517" y="1219.92" type="curve" smooth="yes"/>
      <point x="1517" y="1216.31"/>
      <point x="1516" y="1212.31"/>
      <point x="1515" y="1208" type="curve" smooth="yes"/>
      <point x="1060" y="13" type="line" smooth="yes"/>
      <point x="1057" y="5.5"/>
      <point x="1052" y="1.75"/>
      <point x="1047" y="1.75" type="curve" smooth="yes"/>
      <point x="1042" y="1.75"/>
      <point x="1038" y="5.5"/>
      <point x="1035" y="13" type="curve" smooth="yes"/>
      <point x="678" y="901" type="line"/>
      <point x="355" y="12" type="line"/>
      <point x="351" y="4.37109"/>
      <point x="347" y="0.62207"/>
      <point x="342" y="0.62207" type="curve" smooth="yes"/>
      <point x="337" y="0.62207"/>
      <point x="332" y="4.12109"/>
    </contour>
  </outline>
</glyph>
<glyph name="X" format="1">
  <advance width="1204"/>
  <unicode hex="0058"/>
  <outline>
    <contour>
      <point x="1135" y="0" type="line" smooth="yes"/>
      <point x="1112" y="0"/>
      <point x="1094" y="8.07324"/>
      <point x="1078" y="25.0508" type="curve" smooth="yes"/>
      <point x="598" y="548.05" type="line"/>
      <point x="143" y="25.6387" type="line" smooth="yes"/>
      <point x="127" y="8.24121"/>
      <point x="109" y="0"/>
      <point x="86" y="0" type="curve" smooth="yes"/>
      <point x="-7" y="0" type="line" smooth="yes"/>
      <point x="-17" y="0"/>
      <point x="-23" y="5.40234"/>
      <point x="-23" y="12.6953" type="curve" smooth="yes"/>
      <point x="-23" y="16.626"/>
      <point x="-21" y="21.1064"/>
      <point x="-17" y="25.5869" type="curve" smooth="yes"/>
      <point x="516" y="637.084" type="line"/>
      <point x="-12" y="1215" type="line" smooth="yes"/>
      <point x="-17" y="1219.3"/>
      <point x="-19" y="1223.73"/>
      <point x="-19" y="1227.64" type="curve" smooth="yes"/>
      <point x="-19" y="1234.65"/>
      <point x="-12" y="1240"/>
      <point x="-2" y="1240" type="curve" smooth="yes"/>
      <point x="72" y="1240" type="line" smooth="yes"/>
      <point x="95" y="1240"/>
      <point x="113" y="1232"/>
      <point x="129" y="1215" type="curve" smooth="yes"/>
      <point x="588" y="718.836" type="line"/>
      <point x="1022" y="1214" type="line" smooth="yes"/>
      <point x="1037" y="1232"/>
      <point x="1056" y="1240"/>
      <point x="1079" y="1240" type="curve" smooth="yes"/>
      <point x="1168" y="1240" type="line" smooth="yes"/>
      <point x="1185" y="1240"/>
      <point x="1191" y="1227"/>
      <point x="1179" y="1214" type="curve" smooth="yes"/>
      <point x="670" y="630.355" type="line"/>
      <point x="1230" y="24.959" type="line" smooth="yes"/>
      <point x="1234" y="20.4814"/>
      <point x="1236" y="15.9941"/>
      <point x="1236" y="12.084" type="curve" smooth="yes"/>
      <point x="1236" y="5.12891"/>
      <point x="1230" y="0"/>
      <point x="1219" y="0" type="curve" smooth="yes"/>
    </contour>
  </outline>
</glyph>
<glyph name="Y" format="1">
  <advance width="828"/>
  <unicode hex="0059"/>
  <outline>
    <contour>
      <point x="478" y="33.999" type="line" smooth="yes"/>
      <point x="478" y="12.2627"/>
      <point x="466" y="-0.000976562"/>
      <point x="444" y="-0.000976562" type="curve" smooth="yes"/>
      <point x="384" y="-0.000976562" type="line" smooth="yes"/>
      <point x="362" y="-0.000976562"/>
      <point x="350" y="12.2627"/>
      <point x="350" y="33.999" type="curve" smooth="yes"/>
      <point x="350" y="478.999" type="line"/>
      <point x="-59" y="1210" type="line" smooth="yes"/>
      <point x="-61" y="1214.78"/>
      <point x="-62" y="1219.24"/>
      <point x="-62" y="1223.18" type="curve" smooth="yes"/>
      <point x="-62" y="1233.28"/>
      <point x="-55" y="1240"/>
      <point x="-42" y="1240" type="curve" smooth="yes"/>
      <point x="17" y="1240" type="line" smooth="yes"/>
      <point x="40" y="1240"/>
      <point x="57" y="1230"/>
      <point x="68" y="1210" type="curve" smooth="yes"/>
      <point x="416" y="592" type="line"/>
      <point x="740" y="1210" type="line" smooth="yes"/>
      <point x="750" y="1230"/>
      <point x="766" y="1240"/>
      <point x="789" y="1240" type="curve" smooth="yes"/>
      <point x="857" y="1240" type="line" smooth="yes"/>
      <point x="871" y="1240"/>
      <point x="879" y="1233.23"/>
      <point x="879" y="1223.07" type="curve" smooth="yes"/>
      <point x="879" y="1219.16"/>
      <point x="878" y="1214.73"/>
      <point x="875" y="1210" type="curve" smooth="yes"/>
      <point x="478" y="475" type="line"/>
    </contour>
  </outline>
</glyph>
<glyph name="Z" format="1">
  <advance width="903"/>
  <unicode hex="005A"/>
  <outline>
    <contour>
      <point x="61" y="0" type="line" smooth="yes"/>
      <point x="47" y="0"/>
      <point x="39" y="6.96777"/>
      <point x="39" y="17.3701" type="curve" smooth="yes"/>
      <point x="39" y="21.1777"/>
      <point x="40" y="25.4453"/>
      <point x="43" y="30" type="curve" smooth="yes"/>
      <point x="622" y="1134" type="line"/>
      <point x="94" y="1134" type="line" smooth="yes"/>
      <point x="73" y="1134"/>
      <point x="60" y="1146"/>
      <point x="60" y="1168" type="curve" smooth="yes"/>
      <point x="60" y="1206" type="line" smooth="yes"/>
      <point x="60" y="1228"/>
      <point x="73" y="1240"/>
      <point x="94" y="1240" type="curve" smooth="yes"/>
      <point x="775" y="1240" type="line" smooth="yes"/>
      <point x="794" y="1240"/>
      <point x="803" y="1227"/>
      <point x="794" y="1210" type="curve" smooth="yes"/>
      <point x="223" y="106" type="line"/>
      <point x="783" y="106" type="line" smooth="yes"/>
      <point x="805" y="106"/>
      <point x="817" y="94"/>
      <point x="817" y="72" type="curve" smooth="yes"/>
      <point x="817" y="34" type="line" smooth="yes"/>
      <point x="817" y="12"/>
      <point x="805" y="0"/>
      <point x="783" y="0" type="curve" smooth="yes"/>
    </contour>
  </outline>
</glyph>
<glyph name="bracketleft" format="1">
  <advance width="677"/>
  <unicode hex="005B"/>
  <outline>
    <contour>
      <point x="170" y="-142" type="line" smooth="yes"/>
      <point x="148" y="-142"/>
      <point x="136" y="-130"/>
      <point x="136" y="-108" type="curve" smooth="yes"/>
      <point x="136" y="1206" type="line" smooth="yes"/>
      <point x="136" y="1228"/>
      <point x="148" y="1240"/>
      <point x="170" y="1240" type="curve" smooth="yes"/>
      <point x="602" y="1240" type="line" smooth="yes"/>
      <point x="624" y="1240"/>
      <point x="636" y="1228"/>
      <point x="636" y="1206" type="curve" smooth="yes"/>
      <point x="636" y="1168" type="line" smooth="yes"/>
      <point x="636" y="1146"/>
      <point x="624" y="1134"/>
      <point x="602" y="1134" type="curve" smooth="yes"/>
      <point x="264" y="1134" type="line"/>
      <point x="264" y="-36" type="line"/>
      <point x="602" y="-36" type="line" smooth="yes"/>
      <point x="624" y="-36"/>
      <point x="636" y="-48"/>
      <point x="636" y="-70" type="curve" smooth="yes"/>
      <point x="636" y="-108" type="line" smooth="yes"/>
      <point x="636" y="-130"/>
      <point x="624" y="-142"/>
      <point x="602" y="-142" type="curve" smooth="yes"/>
    </contour>
  </outline>
</glyph>
<glyph name="backslash" format="1">
  <advance width="753"/>
  <unicode hex="005C"/>
  <outline>
    <contour>
      <point x="592" y="0" type="line" smooth="yes"/>
      <point x="569" y="0"/>
      <point x="553" y="10"/>
      <point x="544" y="31" type="curve" smooth="yes"/>
      <point x="12" y="1209" type="line" smooth="yes"/>
      <point x="10" y="1213.46"/>
      <point x="10" y="1217.62"/>
      <point x="10" y="1221.34" type="curve" smooth="yes"/>
      <point x="10" y="1232.65"/>
      <point x="18" y="1240"/>
      <point x="32" y="1240" type="curve" smooth="yes"/>
      <point x="84" y="1240" type="line" smooth="yes"/>
      <point x="107" y="1240"/>
      <point x="123" y="1230"/>
      <point x="132" y="1209" type="curve" smooth="yes"/>
      <point x="662" y="31" type="line" smooth="yes"/>
      <point x="664" y="26.5371"/>
      <point x="665" y="22.3818"/>
      <point x="665" y="18.6553" type="curve" smooth="yes"/>
      <point x="665" y="7.35254"/>
      <point x="657" y="0"/>
      <point x="642" y="0" type="curve" smooth="yes"/>
    </contour>
  </outline>
</glyph>
<glyph name="bracketright" format="1">
  <advance width="828"/>
  <unicode hex="005D"/>
  <outline>
    <contour>
      <point x="238" y="-142" type="line" smooth="yes"/>
      <point x="216" y="-142"/>
      <point x="204" y="-130"/>
      <point x="204" y="-108" type="curve" smooth="yes"/>
      <point x="204" y="-70" type="line" smooth="yes"/>
      <point x="204" y="-48"/>
      <point x="216" y="-36"/>
      <point x="238" y="-36" type="curve" smooth="yes"/>
      <point x="576" y="-36" type="line"/>
      <point x="576" y="1134" type="line"/>
      <point x="238" y="1134" type="line" smooth="yes"/>
      <point x="216" y="1134"/>
      <point x="204" y="1146"/>
      <point x="204" y="1168" type="curve" smooth="yes"/>
      <point x="204" y="1206" type="line" smooth="yes"/>
      <point x="204" y="1228"/>
      <point x="216" y="1240"/>
      <point x="238" y="1240" type="curve" smooth="yes"/>
      <point x="670" y="1240" type="line" smooth="yes"/>
      <point x="692" y="1240"/>
      <point x="704" y="1228"/>
      <point x="704" y="1206" type="curve" smooth="yes"/>
      <point x="704" y="-108" type="line" smooth="yes"/>
      <point x="704" y="-130"/>
      <point x="692" y="-142"/>
      <point x="670" y="-142" type="curve" smooth="yes"/>
    </contour>
  </outline>
</glyph>
<glyph name="asciicircum" format="1">
  <advance width="828"/>
  <unicode hex="005E"/>
  <outline>
    <contour>
      <point x="125" y="587" type="line" smooth="yes"/>
      <point x="110" y="587"/>
      <point x="102" y="594.353"/>
      <point x="102" y="605.655" type="curve" smooth="yes"/>
      <point x="102" y="609.382"/>
      <point x="103" y="613.537"/>
      <point x="105" y="618" type="curve" smooth="yes"/>
      <point x="370" y="1210" type="line" smooth="yes"/>
      <point x="380" y="1231"/>
      <point x="388" y="1240"/>
      <point x="430" y="1240" type="curve" smooth="yes"/>
      <point x="477" y="1240"/>
      <point x="479" y="1232"/>
      <point x="489" y="1210" type="curve" smooth="yes"/>
      <point x="755" y="618" type="line" smooth="yes"/>
      <point x="756" y="613.537"/>
      <point x="757" y="609.382"/>
      <point x="757" y="605.655" type="curve" smooth="yes"/>
      <point x="757" y="594.353"/>
      <point x="749" y="587"/>
      <point x="735" y="587" type="curve" smooth="yes"/>
      <point x="685" y="587" type="line" smooth="yes"/>
      <point x="662" y="587"/>
      <point x="646" y="597"/>
      <point x="637" y="618" type="curve" smooth="yes"/>
      <point x="430" y="1095" type="line"/>
      <point x="223" y="618" type="line" smooth="yes"/>
      <point x="214" y="597"/>
      <point x="198" y="587"/>
      <point x="175" y="587" type="curve" smooth="yes"/>
    </contour>
  </outline>
</glyph>
<glyph name="underscore" format="1">
  <advance width="903"/>
  <unicode hex="005F"/>
  <outline>
    <contour>
      <point x="238" y="-93" type="line" smooth="yes"/>
      <point x="216" y="-93"/>
      <point x="204" y="-80.7363"/>
      <point x="204" y="-59" type="curve" smooth="yes"/>
      <point x="204" y="-34" type="line" smooth="yes"/>
      <point x="204" y="-12.2637"/>
      <point x="216" y="0"/>
      <point x="238" y="0" type="curve" smooth="yes"/>
      <point x="843" y="0" type="line" smooth="yes"/>
      <point x="864" y="-0"/>
      <point x="877" y="-12.2637"/>
      <point x="877" y="-34" type="curve" smooth="yes"/>
      <point x="877" y="-59" type="line" smooth="yes"/>
      <point x="877" y="-80.7363"/>
      <point x="864" y="-93"/>
      <point x="843" y="-93" type="curve" smooth="yes"/>
    </contour>
  </outline>
</glyph>
<glyph name="grave" format="1">
  <advance width="602"/>
  <unicode hex="0060"/>
  <outline>
    <contour>
      <point x="423" y="86" type="curve" smooth="yes"/>
      <point x="416" y="86"/>
      <point x="409" y="90"/>
      <point x="402" y="98" type="curve" smooth="yes"/>
      <point x="162" y="381" type="line" smooth="yes"/>
      <point x="150" y="395"/>
      <point x="145" y="409"/>
      <point x="145" y="422" type="curve" smooth="yes"/>
      <point x="145" y="454"/>
      <point x="177" y="481"/>
      <point x="210" y="481" type="curve" smooth="yes"/>
      <point x="232" y="481"/>
      <point x="255" y="469"/>
      <point x="270" y="441" type="curve" smooth="yes"/>
      <point x="437" y="121" type="line" smooth="yes"/>
      <point x="440" y="115"/>
      <point x="441" y="110"/>
      <point x="441" y="106" type="curve" smooth="yes"/>
      <point x="441" y="94"/>
      <point x="433" y="86"/>
    </contour>
  </outline>
</glyph>
<glyph name="a" format="1">
  <advance width="828"/>
  <unicode hex="0061"/>
  <outline>
    <contour>
      <point x="333" y="-16.0332" type="curve" smooth="yes"/>
      <point x="195" y="-16.0332"/>
      <point x="97" y="66.9971"/>
      <point x="97" y="193.001" type="curve" smooth="yes"/>
      <point x="97" y="266.001"/>
      <point x="108" y="400.001"/>
      <point x="402" y="461.001" type="curve"/>
      <point x="560" y="496.001" type="line"/>
      <point x="560" y="545.001" type="line" smooth="yes"/>
      <point x="560" y="723.001"/>
      <point x="468" y="742.001"/>
      <point x="379" y="742.001" type="curve" smooth="yes"/>
      <point x="308" y="742.001"/>
      <point x="226" y="712.001"/>
      <point x="168" y="685.001" type="curve" smooth="yes"/>
      <point x="148" y="676.001"/>
      <point x="132" y="682.001"/>
      <point x="124" y="702.001" type="curve" smooth="yes"/>
      <point x="113" y="730.001" type="line" smooth="yes"/>
      <point x="105" y="749.001"/>
      <point x="112" y="767.001"/>
      <point x="131" y="776.001" type="curve" smooth="yes"/>
      <point x="192" y="805.001"/>
      <point x="299" y="840.001"/>
      <point x="413" y="840.001" type="curve" smooth="yes"/>
      <point x="556" y="840.001"/>
      <point x="687" y="760.001"/>
      <point x="687" y="572.001" type="curve" smooth="yes"/>
      <point x="687" y="209.001" type="line" smooth="yes"/>
      <point x="687" y="137.026"/>
      <point x="735" y="91.7598"/>
      <point x="778" y="91.7598" type="curve" smooth="yes"/>
      <point x="787" y="91.7598"/>
      <point x="798" y="93.7051"/>
      <point x="798" y="83.6836" type="curve" smooth="yes"/>
      <point x="798" y="82.0664"/>
      <point x="797" y="80.1816"/>
      <point x="796" y="78" type="curve" smooth="yes"/>
      <point x="777" y="18" type="line" smooth="yes"/>
      <point x="770" y="-5"/>
      <point x="763" y="-8"/>
      <point x="742" y="-6" type="curve" smooth="yes"/>
      <point x="616" y="5"/>
      <point x="579" y="107"/>
      <point x="579" y="108" type="curve"/>
      <point x="486" y="6.29395"/>
      <point x="399" y="-16.0332"/>
    </contour>
    <contour>
      <point x="354" y="77" type="curve" smooth="yes"/>
      <point x="439" y="77"/>
      <point x="512" y="125"/>
      <point x="560" y="177" type="curve"/>
      <point x="560" y="425" type="line"/>
      <point x="389" y="379" type="line"/>
      <point x="241" y="341"/>
      <point x="222" y="268"/>
      <point x="222" y="206" type="curve" smooth="yes"/>
      <point x="222" y="135"/>
      <point x="270" y="77"/>
    </contour>
  </outline>
</glyph>
<glyph name="b" format="1">
  <advance width="978"/>
  <unicode hex="0062"/>
  <outline>
    <contour>
      <point x="254" y="676.112" type="curve"/>
      <point x="254" y="98.0557" type="line"/>
      <point x="294" y="89.8262"/>
      <point x="350" y="80.999"/>
      <point x="421" y="80.999" type="curve" smooth="yes"/>
      <point x="613" y="80.999"/>
      <point x="756" y="195.999"/>
      <point x="756" y="406.999" type="curve" smooth="yes"/>
      <point x="756" y="573.999"/>
      <point x="687" y="741.999"/>
      <point x="483" y="741.999" type="curve" smooth="yes"/>
      <point x="396" y="741.999"/>
      <point x="313" y="708.45"/>
    </contour>
    <contour>
      <point x="420" y="-16" type="curve" smooth="yes"/>
      <point x="364" y="-16"/>
      <point x="302" y="-9.90039"/>
      <point x="236" y="2.9668" type="curve"/>
      <point x="231" y="1.00977"/>
      <point x="226" y="-0.00195312"/>
      <point x="220" y="-0.00195312" type="curve" smooth="yes"/>
      <point x="160" y="-0.00195312" type="line" smooth="yes"/>
      <point x="138" y="-0.00195312"/>
      <point x="126" y="12.2617"/>
      <point x="126" y="33.998" type="curve" smooth="yes"/>
      <point x="126" y="1185" type="line" smooth="yes"/>
      <point x="126" y="1207.36"/>
      <point x="137" y="1220.97"/>
      <point x="159" y="1224.76" type="curve" smooth="yes"/>
      <point x="220" y="1235.24" type="line" smooth="yes"/>
      <point x="223" y="1235.69"/>
      <point x="225" y="1235.91"/>
      <point x="227" y="1235.91" type="curve" smooth="yes"/>
      <point x="244" y="1235.91"/>
      <point x="254" y="1225.35"/>
      <point x="254" y="1207" type="curve" smooth="yes"/>
      <point x="254" y="762.16" type="line"/>
      <point x="315" y="800.396"/>
      <point x="405" y="840"/>
      <point x="513" y="840" type="curve" smooth="yes"/>
      <point x="748" y="840"/>
      <point x="883" y="650"/>
      <point x="883" y="411" type="curve" smooth="yes"/>
      <point x="883" y="154"/>
      <point x="706" y="-16"/>
    </contour>
  </outline>
</glyph>
<glyph name="c" format="1">
  <advance width="828"/>
  <unicode hex="0063"/>
  <outline>
    <contour>
      <point x="223" y="414" type="curve" smooth="yes"/>
      <point x="223" y="233.566"/>
      <point x="323" y="80.9775"/>
      <point x="556" y="80.9775" type="curve" smooth="yes"/>
      <point x="653" y="80.9775"/>
      <point x="721" y="110.58"/>
      <point x="763" y="130.53" type="curve" smooth="yes"/>
      <point x="781" y="138.818"/>
      <point x="794" y="130.73"/>
      <point x="794" y="111.423" type="curve" smooth="yes"/>
      <point x="794" y="74.8682" type="line" smooth="yes"/>
      <point x="794" y="53.5312"/>
      <point x="783" y="36.5137"/>
      <point x="763" y="27.5957" type="curve" smooth="yes"/>
      <point x="717" y="6.46289"/>
      <point x="645" y="-16.0146"/>
      <point x="554" y="-16.0146" type="curve" smooth="yes"/>
      <point x="269" y="-16.0146"/>
      <point x="97" y="164.37"/>
      <point x="97" y="413.002" type="curve" smooth="yes"/>
      <point x="97" y="665.848"/>
      <point x="281" y="840.039"/>
      <point x="548" y="840.039" type="curve" smooth="yes"/>
      <point x="643" y="840.039"/>
      <point x="722" y="816.29"/>
      <point x="763" y="798.333" type="curve" smooth="yes"/>
      <point x="782" y="790.302"/>
      <point x="794" y="772.137"/>
      <point x="794" y="752.049" type="curve" smooth="yes"/>
      <point x="794" y="723.081" type="line" smooth="yes"/>
      <point x="794" y="703.324"/>
      <point x="781" y="695.205"/>
      <point x="763" y="703.046" type="curve" smooth="yes"/>
      <point x="726" y="719.184"/>
      <point x="656" y="742"/>
      <point x="558" y="742" type="curve" smooth="yes"/>
      <point x="332" y="742"/>
      <point x="223" y="583"/>
    </contour>
  </outline>
</glyph>
<glyph name="d" format="1">
  <advance width="978"/>
  <unicode hex="0064"/>
  <outline>
    <contour>
      <point x="739" y="680.283" type="line"/>
      <point x="686" y="712.064"/>
      <point x="611" y="741.998"/>
      <point x="515" y="741.998" type="curve" smooth="yes"/>
      <point x="302" y="741.998"/>
      <point x="219" y="576.998"/>
      <point x="219" y="405.998" type="curve" smooth="yes"/>
      <point x="219" y="194.998"/>
      <point x="365" y="80.998"/>
      <point x="557" y="80.998" type="curve" smooth="yes"/>
      <point x="612" y="80.998"/>
      <point x="683" y="90.4004"/>
      <point x="739" y="100.06" type="curve"/>
    </contour>
    <contour>
      <point x="774" y="0" type="line" smooth="yes"/>
      <point x="765" y="0"/>
      <point x="757" y="2.08105"/>
      <point x="752" y="6.05078" type="curve"/>
      <point x="682" y="-8.45312"/>
      <point x="616" y="-16.001"/>
      <point x="558" y="-16.001" type="curve" smooth="yes"/>
      <point x="272" y="-16.001"/>
      <point x="92" y="153.999"/>
      <point x="92" y="410.999" type="curve" smooth="yes"/>
      <point x="92" y="649.999"/>
      <point x="244" y="839.999"/>
      <point x="497" y="839.999" type="curve" smooth="yes"/>
      <point x="605" y="839.999"/>
      <point x="685" y="809.933"/>
      <point x="739" y="777.767" type="curve"/>
      <point x="739" y="1185" type="line" smooth="yes"/>
      <point x="739" y="1207.37"/>
      <point x="751" y="1220.97"/>
      <point x="773" y="1224.76" type="curve" smooth="yes"/>
      <point x="834" y="1235.24" type="line" smooth="yes"/>
      <point x="837" y="1235.69"/>
      <point x="839" y="1235.91"/>
      <point x="841" y="1235.91" type="curve" smooth="yes"/>
      <point x="858" y="1235.91"/>
      <point x="868" y="1225.35"/>
      <point x="868" y="1207" type="curve" smooth="yes"/>
      <point x="868" y="34" type="line" smooth="yes"/>
      <point x="868" y="12.2637"/>
      <point x="855" y="0"/>
      <point x="834" y="0" type="curve" smooth="yes"/>
    </contour>
  </outline>
</glyph>
<glyph name="e" format="1">
  <advance width="903"/>
  <unicode hex="0065"/>
  <outline>
    <contour>
      <point x="538" y="-15" type="curve" smooth="yes"/>
      <point x="283" y="-15"/>
      <point x="87" y="132.002"/>
      <point x="87" y="428.002" type="curve" smooth="yes"/>
      <point x="87" y="669.002"/>
      <point x="267" y="840.002"/>
      <point x="483" y="840.002" type="curve" smooth="yes"/>
      <point x="739" y="840.002"/>
      <point x="841" y="637.002"/>
      <point x="841" y="413.002" type="curve" smooth="yes"/>
      <point x="841" y="402.002" type="line" smooth="yes"/>
      <point x="841" y="396.002"/>
      <point x="837" y="392.002"/>
      <point x="832" y="392.002" type="curve" smooth="yes"/>
      <point x="209" y="392.002" type="line"/>
      <point x="224" y="174.002"/>
      <point x="363" y="81.002"/>
      <point x="535" y="81.002" type="curve" smooth="yes"/>
      <point x="654" y="81.002"/>
      <point x="724" y="112.964"/>
      <point x="780" y="142.768" type="curve" smooth="yes"/>
      <point x="796" y="151.646"/>
      <point x="810" y="143.706"/>
      <point x="810" y="124.927" type="curve" smooth="yes"/>
      <point x="810" y="89.5654" type="line" smooth="yes"/>
      <point x="810" y="67.5723"/>
      <point x="799" y="50.7012"/>
      <point x="780" y="40.5479" type="curve" smooth="yes"/>
      <point x="719" y="9.15039"/>
      <point x="648" y="-15"/>
    </contour>
    <contour>
      <point x="214" y="470" type="curve"/>
      <point x="733" y="470" type="line"/>
      <point x="724" y="610"/>
      <point x="646" y="742"/>
      <point x="492" y="742" type="curve" smooth="yes"/>
      <point x="274" y="742"/>
      <point x="219" y="543"/>
    </contour>
  </outline>
</glyph>
<glyph name="f" format="1">
  <advance width="527"/>
  <unicode hex="0066"/>
  <outline>
    <contour>
      <point x="469" y="723" type="curve" smooth="yes"/>
      <point x="316" y="723" type="line"/>
      <point x="316" y="34" type="line" smooth="yes"/>
      <point x="316" y="12.2637"/>
      <point x="303" y="0"/>
      <point x="282" y="0" type="curve" smooth="yes"/>
      <point x="222" y="0" type="line" smooth="yes"/>
      <point x="200" y="0"/>
      <point x="188" y="12.2637"/>
      <point x="188" y="34" type="curve" smooth="yes"/>
      <point x="188" y="723" type="line"/>
      <point x="107" y="723" type="line" smooth="yes"/>
      <point x="85" y="723"/>
      <point x="73" y="735"/>
      <point x="73" y="757" type="curve" smooth="yes"/>
      <point x="73" y="790" type="line" smooth="yes"/>
      <point x="73" y="812"/>
      <point x="83" y="824"/>
      <point x="107" y="824" type="curve" smooth="yes"/>
      <point x="188" y="824" type="line"/>
      <point x="188" y="881" type="line" smooth="yes"/>
      <point x="188" y="1071"/>
      <point x="241" y="1204"/>
      <point x="440" y="1204" type="curve" smooth="yes"/>
      <point x="477" y="1204"/>
      <point x="520" y="1200"/>
      <point x="568" y="1190" type="curve" smooth="yes"/>
      <point x="589" y="1186"/>
      <point x="593" y="1175"/>
      <point x="593" y="1151" type="curve" smooth="yes"/>
      <point x="593" y="1119" type="line" smooth="yes"/>
      <point x="593" y="1099"/>
      <point x="581" y="1091"/>
      <point x="561" y="1094" type="curve" smooth="yes"/>
      <point x="522" y="1101"/>
      <point x="488" y="1105"/>
      <point x="459" y="1105" type="curve" smooth="yes"/>
      <point x="357" y="1105"/>
      <point x="316" y="1054"/>
      <point x="316" y="883" type="curve" smooth="yes"/>
      <point x="316" y="824" type="line"/>
      <point x="469" y="824" type="line" smooth="yes"/>
      <point x="490" y="824"/>
      <point x="503" y="812"/>
      <point x="503" y="790" type="curve" smooth="yes"/>
      <point x="503" y="757" type="line" smooth="yes"/>
      <point x="503" y="735"/>
      <point x="490" y="723"/>
    </contour>
  </outline>
</glyph>
<glyph name="g" format="1">
  <advance width="903"/>
  <unicode hex="0067"/>
  <outline>
    <contour>
      <point x="431" y="-353" type="curve" smooth="yes"/>
      <point x="622" y="-353"/>
      <point x="719" y="-273"/>
      <point x="719" y="-158" type="curve" smooth="yes"/>
      <point x="719" y="-63"/>
      <point x="672" y="-18"/>
      <point x="504" y="-18" type="curve" smooth="yes"/>
      <point x="329" y="-18" type="line"/>
      <point x="230" y="-42"/>
      <point x="166" y="-117"/>
      <point x="166" y="-183" type="curve" smooth="yes"/>
      <point x="166" y="-284"/>
      <point x="244" y="-353"/>
    </contour>
    <contour>
      <point x="404" y="332" type="curve" smooth="yes"/>
      <point x="527" y="332"/>
      <point x="612" y="406"/>
      <point x="612" y="537" type="curve" smooth="yes"/>
      <point x="612" y="667"/>
      <point x="530" y="744"/>
      <point x="402" y="744" type="curve" smooth="yes"/>
      <point x="275" y="744"/>
      <point x="197" y="662"/>
      <point x="197" y="535" type="curve" smooth="yes"/>
      <point x="197" y="411"/>
      <point x="267" y="332"/>
    </contour>
    <contour>
      <point x="398" y="240" type="curve" smooth="yes"/>
      <point x="364" y="240"/>
      <point x="332" y="243.871"/>
      <point x="302" y="251.591" type="curve"/>
      <point x="287" y="204.411"/>
      <point x="276" y="167.192"/>
      <point x="276" y="140.999" type="curve" smooth="yes"/>
      <point x="276" y="93.999"/>
      <point x="312" y="75.999"/>
      <point x="423" y="75.999" type="curve" smooth="yes"/>
      <point x="510" y="75.999" type="line" smooth="yes"/>
      <point x="733" y="75.999"/>
      <point x="828" y="5.99902"/>
      <point x="828" y="-143.001" type="curve" smooth="yes"/>
      <point x="828" y="-321.001"/>
      <point x="694" y="-446.001"/>
      <point x="423" y="-446.001" type="curve" smooth="yes"/>
      <point x="200" y="-446.001"/>
      <point x="53" y="-348.001"/>
      <point x="53" y="-204.001" type="curve" smooth="yes"/>
      <point x="53" y="-109.001"/>
      <point x="131" y="-18.001"/>
      <point x="230" y="6.99902" type="curve"/>
      <point x="181" y="23.999"/>
      <point x="161" y="61.999"/>
      <point x="161" y="106.999" type="curve" smooth="yes"/>
      <point x="161" y="159.603"/>
      <point x="187" y="225.142"/>
      <point x="226" y="281.067" type="curve"/>
      <point x="141" y="327.463"/>
      <point x="83" y="413.023"/>
      <point x="83" y="537" type="curve" smooth="yes"/>
      <point x="83" y="715"/>
      <point x="213" y="839.999"/>
      <point x="404" y="839.999" type="curve" smooth="yes"/>
      <point x="487" y="839.999"/>
      <point x="555" y="819.272"/>
      <point x="607" y="781.744" type="curve"/>
      <point x="830" y="838" type="line" smooth="yes"/>
      <point x="852" y="844"/>
      <point x="866" y="832"/>
      <point x="870" y="809" type="curve" smooth="yes"/>
      <point x="875" y="779" type="line" smooth="yes"/>
      <point x="875" y="771.881" type="line" smooth="yes"/>
      <point x="875" y="754.45"/>
      <point x="865" y="741.65"/>
      <point x="847" y="739" type="curve" smooth="yes"/>
      <point x="671" y="714.402" type="line"/>
      <point x="703" y="666.42"/>
      <point x="720" y="606.323"/>
      <point x="720" y="537" type="curve" smooth="yes"/>
      <point x="720" y="356"/>
      <point x="579" y="240"/>
    </contour>
  </outline>
</glyph>
<glyph name="h" format="1">
  <advance width="978"/>
  <unicode hex="0068"/>
  <outline>
    <contour>
      <point x="567" y="742.302" type="curve" smooth="yes"/>
      <point x="424" y="742.302"/>
      <point x="322" y="666.57"/>
      <point x="259" y="602.418" type="curve"/>
      <point x="259" y="33.999" type="line" smooth="yes"/>
      <point x="259" y="12.2627"/>
      <point x="247" y="-0.000976562"/>
      <point x="225" y="-0.000976562" type="curve" smooth="yes"/>
      <point x="165" y="-0.000976562" type="line" smooth="yes"/>
      <point x="144" y="-0.000976562"/>
      <point x="131" y="12.2627"/>
      <point x="131" y="33.999" type="curve" smooth="yes"/>
      <point x="131" y="1185" type="line" smooth="yes"/>
      <point x="131" y="1207.37"/>
      <point x="143" y="1220.97"/>
      <point x="165" y="1224.76" type="curve" smooth="yes"/>
      <point x="226" y="1235.24" type="line" smooth="yes"/>
      <point x="229" y="1235.69"/>
      <point x="231" y="1235.91"/>
      <point x="233" y="1235.91" type="curve" smooth="yes"/>
      <point x="250" y="1235.91"/>
      <point x="259" y="1225.35"/>
      <point x="259" y="1207" type="curve" smooth="yes"/>
      <point x="259" y="712.154" type="line"/>
      <point x="317" y="771.884"/>
      <point x="419" y="840"/>
      <point x="587" y="840" type="curve" smooth="yes"/>
      <point x="768" y="840"/>
      <point x="883" y="741"/>
      <point x="883" y="560" type="curve" smooth="yes"/>
      <point x="883" y="33.999" type="line" smooth="yes"/>
      <point x="883" y="11.999"/>
      <point x="871" y="-0.000976562"/>
      <point x="849" y="-0.000976562" type="curve" smooth="yes"/>
      <point x="789" y="-0.000976562" type="line" smooth="yes"/>
      <point x="767" y="-0.000976562"/>
      <point x="755" y="11.999"/>
      <point x="755" y="33.999" type="curve" smooth="yes"/>
      <point x="755" y="559" type="line" smooth="yes"/>
      <point x="755" y="684.738"/>
      <point x="700" y="742.302"/>
    </contour>
  </outline>
</glyph>
<glyph name="i" format="1">
  <advance width="527"/>
  <unicode hex="0069"/>
  <outline>
    <contour>
      <point x="221" y="0" type="line" smooth="yes"/>
      <point x="199" y="0"/>
      <point x="187" y="12.2637"/>
      <point x="187" y="34" type="curve" smooth="yes"/>
      <point x="187" y="790" type="line" smooth="yes"/>
      <point x="187" y="811.736"/>
      <point x="199" y="824"/>
      <point x="221" y="824" type="curve" smooth="yes"/>
      <point x="281" y="824" type="line" smooth="yes"/>
      <point x="303" y="824"/>
      <point x="315" y="812"/>
      <point x="315" y="790" type="curve" smooth="yes"/>
      <point x="315" y="34" type="line" smooth="yes"/>
      <point x="315" y="12.2637"/>
      <point x="302" y="0"/>
      <point x="281" y="0" type="curve" smooth="yes"/>
    </contour>
    <contour>
      <point x="250" y="1064" type="curve" smooth="yes"/>
      <point x="191" y="1064"/>
      <point x="160" y="1108"/>
      <point x="160" y="1152" type="curve" smooth="yes"/>
      <point x="160" y="1195"/>
      <point x="191" y="1240"/>
      <point x="250" y="1240" type="curve" smooth="yes"/>
      <point x="307" y="1240"/>
      <point x="338" y="1194"/>
      <point x="338" y="1152" type="curve" smooth="yes"/>
      <point x="338" y="1108"/>
      <point x="307" y="1064"/>
    </contour>
  </outline>
</glyph>
<glyph name="j" format="1">
  <advance width="527"/>
  <unicode hex="006A"/>
  <outline>
    <contour>
      <point x="103" y="-323" type="curve" smooth="yes"/>
      <point x="100" y="-323.518"/>
      <point x="96" y="-323.797"/>
      <point x="93" y="-323.797" type="curve" smooth="yes"/>
      <point x="77" y="-323.797"/>
      <point x="67" y="-317.375"/>
      <point x="62" y="-300" type="curve"/>
      <point x="49" y="-242" type="line" smooth="yes"/>
      <point x="46" y="-229"/>
      <point x="75" y="-221"/>
      <point x="75" y="-221" type="curve"/>
      <point x="171" y="-214"/>
      <point x="223" y="-178"/>
      <point x="223" y="-76" type="curve" smooth="yes"/>
      <point x="223" y="790" type="line" smooth="yes"/>
      <point x="223" y="811.736"/>
      <point x="236" y="824"/>
      <point x="257" y="824" type="curve" smooth="yes"/>
      <point x="317" y="824" type="line" smooth="yes"/>
      <point x="339" y="824"/>
      <point x="351" y="812"/>
      <point x="351" y="790" type="curve" smooth="yes"/>
      <point x="351" y="-79" type="line" smooth="yes"/>
      <point x="351" y="-177"/>
      <point x="338" y="-301"/>
    </contour>
    <contour>
      <point x="278" y="1064" type="curve" smooth="yes"/>
      <point x="219" y="1064"/>
      <point x="188" y="1108"/>
      <point x="188" y="1152" type="curve" smooth="yes"/>
      <point x="188" y="1195"/>
      <point x="219" y="1240"/>
      <point x="278" y="1240" type="curve" smooth="yes"/>
      <point x="335" y="1240"/>
      <point x="366" y="1194"/>
      <point x="366" y="1152" type="curve" smooth="yes"/>
      <point x="366" y="1108"/>
      <point x="335" y="1064"/>
    </contour>
  </outline>
</glyph>
<glyph name="k" format="1">
  <advance width="828"/>
  <unicode hex="006B"/>
  <outline>
    <contour>
      <point x="166" y="0" type="line" smooth="yes"/>
      <point x="144" y="0"/>
      <point x="131" y="12.2627"/>
      <point x="131" y="33.999" type="curve" smooth="yes"/>
      <point x="131" y="1185" type="line" smooth="yes"/>
      <point x="131" y="1207.37"/>
      <point x="143" y="1220.97"/>
      <point x="165" y="1224.76" type="curve" smooth="yes"/>
      <point x="226" y="1235.24" type="line" smooth="yes"/>
      <point x="229" y="1235.69"/>
      <point x="231" y="1235.91"/>
      <point x="233" y="1235.91" type="curve" smooth="yes"/>
      <point x="250" y="1235.91"/>
      <point x="259" y="1225.35"/>
      <point x="259" y="1207" type="curve" smooth="yes"/>
      <point x="259" y="461.739" type="line"/>
      <point x="614" y="801" type="line" smooth="yes"/>
      <point x="631" y="816"/>
      <point x="650" y="824"/>
      <point x="673" y="824" type="curve" smooth="yes"/>
      <point x="763" y="824" type="line" smooth="yes"/>
      <point x="779" y="824"/>
      <point x="784" y="812"/>
      <point x="772" y="801" type="curve" smooth="yes"/>
      <point x="388" y="441" type="line"/>
      <point x="833" y="23.291" type="line" smooth="yes"/>
      <point x="837" y="19.0762"/>
      <point x="839" y="14.7197"/>
      <point x="839" y="10.9316" type="curve" smooth="yes"/>
      <point x="839" y="4.69727"/>
      <point x="834" y="0"/>
      <point x="824" y="0" type="curve" smooth="yes"/>
      <point x="729" y="0" type="line" smooth="yes"/>
      <point x="706" y="0"/>
      <point x="687" y="8"/>
      <point x="670" y="23.2598" type="curve" smooth="yes"/>
      <point x="267" y="405" type="line"/>
      <point x="259" y="399.4" type="line"/>
      <point x="259" y="33.999" type="line" smooth="yes"/>
      <point x="259" y="12.2627"/>
      <point x="247" y="0"/>
      <point x="226" y="0" type="curve" smooth="yes"/>
    </contour>
  </outline>
</glyph>
<glyph name="l" format="1">
  <advance width="527"/>
  <unicode hex="006C"/>
  <outline>
    <contour>
      <point x="213" y="0" type="line" smooth="yes"/>
      <point x="191" y="0"/>
      <point x="179" y="12.2637"/>
      <point x="179" y="34" type="curve" smooth="yes"/>
      <point x="179" y="1185" type="line" smooth="yes"/>
      <point x="179" y="1207.37"/>
      <point x="186" y="1221"/>
      <point x="211" y="1225" type="curve" smooth="yes"/>
      <point x="273" y="1235.24" type="line" smooth="yes"/>
      <point x="276" y="1235.73"/>
      <point x="278" y="1235.97"/>
      <point x="281" y="1235.97" type="curve" smooth="yes"/>
      <point x="297" y="1235.97"/>
      <point x="307" y="1225.27"/>
      <point x="307" y="1207" type="curve" smooth="yes"/>
      <point x="307" y="34" type="line" smooth="yes"/>
      <point x="307" y="12.2637"/>
      <point x="294" y="0"/>
      <point x="273" y="0" type="curve" smooth="yes"/>
    </contour>
  </outline>
</glyph>
<glyph name="m" format="1">
  <advance width="1581"/>
  <unicode hex="006D"/>
  <outline>
    <contour>
      <point x="530" y="742.301" type="curve" smooth="yes"/>
      <point x="398" y="742.301"/>
      <point x="303" y="671.622"/>
      <point x="243" y="608.767" type="curve"/>
      <point x="243" y="33.999" type="line" smooth="yes"/>
      <point x="243" y="12.2627"/>
      <point x="231" y="-0.000976562"/>
      <point x="210" y="-0.000976562" type="curve" smooth="yes"/>
      <point x="153" y="-0.000976562" type="line" smooth="yes"/>
      <point x="132" y="-0.000976562"/>
      <point x="121" y="12.2627"/>
      <point x="121" y="33.999" type="curve" smooth="yes"/>
      <point x="121" y="789.999" type="line" smooth="yes"/>
      <point x="121" y="811.735"/>
      <point x="132" y="823.999"/>
      <point x="153" y="823.999" type="curve" smooth="yes"/>
      <point x="210" y="823.999" type="line" smooth="yes"/>
      <point x="231" y="823.999"/>
      <point x="243" y="811.999"/>
      <point x="243" y="789.999" type="curve" smooth="yes"/>
      <point x="243" y="718.522" type="line"/>
      <point x="299" y="776.619"/>
      <point x="395" y="839.999"/>
      <point x="549" y="839.999" type="curve" smooth="yes"/>
      <point x="684" y="839.999"/>
      <point x="781" y="779.146"/>
      <point x="817" y="665.633" type="curve"/>
      <point x="858" y="728.398"/>
      <point x="961" y="839.999"/>
      <point x="1165" y="839.999" type="curve" smooth="yes"/>
      <point x="1338" y="839.999"/>
      <point x="1448" y="740.999"/>
      <point x="1448" y="559.999" type="curve" smooth="yes"/>
      <point x="1448" y="33.999" type="line" smooth="yes"/>
      <point x="1448" y="11.999"/>
      <point x="1437" y="-0.000976562"/>
      <point x="1416" y="-0.000976562" type="curve" smooth="yes"/>
      <point x="1358" y="-0.000976562" type="line" smooth="yes"/>
      <point x="1337" y="-0.000976562"/>
      <point x="1326" y="11.999"/>
      <point x="1326" y="33.999" type="curve" smooth="yes"/>
      <point x="1326" y="558.999" type="line" smooth="yes"/>
      <point x="1326" y="684.737"/>
      <point x="1274" y="742.301"/>
      <point x="1147" y="742.301" type="curve" smooth="yes"/>
      <point x="992" y="742.301"/>
      <point x="886" y="643.481"/>
      <point x="831" y="577.273" type="curve"/>
      <point x="831" y="571.602"/>
      <point x="832" y="565.843"/>
      <point x="832" y="559.999" type="curve" smooth="yes"/>
      <point x="832" y="33.999" type="line" smooth="yes"/>
      <point x="832" y="11.999"/>
      <point x="820" y="-0.000976562"/>
      <point x="799" y="-0.000976562" type="curve" smooth="yes"/>
      <point x="742" y="-0.000976562" type="line" smooth="yes"/>
      <point x="721" y="-0.000976562"/>
      <point x="709" y="11.999"/>
      <point x="709" y="33.999" type="curve" smooth="yes"/>
      <point x="709" y="558.999" type="line" smooth="yes"/>
      <point x="709" y="684.737"/>
      <point x="657" y="742.301"/>
    </contour>
  </outline>
</glyph>
<glyph name="n" format="1">
  <advance width="978"/>
  <unicode hex="006E"/>
  <outline>
    <contour>
      <point x="566" y="742.302" type="curve" smooth="yes"/>
      <point x="423" y="742.302"/>
      <point x="321" y="666.571"/>
      <point x="259" y="602.419" type="curve"/>
      <point x="259" y="34" type="line" smooth="yes"/>
      <point x="259" y="12.2637"/>
      <point x="246" y="0"/>
      <point x="225" y="0" type="curve" smooth="yes"/>
      <point x="165" y="0" type="line" smooth="yes"/>
      <point x="143" y="0"/>
      <point x="131" y="12.2637"/>
      <point x="131" y="34" type="curve" smooth="yes"/>
      <point x="131" y="790" type="line" smooth="yes"/>
      <point x="131" y="811.736"/>
      <point x="143" y="824"/>
      <point x="165" y="824" type="curve" smooth="yes"/>
      <point x="225" y="824" type="line" smooth="yes"/>
      <point x="247" y="824"/>
      <point x="259" y="812"/>
      <point x="259" y="790" type="curve" smooth="yes"/>
      <point x="259" y="712.154" type="line"/>
      <point x="316" y="771.884"/>
      <point x="418" y="840"/>
      <point x="586" y="840" type="curve" smooth="yes"/>
      <point x="767" y="840"/>
      <point x="882" y="741"/>
      <point x="882" y="560" type="curve" smooth="yes"/>
      <point x="882" y="34" type="line" smooth="yes"/>
      <point x="882" y="12"/>
      <point x="870" y="0"/>
      <point x="848" y="0" type="curve" smooth="yes"/>
      <point x="788" y="0" type="line" smooth="yes"/>
      <point x="766" y="0"/>
      <point x="754" y="12"/>
      <point x="754" y="34" type="curve" smooth="yes"/>
      <point x="754" y="559" type="line" smooth="yes"/>
      <point x="754" y="684.738"/>
      <point x="699" y="742.302"/>
    </contour>
  </outline>
</glyph>
<glyph name="o" format="1">
  <advance width="1054"/>
  <unicode hex="006F"/>
  <outline>
    <contour>
      <point x="972" y="408" type="curve" smooth="yes"/>
      <point x="972" y="139"/>
      <point x="759" y="-16"/>
      <point x="526" y="-16" type="curve" smooth="yes"/>
      <point x="294" y="-16"/>
      <point x="82" y="138"/>
      <point x="82" y="408" type="curve" smooth="yes"/>
      <point x="82" y="682"/>
      <point x="295" y="840"/>
      <point x="528" y="840" type="curve" smooth="yes"/>
      <point x="745" y="840"/>
      <point x="972" y="683"/>
    </contour>
    <contour>
      <point x="208" y="410" type="curve" smooth="yes"/>
      <point x="208" y="230"/>
      <point x="311" y="81"/>
      <point x="527" y="81" type="curve" smooth="yes"/>
      <point x="743" y="81"/>
      <point x="846" y="244"/>
      <point x="846" y="409" type="curve" smooth="yes"/>
      <point x="846" y="575"/>
      <point x="739" y="742"/>
      <point x="527" y="742" type="curve" smooth="yes"/>
      <point x="315" y="742"/>
      <point x="208" y="576"/>
    </contour>
  </outline>
</glyph>
<glyph name="p" format="1">
  <advance width="978"/>
  <unicode hex="0070"/>
  <outline>
    <contour>
      <point x="254" y="99.9375" type="line"/>
      <point x="294" y="91.2344"/>
      <point x="354" y="80.998"/>
      <point x="430" y="80.998" type="curve" smooth="yes"/>
      <point x="622" y="80.998"/>
      <point x="765" y="195.998"/>
      <point x="765" y="406.998" type="curve" smooth="yes"/>
      <point x="765" y="573.998"/>
      <point x="696" y="741.998"/>
      <point x="492" y="741.998" type="curve" smooth="yes"/>
      <point x="400" y="741.998"/>
      <point x="313" y="704.896"/>
      <point x="254" y="671.117" type="curve"/>
    </contour>
    <contour>
      <point x="160" y="-435" type="line" smooth="yes"/>
      <point x="157" y="-435.546"/>
      <point x="154" y="-435.813"/>
      <point x="151" y="-435.813" type="curve" smooth="yes"/>
      <point x="135" y="-435.813"/>
      <point x="126" y="-425.136"/>
      <point x="126" y="-407.001" type="curve" smooth="yes"/>
      <point x="126" y="789.999" type="line" smooth="yes"/>
      <point x="126" y="811.999"/>
      <point x="138" y="823.999"/>
      <point x="160" y="823.999" type="curve" smooth="yes"/>
      <point x="220" y="823.999" type="line" smooth="yes"/>
      <point x="242" y="823.999"/>
      <point x="254" y="811.999"/>
      <point x="254" y="789.999" type="curve" smooth="yes"/>
      <point x="254" y="756.438" type="line"/>
      <point x="315" y="796.334"/>
      <point x="408" y="840"/>
      <point x="522" y="840" type="curve" smooth="yes"/>
      <point x="757" y="840"/>
      <point x="892" y="650"/>
      <point x="892" y="411" type="curve" smooth="yes"/>
      <point x="892" y="154"/>
      <point x="715" y="-16"/>
      <point x="429" y="-16" type="curve" smooth="yes"/>
      <point x="375" y="-16"/>
      <point x="317" y="-10.4199"/>
      <point x="254" y="1.32227" type="curve"/>
      <point x="254" y="-386" type="line" smooth="yes"/>
      <point x="254" y="-408"/>
      <point x="242" y="-422"/>
      <point x="220" y="-426" type="curve" smooth="yes"/>
    </contour>
  </outline>
</glyph>
<glyph name="q" format="1">
  <advance width="978"/>
  <unicode hex="0071"/>
  <outline>
    <contour>
      <point x="746" y="101.26" type="curve"/>
      <point x="746" y="676.02" type="line"/>
      <point x="692" y="709.333"/>
      <point x="614" y="741.999"/>
      <point x="513" y="741.999" type="curve" smooth="yes"/>
      <point x="300" y="741.999"/>
      <point x="217" y="576.999"/>
      <point x="217" y="405.999" type="curve" smooth="yes"/>
      <point x="217" y="194.999"/>
      <point x="363" y="80.999"/>
      <point x="555" y="80.999" type="curve" smooth="yes"/>
      <point x="613" y="80.999"/>
      <point x="687" y="91.1953"/>
    </contour>
    <contour>
      <point x="780" y="-435" type="line" smooth="yes"/>
      <point x="777" y="-435.546"/>
      <point x="774" y="-435.813"/>
      <point x="771" y="-435.813" type="curve" smooth="yes"/>
      <point x="755" y="-435.813"/>
      <point x="746" y="-425.136"/>
      <point x="746" y="-407.001" type="curve" smooth="yes"/>
      <point x="746" y="4.99609" type="line"/>
      <point x="677" y="-8.81836"/>
      <point x="614" y="-16"/>
      <point x="558" y="-16" type="curve" smooth="yes"/>
      <point x="272" y="-16"/>
      <point x="92" y="154"/>
      <point x="92" y="411" type="curve" smooth="yes"/>
      <point x="92" y="650"/>
      <point x="244" y="840"/>
      <point x="497" y="840" type="curve" smooth="yes"/>
      <point x="609" y="840"/>
      <point x="691" y="807.247"/>
      <point x="746" y="773.538" type="curve"/>
      <point x="746" y="790" type="line" smooth="yes"/>
      <point x="746" y="812"/>
      <point x="758" y="824"/>
      <point x="780" y="824" type="curve" smooth="yes"/>
      <point x="840" y="824" type="line" smooth="yes"/>
      <point x="862" y="824"/>
      <point x="874" y="812"/>
      <point x="874" y="790" type="curve" smooth="yes"/>
      <point x="874" y="-386" type="line" smooth="yes"/>
      <point x="874" y="-408"/>
      <point x="862" y="-422"/>
      <point x="840" y="-426" type="curve" smooth="yes"/>
    </contour>
  </outline>
</glyph>
<glyph name="r" format="1">
  <advance width="677"/>
  <unicode hex="0072"/>
  <outline>
    <contour>
      <point x="170" y="0" type="line" smooth="yes"/>
      <point x="148" y="0"/>
      <point x="136" y="12.2627"/>
      <point x="136" y="33.999" type="curve" smooth="yes"/>
      <point x="136" y="789.999" type="line" smooth="yes"/>
      <point x="136" y="811.735"/>
      <point x="148" y="823.999"/>
      <point x="170" y="823.999" type="curve" smooth="yes"/>
      <point x="230" y="823.999" type="line" smooth="yes"/>
      <point x="252" y="823.999"/>
      <point x="264" y="811.999"/>
      <point x="264" y="789.999" type="curve" smooth="yes"/>
      <point x="264" y="579.588" type="line"/>
      <point x="321" y="696.354"/>
      <point x="411" y="830.999"/>
      <point x="530" y="830.999" type="curve" smooth="yes"/>
      <point x="571" y="830.999"/>
      <point x="615" y="810.999"/>
      <point x="663" y="766.999" type="curve" smooth="yes"/>
      <point x="674" y="757.332"/>
      <point x="680" y="745.28"/>
      <point x="680" y="732.162" type="curve" smooth="yes"/>
      <point x="680" y="726.283"/>
      <point x="679" y="720.189"/>
      <point x="677" y="714" type="curve" smooth="yes"/>
      <point x="664" y="681" type="line" smooth="yes"/>
      <point x="657" y="661"/>
      <point x="643" y="656"/>
      <point x="625" y="668" type="curve" smooth="yes"/>
      <point x="591" y="690"/>
      <point x="558" y="707"/>
      <point x="517" y="707" type="curve" smooth="yes"/>
      <point x="398" y="707"/>
      <point x="264" y="535"/>
      <point x="264" y="408" type="curve" smooth="yes"/>
      <point x="264" y="33.999" type="line" smooth="yes"/>
      <point x="264" y="12.2627"/>
      <point x="251" y="0"/>
      <point x="230" y="0" type="curve" smooth="yes"/>
    </contour>
  </outline>
</glyph>
<glyph name="s" format="1">
  <advance width="753"/>
  <unicode hex="0073"/>
  <outline>
    <contour>
      <point x="637" y="205.201" type="curve" smooth="yes"/>
      <point x="637" y="64.7266"/>
      <point x="547" y="-15.001"/>
      <point x="371" y="-15.001" type="curve" smooth="yes"/>
      <point x="276" y="-15.001"/>
      <point x="211" y="6.99902"/>
      <point x="166" y="29.999" type="curve" smooth="yes"/>
      <point x="150" y="37.999"/>
      <point x="141" y="50.999"/>
      <point x="141" y="72.999" type="curve" smooth="yes"/>
      <point x="141" y="115.999" type="line" smooth="yes"/>
      <point x="141" y="134.999"/>
      <point x="149" y="139.999"/>
      <point x="163" y="130.999" type="curve" smooth="yes"/>
      <point x="210" y="100.999"/>
      <point x="284" y="79.999"/>
      <point x="367" y="79.999" type="curve" smooth="yes"/>
      <point x="469" y="79.999"/>
      <point x="531" y="111.08"/>
      <point x="531" y="206.564" type="curve" smooth="yes"/>
      <point x="531" y="251.271"/>
      <point x="509" y="279.244"/>
      <point x="441" y="310.999" type="curve" smooth="yes"/>
      <point x="256" y="397.999" type="line" smooth="yes"/>
      <point x="147" y="449.07"/>
      <point x="116" y="525.146"/>
      <point x="116" y="599.807" type="curve" smooth="yes"/>
      <point x="116" y="736.3"/>
      <point x="197" y="839.999"/>
      <point x="371" y="839.999" type="curve" smooth="yes"/>
      <point x="467" y="839.999"/>
      <point x="544" y="815.999"/>
      <point x="604" y="783.999" type="curve" smooth="yes"/>
      <point x="624" y="773.999"/>
      <point x="634" y="762.999"/>
      <point x="634" y="740.999" type="curve" smooth="yes"/>
      <point x="634" y="699.999" type="line"/>
      <point x="633" y="680.999"/>
      <point x="621" y="672.999"/>
      <point x="604" y="681.999" type="curve" smooth="yes"/>
      <point x="550" y="711.999"/>
      <point x="470" y="743.999"/>
      <point x="369" y="743.999" type="curve" smooth="yes"/>
      <point x="268" y="743.999"/>
      <point x="222" y="687.75"/>
      <point x="222" y="613.595" type="curve" smooth="yes"/>
      <point x="222" y="565.018"/>
      <point x="236" y="524.613"/>
      <point x="318" y="487" type="curve" smooth="yes"/>
      <point x="495" y="404" type="line" smooth="yes"/>
      <point x="605" y="353.229"/>
      <point x="637" y="277.068"/>
    </contour>
  </outline>
</glyph>
<glyph name="t" format="1">
  <advance width="677"/>
  <unicode hex="0074"/>
  <outline>
    <contour>
      <point x="417" y="-16" type="curve" smooth="yes"/>
      <point x="284" y="-16"/>
      <point x="172" y="57.001"/>
      <point x="172" y="191.001" type="curve" smooth="yes"/>
      <point x="172" y="726" type="line"/>
      <point x="86" y="726" type="line" smooth="yes"/>
      <point x="75" y="726"/>
      <point x="68" y="732.46"/>
      <point x="68" y="741.423" type="curve" smooth="yes"/>
      <point x="68" y="746.118"/>
      <point x="70" y="751.5"/>
      <point x="74" y="757" type="curve" smooth="yes"/>
      <point x="267" y="998" type="line" smooth="yes"/>
      <point x="272" y="1003.22"/>
      <point x="277" y="1005.52"/>
      <point x="283" y="1005.52" type="curve" smooth="yes"/>
      <point x="292" y="1005.52"/>
      <point x="301" y="999.03"/>
      <point x="301" y="989" type="curve" smooth="yes"/>
      <point x="301" y="824" type="line"/>
      <point x="547" y="824" type="line" smooth="yes"/>
      <point x="569" y="824"/>
      <point x="581" y="812"/>
      <point x="581" y="790" type="curve" smooth="yes"/>
      <point x="581" y="760" type="line" smooth="yes"/>
      <point x="581" y="738"/>
      <point x="569" y="726"/>
      <point x="547" y="726" type="curve" smooth="yes"/>
      <point x="301" y="726" type="line"/>
      <point x="301" y="208" type="line" smooth="yes"/>
      <point x="301" y="102"/>
      <point x="362" y="81"/>
      <point x="434" y="81" type="curve" smooth="yes"/>
      <point x="503" y="81"/>
      <point x="559" y="102"/>
      <point x="596" y="118" type="curve" smooth="yes"/>
      <point x="613" y="126"/>
      <point x="626" y="121"/>
      <point x="626" y="103" type="curve" smooth="yes"/>
      <point x="626" y="65" type="line" smooth="yes"/>
      <point x="626" y="44"/>
      <point x="625" y="37"/>
      <point x="606" y="26" type="curve" smooth="yes"/>
      <point x="570" y="5"/>
      <point x="508" y="-16"/>
    </contour>
  </outline>
</glyph>
<glyph name="u" format="1">
  <advance width="978"/>
  <unicode hex="0075"/>
  <outline>
    <contour>
      <point x="441" y="81.6982" type="curve" smooth="yes"/>
      <point x="584" y="81.6982"/>
      <point x="686" y="157.429"/>
      <point x="749" y="221.581" type="curve"/>
      <point x="749" y="790" type="line" smooth="yes"/>
      <point x="749" y="811.736"/>
      <point x="761" y="824"/>
      <point x="783" y="824" type="curve" smooth="yes"/>
      <point x="843" y="824" type="line" smooth="yes"/>
      <point x="864" y="824"/>
      <point x="877" y="811.736"/>
      <point x="877" y="790" type="curve" smooth="yes"/>
      <point x="877" y="34" type="line" smooth="yes"/>
      <point x="877" y="12.2637"/>
      <point x="864" y="0"/>
      <point x="843" y="0" type="curve" smooth="yes"/>
      <point x="783" y="0" type="line" smooth="yes"/>
      <point x="761" y="0"/>
      <point x="749" y="12"/>
      <point x="749" y="34" type="curve" smooth="yes"/>
      <point x="749" y="111.846" type="line"/>
      <point x="691" y="52.1162"/>
      <point x="589" y="-16"/>
      <point x="422" y="-16" type="curve" smooth="yes"/>
      <point x="241" y="-16"/>
      <point x="126" y="83"/>
      <point x="126" y="264" type="curve" smooth="yes"/>
      <point x="126" y="790" type="line" smooth="yes"/>
      <point x="126" y="812"/>
      <point x="138" y="824"/>
      <point x="160" y="824" type="curve" smooth="yes"/>
      <point x="220" y="824" type="line" smooth="yes"/>
      <point x="242" y="824"/>
      <point x="254" y="812"/>
      <point x="254" y="790" type="curve" smooth="yes"/>
      <point x="254" y="265" type="line" smooth="yes"/>
      <point x="254" y="139.262"/>
      <point x="308" y="81.6982"/>
    </contour>
  </outline>
</glyph>
<glyph name="v" format="1">
  <advance width="903"/>
  <unicode hex="0076"/>
  <outline>
    <contour>
      <point x="472" y="-1.22461" type="line" smooth="yes"/>
      <point x="468" y="-9.0918"/>
      <point x="463" y="-13.0303"/>
      <point x="457" y="-13.0303" type="curve" smooth="yes"/>
      <point x="452" y="-13.0303"/>
      <point x="446" y="-9.1543"/>
      <point x="442" y="-1.39258" type="curve" smooth="yes"/>
      <point x="58" y="793.392" type="line" smooth="yes"/>
      <point x="56" y="797.888"/>
      <point x="55" y="802.123"/>
      <point x="55" y="805.927" type="curve" smooth="yes"/>
      <point x="55" y="816.688"/>
      <point x="63" y="823.999"/>
      <point x="77" y="823.999" type="curve" smooth="yes"/>
      <point x="143" y="823.999" type="line" smooth="yes"/>
      <point x="166" y="823.999"/>
      <point x="181" y="813.999"/>
      <point x="191" y="792.999" type="curve" smooth="yes"/>
      <point x="459" y="208.999" type="line"/>
      <point x="716" y="792.999" type="line" smooth="yes"/>
      <point x="725" y="813.999"/>
      <point x="741" y="823.999"/>
      <point x="764" y="823.999" type="curve" smooth="yes"/>
      <point x="825" y="823.999" type="line" smooth="yes"/>
      <point x="840" y="823.999"/>
      <point x="848" y="816.635"/>
      <point x="848" y="805.705" type="curve" smooth="yes"/>
      <point x="848" y="801.92"/>
      <point x="847" y="797.707"/>
      <point x="845" y="793.225" type="curve" smooth="yes"/>
    </contour>
  </outline>
</glyph>
<glyph name="w" format="1">
  <advance width="1204"/>
  <unicode hex="0077"/>
  <outline>
    <contour>
      <point x="883.5" y="12.7744" type="line" smooth="yes"/>
      <point x="880.5" y="5.00586"/>
      <point x="875.5" y="1.10449"/>
      <point x="870.5" y="1.10449" type="curve" smooth="yes"/>
      <point x="865.5" y="1.10449"/>
      <point x="861.5" y="4.81934"/>
      <point x="857.5" y="12.2822" type="curve" smooth="yes"/>
      <point x="607.5" y="601" type="line"/>
      <point x="351.5" y="12.1904" type="line" smooth="yes"/>
      <point x="348.5" y="4.7041"/>
      <point x="343.5" y="0.977539"/>
      <point x="338.5" y="0.977539" type="curve" smooth="yes"/>
      <point x="333.5" y="0.977539"/>
      <point x="329.5" y="4.89648"/>
      <point x="326.5" y="12.6982" type="curve" smooth="yes"/>
      <point x="23.5" y="792.301" type="line" smooth="yes"/>
      <point x="21.5" y="796.491"/>
      <point x="21.5" y="800.42"/>
      <point x="21.5" y="803.988" type="curve" smooth="yes"/>
      <point x="21.5" y="816.056"/>
      <point x="30.5" y="824"/>
      <point x="45.5" y="824" type="curve" smooth="yes"/>
      <point x="95.5" y="824" type="line" smooth="yes"/>
      <point x="118.5" y="824"/>
      <point x="133.5" y="813.582"/>
      <point x="141.5" y="792.226" type="curve" smooth="yes"/>
      <point x="348.5" y="252" type="line"/>
      <point x="590.5" y="815.769" type="line" smooth="yes"/>
      <point x="594.5" y="823.568"/>
      <point x="599.5" y="827.472"/>
      <point x="604.5" y="827.472" type="curve" smooth="yes"/>
      <point x="609.5" y="827.472"/>
      <point x="614.5" y="823.609"/>
      <point x="617.5" y="815.878" type="curve" smooth="yes"/>
      <point x="867.5" y="249.001" type="line"/>
      <point x="1061.5" y="791.993" type="line" smooth="yes"/>
      <point x="1069.5" y="813.48"/>
      <point x="1084.5" y="824"/>
      <point x="1107.5" y="824" type="curve" smooth="yes"/>
      <point x="1158.5" y="824" type="line" smooth="yes"/>
      <point x="1173.5" y="824"/>
      <point x="1182.5" y="816.002"/>
      <point x="1182.5" y="803.826" type="curve" smooth="yes"/>
      <point x="1182.5" y="800.282"/>
      <point x="1181.5" y="796.384"/>
      <point x="1180.5" y="792.226" type="curve" smooth="yes"/>
    </contour>
  </outline>
</glyph>
<glyph name="x" format="1">
  <advance width="903"/>
  <unicode hex="0078"/>
  <outline>
    <contour>
      <point x="740" y="25.9131" type="curve" smooth="yes"/>
      <point x="457" y="345.015" type="line"/>
      <point x="198" y="26.3877" type="line" smooth="yes"/>
      <point x="184" y="8.46094"/>
      <point x="166" y="0"/>
      <point x="143" y="0" type="curve" smooth="yes"/>
      <point x="66" y="0" type="line" smooth="yes"/>
      <point x="55" y="-0"/>
      <point x="48" y="5.60742"/>
      <point x="48" y="13.166" type="curve" smooth="yes"/>
      <point x="48" y="17.1162"/>
      <point x="50" y="21.5996"/>
      <point x="54" y="26.0938" type="curve" smooth="yes"/>
      <point x="387" y="424.084" type="line"/>
      <point x="55" y="798.566" type="line" smooth="yes"/>
      <point x="51" y="803.053"/>
      <point x="50" y="807.539"/>
      <point x="50" y="811.467" type="curve" smooth="yes"/>
      <point x="50" y="818.673"/>
      <point x="56" y="824"/>
      <point x="67" y="824" type="curve" smooth="yes"/>
      <point x="133" y="824" type="line" smooth="yes"/>
      <point x="156" y="824"/>
      <point x="174" y="815.752"/>
      <point x="189" y="798.337" type="curve" smooth="yes"/>
      <point x="460" y="491.034" type="line"/>
      <point x="713" y="797.728" type="line" smooth="yes"/>
      <point x="728" y="815.573"/>
      <point x="746" y="824"/>
      <point x="769" y="824" type="curve" smooth="yes"/>
      <point x="851" y="824" type="line" smooth="yes"/>
      <point x="868" y="824"/>
      <point x="874" y="811"/>
      <point x="863" y="798.078" type="curve" smooth="yes"/>
      <point x="531" y="410.663" type="line"/>
      <point x="871" y="25.7793" type="line" smooth="yes"/>
      <point x="875" y="21.2822"/>
      <point x="876" y="16.7969"/>
      <point x="876" y="12.8584" type="curve" smooth="yes"/>
      <point x="876" y="5.46582"/>
      <point x="870" y="0"/>
      <point x="859" y="0" type="curve" smooth="yes"/>
      <point x="796" y="0" type="line" smooth="yes"/>
      <point x="773" y="-0"/>
      <point x="755" y="8.32031"/>
    </contour>
  </outline>
</glyph>
<glyph name="y" format="1">
  <advance width="903"/>
  <unicode hex="0079"/>
  <outline>
    <contour>
      <point x="273" y="-244" type="line" smooth="yes"/>
      <point x="254" y="-244"/>
      <point x="246" y="-232"/>
      <point x="254" y="-214" type="curve" smooth="yes"/>
      <point x="405" y="124.097" type="line"/>
      <point x="57" y="795" type="line" smooth="yes"/>
      <point x="54" y="799.669"/>
      <point x="53" y="804.082"/>
      <point x="53" y="807.991" type="curve" smooth="yes"/>
      <point x="53" y="817.479"/>
      <point x="60" y="824"/>
      <point x="73" y="824" type="curve" smooth="yes"/>
      <point x="141" y="824" type="line" smooth="yes"/>
      <point x="164" y="824"/>
      <point x="182" y="816"/>
      <point x="193" y="795" type="curve" smooth="yes"/>
      <point x="464" y="255.035" type="line"/>
      <point x="706" y="794" type="line" smooth="yes"/>
      <point x="715" y="814"/>
      <point x="733" y="824"/>
      <point x="756" y="824" type="curve" smooth="yes"/>
      <point x="816" y="824" type="line" smooth="yes"/>
      <point x="829" y="824"/>
      <point x="837" y="817.23"/>
      <point x="837" y="807.073" type="curve" smooth="yes"/>
      <point x="837" y="803.155"/>
      <point x="836" y="798.732"/>
      <point x="834" y="794" type="curve" smooth="yes"/>
      <point x="378" y="-214" type="line"/>
      <point x="367" y="-234"/>
      <point x="351" y="-244"/>
      <point x="328" y="-244" type="curve" smooth="yes"/>
    </contour>
  </outline>
</glyph>
<glyph name="z" format="1">
  <advance width="828"/>
  <unicode hex="007A"/>
  <outline>
    <contour>
      <point x="93" y="0" type="line" smooth="yes"/>
      <point x="80" y="0"/>
      <point x="73" y="6.2041"/>
      <point x="73" y="14.9111" type="curve" smooth="yes"/>
      <point x="73" y="18.8984"/>
      <point x="75" y="23.4102"/>
      <point x="78" y="28.0918" type="curve" smooth="yes"/>
      <point x="554" y="726" type="line"/>
      <point x="136" y="726" type="line" smooth="yes"/>
      <point x="114" y="726"/>
      <point x="102" y="738.266"/>
      <point x="102" y="760" type="curve" smooth="yes"/>
      <point x="102" y="790" type="line" smooth="yes"/>
      <point x="102" y="811.738"/>
      <point x="114" y="824"/>
      <point x="136" y="824" type="curve" smooth="yes"/>
      <point x="712" y="824" type="line" smooth="yes"/>
      <point x="724" y="824"/>
      <point x="731" y="817.734"/>
      <point x="731" y="808.918" type="curve" smooth="yes"/>
      <point x="731" y="804.934"/>
      <point x="730" y="800.429"/>
      <point x="727" y="795.746" type="curve" smooth="yes"/>
      <point x="260" y="98" type="line"/>
      <point x="684" y="98" type="line" smooth="yes"/>
      <point x="705" y="98"/>
      <point x="718" y="85.7363"/>
      <point x="718" y="64" type="curve" smooth="yes"/>
      <point x="718" y="34" type="line" smooth="yes"/>
      <point x="718" y="12.2637"/>
      <point x="705" y="0"/>
      <point x="684" y="0" type="curve" smooth="yes"/>
    </contour>
  </outline>
</glyph>
<glyph name="bar" format="1">
  <advance width="451"/>
  <unicode hex="007C"/>
  <outline>
    <contour>
      <point x="294" y="1235.23" type="curve" smooth="yes"/>
      <point x="294" y="-119.693" type="line" smooth="yes"/>
      <point x="294" y="-145.127"/>
      <point x="283" y="-159"/>
      <point x="264" y="-159" type="curve" smooth="yes"/>
      <point x="213" y="-159" type="line" smooth="yes"/>
      <point x="194" y="-159"/>
      <point x="184" y="-145.127"/>
      <point x="184" y="-119.693" type="curve" smooth="yes"/>
      <point x="184" y="1235.23" type="line" smooth="yes"/>
      <point x="184" y="1260.66"/>
      <point x="194" y="1274.53"/>
      <point x="213" y="1274.53" type="curve" smooth="yes"/>
      <point x="264" y="1274.53" type="line" smooth="yes"/>
      <point x="283" y="1274.53"/>
      <point x="294" y="1260.66"/>
    </contour>
  </outline>
</glyph>
<glyph name="sterling" format="1">
  <advance width="826"/>
  <unicode hex="00A3"/>
  <outline>
    <contour>
      <point x="522" y="-22" type="curve" smooth="yes"/>
      <point x="402" y="-22"/>
      <point x="283" y="32"/>
      <point x="201" y="119" type="curve"/>
      <point x="185" y="88.8926"/>
      <point x="167" y="58.7852"/>
      <point x="146" y="27.7578" type="curve" smooth="yes"/>
      <point x="134" y="9.3584"/>
      <point x="116" y="-0.000976562"/>
      <point x="94" y="-0.000976562" type="curve" smooth="yes"/>
      <point x="19" y="-0.000976562" type="line" smooth="yes"/>
      <point x="7" y="-0.000976562"/>
      <point x="0" y="5.93652"/>
      <point x="0" y="14.2832" type="curve" smooth="yes"/>
      <point x="0" y="18.2529"/>
      <point x="1" y="22.7686"/>
      <point x="5" y="27.4492" type="curve" smooth="yes"/>
      <point x="116" y="184.033"/>
      <point x="158" y="313.452"/>
      <point x="158" y="424.999" type="curve" smooth="yes"/>
      <point x="158" y="471.999"/>
      <point x="150" y="519.999"/>
      <point x="139" y="567.999" type="curve"/>
      <point x="36" y="567.999" type="line" smooth="yes"/>
      <point x="14" y="567.999"/>
      <point x="2" y="580.263"/>
      <point x="2" y="601.999" type="curve" smooth="yes"/>
      <point x="2" y="631.999" type="line" smooth="yes"/>
      <point x="2" y="653.735"/>
      <point x="14" y="665.999"/>
      <point x="36" y="665.999" type="curve" smooth="yes"/>
      <point x="112" y="665.999" type="line"/>
      <point x="83" y="761.999"/>
      <point x="50" y="851.999"/>
      <point x="50" y="919.999" type="curve" smooth="yes"/>
      <point x="50" y="1164"/>
      <point x="243" y="1274"/>
      <point x="418" y="1274" type="curve" smooth="yes"/>
      <point x="539" y="1274"/>
      <point x="637" y="1216.57"/>
      <point x="689" y="1171.56" type="curve" smooth="yes"/>
      <point x="705" y="1158.21"/>
      <point x="707" y="1138.77"/>
      <point x="695" y="1122.28" type="curve" smooth="yes"/>
      <point x="673" y="1092.82" type="line" smooth="yes"/>
      <point x="660" y="1075.55"/>
      <point x="643" y="1073.32"/>
      <point x="626" y="1086.75" type="curve" smooth="yes"/>
      <point x="588" y="1117.81"/>
      <point x="517" y="1166"/>
      <point x="421" y="1166" type="curve" smooth="yes"/>
      <point x="304" y="1166"/>
      <point x="169" y="1089"/>
      <point x="169" y="923.999" type="curve" smooth="yes"/>
      <point x="169" y="855.999"/>
      <point x="202" y="763.999"/>
      <point x="231" y="665.999" type="curve"/>
      <point x="472" y="665.999" type="line" smooth="yes"/>
      <point x="493" y="665.999"/>
      <point x="506" y="653.735"/>
      <point x="506" y="631.999" type="curve" smooth="yes"/>
      <point x="506" y="601.999" type="line" smooth="yes"/>
      <point x="506" y="580.263"/>
      <point x="493" y="567.999"/>
      <point x="472" y="567.999" type="curve" smooth="yes"/>
      <point x="258" y="567.999" type="line"/>
      <point x="269" y="518.999"/>
      <point x="277" y="469.999"/>
      <point x="277" y="422.999" type="curve" smooth="yes"/>
      <point x="277" y="360.999"/>
      <point x="269" y="295.999"/>
      <point x="246" y="226.999" type="curve"/>
      <point x="300" y="145.999"/>
      <point x="407" y="84.999"/>
      <point x="519" y="84.999" type="curve" smooth="yes"/>
      <point x="610" y="84.999"/>
      <point x="688" y="133.299"/>
      <point x="702" y="235.083" type="curve" smooth="yes"/>
      <point x="706" y="258.938"/>
      <point x="717" y="269"/>
      <point x="741" y="269" type="curve" smooth="yes"/>
      <point x="795" y="269" type="line" smooth="yes"/>
      <point x="814" y="269"/>
      <point x="826" y="257.104"/>
      <point x="826" y="238.84" type="curve" smooth="yes"/>
      <point x="826" y="55.5811"/>
      <point x="658" y="-22"/>
    </contour>
  </outline>
</glyph>
<glyph name="dieresis" format="1">
  <advance width="508"/>
  <unicode hex="00A8"/>
  <outline>
    <contour>
      <point x="90" y="-16" type="curve" smooth="yes"/>
      <point x="31" y="-16"/>
      <point x="0" y="28"/>
      <point x="0" y="72" type="curve" smooth="yes"/>
      <point x="0" y="115"/>
      <point x="31" y="160"/>
      <point x="90" y="160" type="curve" smooth="yes"/>
      <point x="147" y="160"/>
      <point x="178" y="114"/>
      <point x="178" y="72" type="curve" smooth="yes"/>
      <point x="178" y="28"/>
      <point x="147" y="-16"/>
    </contour>
    <contour>
      <point x="420" y="-16" type="curve" smooth="yes"/>
      <point x="361" y="-16"/>
      <point x="330" y="28"/>
      <point x="330" y="72" type="curve" smooth="yes"/>
      <point x="330" y="115"/>
      <point x="361" y="160"/>
      <point x="420" y="160" type="curve" smooth="yes"/>
      <point x="477" y="160"/>
      <point x="508" y="114"/>
      <point x="508" y="72" type="curve" smooth="yes"/>
      <point x="508" y="28"/>
      <point x="477" y="-16"/>
    </contour>
  </outline>
</glyph>
<glyph name="copyright" format="1">
  <advance width="1311"/>
  <unicode hex="00A9"/>
  <outline>
    <contour>
      <point x="690" y="219" type="curve" smooth="yes"/>
      <point x="429" y="219"/>
      <point x="268" y="389"/>
      <point x="268" y="627" type="curve" smooth="yes"/>
      <point x="268" y="869"/>
      <point x="442" y="1032"/>
      <point x="686" y="1032" type="curve" smooth="yes"/>
      <point x="772" y="1032"/>
      <point x="840" y="1010"/>
      <point x="877" y="993" type="curve" smooth="yes"/>
      <point x="893" y="985"/>
      <point x="904" y="968"/>
      <point x="904" y="949" type="curve" smooth="yes"/>
      <point x="904" y="921" type="line" smooth="yes"/>
      <point x="904" y="902"/>
      <point x="893" y="895"/>
      <point x="876" y="902" type="curve" smooth="yes"/>
      <point x="842" y="918"/>
      <point x="779" y="943"/>
      <point x="689" y="943" type="curve" smooth="yes"/>
      <point x="483" y="943"/>
      <point x="369" y="788"/>
      <point x="369" y="627" type="curve" smooth="yes"/>
      <point x="369" y="457"/>
      <point x="473" y="309"/>
      <point x="683" y="309" type="curve" smooth="yes"/>
      <point x="768" y="309"/>
      <point x="838" y="336"/>
      <point x="877" y="355" type="curve" smooth="yes"/>
      <point x="893" y="363"/>
      <point x="904" y="355"/>
      <point x="904" y="337" type="curve" smooth="yes"/>
      <point x="904" y="305" type="line" smooth="yes"/>
      <point x="904" y="285"/>
      <point x="894" y="269"/>
      <point x="877" y="260" type="curve" smooth="yes"/>
      <point x="835" y="240"/>
      <point x="772" y="219"/>
    </contour>
    <contour>
      <point x="654" y="52" type="curve" smooth="yes"/>
      <point x="917" y="52"/>
      <point x="1206" y="232"/>
      <point x="1206" y="618" type="curve" smooth="yes"/>
      <point x="1206" y="1008"/>
      <point x="946" y="1189"/>
      <point x="654" y="1189" type="curve" smooth="yes"/>
      <point x="360" y="1189"/>
      <point x="105" y="1008"/>
      <point x="105" y="619" type="curve" smooth="yes"/>
      <point x="105" y="231"/>
      <point x="374" y="52"/>
    </contour>
    <contour>
      <point x="655" y="-34" type="curve" smooth="yes"/>
      <point x="320" y="-34"/>
      <point x="0" y="182"/>
      <point x="0" y="619" type="curve" smooth="yes"/>
      <point x="0" y="1058"/>
      <point x="320" y="1274"/>
      <point x="654" y="1274" type="curve" smooth="yes"/>
      <point x="990" y="1274"/>
      <point x="1311" y="1058"/>
      <point x="1311" y="623" type="curve" smooth="yes"/>
      <point x="1311" y="182"/>
      <point x="990" y="-34"/>
    </contour>
  </outline>
</glyph>
<glyph name="guillemotleft" format="1">
  <advance width="642"/>
  <unicode hex="00AB"/>
  <outline>
    <contour>
      <point x="324" y="197" type="curve" smooth="yes"/>
      <point x="314" y="197"/>
      <point x="305" y="200.604"/>
      <point x="300" y="205.334" type="curve" smooth="yes"/>
      <point x="50" y="418" type="line"/>
      <point x="16" y="440"/>
      <point x="0" y="469"/>
      <point x="0" y="497" type="curve" smooth="yes"/>
      <point x="0" y="526"/>
      <point x="17" y="555"/>
      <point x="50" y="577" type="curve"/>
      <point x="300" y="789.666" type="line" smooth="yes"/>
      <point x="305" y="794.394"/>
      <point x="314" y="798"/>
      <point x="324" y="798" type="curve" smooth="yes"/>
      <point x="340" y="798"/>
      <point x="351" y="787"/>
      <point x="351" y="774" type="curve" smooth="yes"/>
      <point x="351" y="766"/>
      <point x="344" y="758"/>
      <point x="335" y="747" type="curve"/>
      <point x="164" y="497" type="line"/>
      <point x="335" y="248" type="line"/>
      <point x="344" y="237"/>
      <point x="351" y="229"/>
      <point x="351" y="221" type="curve" smooth="yes"/>
      <point x="351" y="208"/>
      <point x="340" y="197"/>
    </contour>
    <contour>
      <point x="615" y="197" type="curve" smooth="yes"/>
      <point x="605" y="197"/>
      <point x="596" y="200.604"/>
      <point x="591" y="205.334" type="curve" smooth="yes"/>
      <point x="341" y="418" type="line"/>
      <point x="307" y="440"/>
      <point x="291" y="469"/>
      <point x="291" y="497" type="curve" smooth="yes"/>
      <point x="291" y="526"/>
      <point x="308" y="555"/>
      <point x="341" y="577" type="curve"/>
      <point x="591" y="789.666" type="line" smooth="yes"/>
      <point x="596" y="794.394"/>
      <point x="605" y="798"/>
      <point x="615" y="798" type="curve" smooth="yes"/>
      <point x="631" y="798"/>
      <point x="642" y="787"/>
      <point x="642" y="774" type="curve" smooth="yes"/>
      <point x="642" y="766"/>
      <point x="635" y="758"/>
      <point x="626" y="747" type="curve"/>
      <point x="455" y="497" type="line"/>
      <point x="626" y="248" type="line"/>
      <point x="635" y="237"/>
      <point x="642" y="229"/>
      <point x="642" y="221" type="curve" smooth="yes"/>
      <point x="642" y="208"/>
      <point x="631" y="197"/>
    </contour>
  </outline>
</glyph>
<glyph name="acute" format="1">
  <advance width="296"/>
  <unicode hex="00B4"/>
  <outline>
    <contour>
      <point x="18" y="86" type="curve" smooth="yes"/>
      <point x="8" y="86"/>
      <point x="0" y="94"/>
      <point x="0" y="106" type="curve" smooth="yes"/>
      <point x="0" y="110"/>
      <point x="1" y="115"/>
      <point x="4" y="121" type="curve" smooth="yes"/>
      <point x="171" y="441" type="line" smooth="yes"/>
      <point x="186" y="469"/>
      <point x="209" y="481"/>
      <point x="231" y="481" type="curve" smooth="yes"/>
      <point x="264" y="481"/>
      <point x="296" y="454"/>
      <point x="296" y="422" type="curve" smooth="yes"/>
      <point x="296" y="409"/>
      <point x="291" y="395"/>
      <point x="279" y="381" type="curve" smooth="yes"/>
      <point x="39" y="98" type="line" smooth="yes"/>
      <point x="32" y="90"/>
      <point x="25" y="86"/>
    </contour>
  </outline>
</glyph>
<glyph name="cedilla" format="1">
  <advance width="221"/>
  <unicode hex="00B8"/>
  <outline>
    <contour>
      <point x="221" y="-324.206" type="curve" smooth="yes"/>
      <point x="221" y="-342.336"/>
      <point x="211" y="-354.943"/>
      <point x="195" y="-354.943" type="curve" smooth="yes"/>
      <point x="194" y="-354.943"/>
      <point x="193" y="-354.885"/>
      <point x="192" y="-354.766" type="curve" smooth="yes"/>
      <point x="91" y="-344.182"/>
      <point x="0" y="-267.297"/>
      <point x="0" y="-193" type="curve" smooth="yes"/>
      <point x="0" y="-145"/>
      <point x="38" y="-98"/>
      <point x="136" y="-70" type="curve"/>
      <point x="136" y="-27.5" type="line" smooth="yes"/>
      <point x="136" y="-9.2793"/>
      <point x="146" y="1"/>
      <point x="164" y="1" type="curve" smooth="yes"/>
      <point x="166" y="1" type="line" smooth="yes"/>
      <point x="184" y="1"/>
      <point x="195" y="-9.2793"/>
      <point x="195" y="-27.5" type="curve" smooth="yes"/>
      <point x="195" y="-72.7666" type="line" smooth="yes"/>
      <point x="195" y="-97.6621"/>
      <point x="185" y="-109.886"/>
      <point x="161" y="-116.409" type="curve" smooth="yes"/>
      <point x="115" y="-128.971"/>
      <point x="97" y="-152.785"/>
      <point x="97" y="-180" type="curve" smooth="yes"/>
      <point x="97" y="-223.568"/>
      <point x="145" y="-275.043"/>
      <point x="203" y="-299.979" type="curve" smooth="yes"/>
      <point x="215" y="-305.384"/>
      <point x="221" y="-312.75"/>
    </contour>
  </outline>
</glyph>
<glyph name="guillemotright" format="1">
  <advance width="642"/>
  <unicode hex="00BB"/>
  <outline>
    <contour>
      <point x="318" y="798" type="curve" smooth="yes"/>
      <point x="327" y="798"/>
      <point x="336" y="794.396"/>
      <point x="341" y="789.666" type="curve" smooth="yes"/>
      <point x="592" y="577" type="line"/>
      <point x="626" y="555"/>
      <point x="642" y="526"/>
      <point x="642" y="498" type="curve" smooth="yes"/>
      <point x="642" y="469"/>
      <point x="625" y="440"/>
      <point x="592" y="418" type="curve"/>
      <point x="341" y="205.334" type="line" smooth="yes"/>
      <point x="336" y="200.606"/>
      <point x="327" y="197"/>
      <point x="318" y="197" type="curve" smooth="yes"/>
      <point x="302" y="197"/>
      <point x="291" y="208"/>
      <point x="291" y="221" type="curve" smooth="yes"/>
      <point x="291" y="229"/>
      <point x="298" y="237"/>
      <point x="307" y="248" type="curve"/>
      <point x="478" y="498" type="line"/>
      <point x="307" y="747" type="line"/>
      <point x="298" y="758"/>
      <point x="291" y="766"/>
      <point x="291" y="774" type="curve" smooth="yes"/>
      <point x="291" y="787"/>
      <point x="302" y="798"/>
    </contour>
    <contour>
      <point x="27" y="798" type="curve" smooth="yes"/>
      <point x="36" y="798"/>
      <point x="45" y="794.396"/>
      <point x="50" y="789.666" type="curve" smooth="yes"/>
      <point x="301" y="577" type="line"/>
      <point x="335" y="555"/>
      <point x="351" y="526"/>
      <point x="351" y="498" type="curve" smooth="yes"/>
      <point x="351" y="469"/>
      <point x="334" y="440"/>
      <point x="301" y="418" type="curve"/>
      <point x="50" y="205.334" type="line" smooth="yes"/>
      <point x="45" y="200.606"/>
      <point x="36" y="197"/>
      <point x="27" y="197" type="curve" smooth="yes"/>
      <point x="11" y="197"/>
      <point x="0" y="208"/>
      <point x="0" y="221" type="curve" smooth="yes"/>
      <point x="0" y="229"/>
      <point x="7" y="237"/>
      <point x="16" y="248" type="curve"/>
      <point x="187" y="498" type="line"/>
      <point x="16" y="747" type="line"/>
      <point x="7" y="758"/>
      <point x="0" y="766"/>
      <point x="0" y="774" type="curve" smooth="yes"/>
      <point x="0" y="787"/>
      <point x="11" y="798"/>
    </contour>
  </outline>
</glyph>
<glyph name="questiondown" format="1">
  <advance width="681"/>
  <unicode hex="00BF"/>
  <outline>
    <contour>
      <point x="511" y="843.999" type="curve" smooth="yes"/>
      <point x="570" y="843.999"/>
      <point x="601" y="799.999"/>
      <point x="601" y="755.999" type="curve" smooth="yes"/>
      <point x="601" y="712.999"/>
      <point x="570" y="667.999"/>
      <point x="511" y="667.999" type="curve" smooth="yes"/>
      <point x="454" y="667.999"/>
      <point x="423" y="713.999"/>
      <point x="423" y="755.999" type="curve" smooth="yes"/>
      <point x="423" y="799.999"/>
      <point x="454" y="843.999"/>
    </contour>
    <contour>
      <point x="354" y="-446" type="curve" smooth="yes"/>
      <point x="163" y="-446"/>
      <point x="0" y="-334.001"/>
      <point x="0" y="-119.001" type="curve" smooth="yes"/>
      <point x="0" y="67.3623"/>
      <point x="148" y="191.544"/>
      <point x="407" y="455.646" type="curve" smooth="yes"/>
      <point x="423" y="472.17"/>
      <point x="442" y="479.999"/>
      <point x="465" y="479.999" type="curve" smooth="yes"/>
      <point x="509" y="479.999" type="line" smooth="yes"/>
      <point x="526" y="479.999"/>
      <point x="531" y="467.382"/>
      <point x="520" y="454.765" type="curve" smooth="yes"/>
      <point x="205" y="104.816"/>
      <point x="129" y="15.6533"/>
      <point x="129" y="-126.001" type="curve" smooth="yes"/>
      <point x="129" y="-273.001"/>
      <point x="244" y="-339.001"/>
      <point x="362" y="-339.001" type="curve" smooth="yes"/>
      <point x="455" y="-339.001"/>
      <point x="540" y="-305.692"/>
      <point x="611" y="-259.527" type="curve" smooth="yes"/>
      <point x="629" y="-247.406"/>
      <point x="645" y="-251.173"/>
      <point x="656" y="-270.308" type="curve" smooth="yes"/>
      <point x="676" y="-304.654" type="line" smooth="yes"/>
      <point x="679" y="-310.974"/>
      <point x="681" y="-317.45"/>
      <point x="681" y="-323.685" type="curve" smooth="yes"/>
      <point x="681" y="-334.771"/>
      <point x="676" y="-345.091"/>
      <point x="665" y="-352.402" type="curve" smooth="yes"/>
      <point x="595" y="-400.062"/>
      <point x="474" y="-446"/>
    </contour>
  </outline>
</glyph>
<glyph name="Agrave" format="1">
  <advance width="1006"/>
  <unicode hex="00C0"/>
  <outline>
    <contour>
      <point x="23" y="60" type="line" smooth="yes"/>
      <point x="8" y="60"/>
      <point x="0" y="67.459"/>
      <point x="0" y="78.5732" type="curve" smooth="yes"/>
      <point x="0" y="82.3281"/>
      <point x="1" y="86.5"/>
      <point x="3" y="90.9424" type="curve" smooth="yes"/>
      <point x="479" y="1137.54" type="line" smooth="yes"/>
      <point x="483" y="1145.38"/>
      <point x="488" y="1149.31"/>
      <point x="494" y="1149.31" type="curve" smooth="yes"/>
      <point x="499" y="1149.31"/>
      <point x="504" y="1145.46"/>
      <point x="508" y="1137.74" type="curve" smooth="yes"/>
      <point x="1003" y="90.7354" type="line" smooth="yes"/>
      <point x="1005" y="86.2441"/>
      <point x="1006" y="82.0215"/>
      <point x="1006" y="78.2295" type="curve" smooth="yes"/>
      <point x="1006" y="67.3428"/>
      <point x="998" y="60"/>
      <point x="984" y="60" type="curve" smooth="yes"/>
      <point x="866" y="60" type="line" smooth="yes"/>
      <point x="843" y="60"/>
      <point x="828" y="70.0332"/>
      <point x="818" y="90.9424" type="curve" smooth="yes"/>
      <point x="700" y="350" type="line"/>
      <point x="302" y="350" type="line"/>
      <point x="194" y="91.3779" type="line" smooth="yes"/>
      <point x="185" y="70.2236"/>
      <point x="169" y="60"/>
      <point x="147" y="60" type="curve" smooth="yes"/>
    </contour>
    <contour>
      <point x="504" y="1377.8" type="curve" smooth="yes"/>
      <point x="491" y="1377.8"/>
      <point x="477" y="1383.8"/>
      <point x="464" y="1397.8" type="curve" smooth="yes"/>
      <point x="205" y="1675.8" type="line" smooth="yes"/>
      <point x="171" y="1712.8"/>
      <point x="156" y="1749.8"/>
      <point x="156" y="1781.8" type="curve" smooth="yes"/>
      <point x="156" y="1838.8"/>
      <point x="200" y="1880.8"/>
      <point x="251" y="1880.8" type="curve" smooth="yes"/>
      <point x="293" y="1880.8"/>
      <point x="342" y="1851.8"/>
      <point x="376" y="1779.8" type="curve" smooth="yes"/>
      <point x="533" y="1448.8" type="line" smooth="yes"/>
      <point x="538" y="1437.8"/>
      <point x="540" y="1426.8"/>
      <point x="540" y="1417.8" type="curve" smooth="yes"/>
      <point x="540" y="1393.8"/>
      <point x="524" y="1377.8"/>
    </contour>
    <contour>
      <point x="307" y="414" type="line"/>
      <point x="697" y="414" type="line"/>
      <point x="493" y="897.525" type="line"/>
    </contour>
  </outline>
</glyph>
<glyph name="Aacute" format="1">
  <advance width="1006"/>
  <unicode hex="00C1"/>
  <outline>
    <contour>
      <point x="23" y="60" type="line" smooth="yes"/>
      <point x="8" y="60"/>
      <point x="0" y="67.459"/>
      <point x="0" y="78.5732" type="curve" smooth="yes"/>
      <point x="0" y="82.3281"/>
      <point x="1" y="86.5"/>
      <point x="3" y="90.9424" type="curve" smooth="yes"/>
      <point x="479" y="1137.54" type="line" smooth="yes"/>
      <point x="483" y="1145.38"/>
      <point x="488" y="1149.31"/>
      <point x="494" y="1149.31" type="curve" smooth="yes"/>
      <point x="499" y="1149.31"/>
      <point x="504" y="1145.46"/>
      <point x="508" y="1137.74" type="curve" smooth="yes"/>
      <point x="1003" y="90.7354" type="line" smooth="yes"/>
      <point x="1005" y="86.2441"/>
      <point x="1006" y="82.0215"/>
      <point x="1006" y="78.2295" type="curve" smooth="yes"/>
      <point x="1006" y="67.3428"/>
      <point x="998" y="60"/>
      <point x="984" y="60" type="curve" smooth="yes"/>
      <point x="866" y="60" type="line" smooth="yes"/>
      <point x="843" y="60"/>
      <point x="828" y="70.0332"/>
      <point x="818" y="90.9424" type="curve" smooth="yes"/>
      <point x="700" y="350" type="line"/>
      <point x="302" y="350" type="line"/>
      <point x="194" y="91.3779" type="line" smooth="yes"/>
      <point x="185" y="70.2236"/>
      <point x="169" y="60"/>
      <point x="147" y="60" type="curve" smooth="yes"/>
    </contour>
    <contour>
      <point x="481" y="1377.4" type="curve" smooth="yes"/>
      <point x="461" y="1377.4"/>
      <point x="445" y="1393.49"/>
      <point x="445" y="1417.78" type="curve" smooth="yes"/>
      <point x="445" y="1427.07"/>
      <point x="447" y="1437.55"/>
      <point x="453" y="1448.8" type="curve" smooth="yes"/>
      <point x="610" y="1779.8" type="line" smooth="yes"/>
      <point x="644" y="1852.23"/>
      <point x="692" y="1880.82"/>
      <point x="735" y="1880.82" type="curve" smooth="yes"/>
      <point x="786" y="1880.82"/>
      <point x="829" y="1838.97"/>
      <point x="829" y="1782.29" type="curve" smooth="yes"/>
      <point x="829" y="1749.95"/>
      <point x="815" y="1712.78"/>
      <point x="781" y="1675.8" type="curve" smooth="yes"/>
      <point x="522" y="1397.8" type="line" smooth="yes"/>
      <point x="508" y="1383.57"/>
      <point x="494" y="1377.4"/>
    </contour>
    <contour>
      <point x="307" y="414" type="line"/>
      <point x="697" y="414" type="line"/>
      <point x="493" y="897.525" type="line"/>
    </contour>
  </outline>
</glyph>
<glyph name="Ccedilla" format="1">
  <advance width="977"/>
  <unicode hex="00C7"/>
  <outline>
    <contour>
      <point x="615" y="26.999" type="curve" smooth="yes"/>
      <point x="256" y="26.999"/>
      <point x="0" y="253.115"/>
      <point x="0" y="622" type="curve" smooth="yes"/>
      <point x="0" y="991.697"/>
      <point x="256" y="1215"/>
      <point x="615" y="1215" type="curve" smooth="yes"/>
      <point x="749" y="1215"/>
      <point x="873" y="1176.5"/>
      <point x="945" y="1148.67" type="curve" smooth="yes"/>
      <point x="966" y="1140.65"/>
      <point x="977" y="1124.87"/>
      <point x="977" y="1102.72" type="curve" smooth="yes"/>
      <point x="977" y="1027.94" type="line" smooth="yes"/>
      <point x="977" y="1008.41"/>
      <point x="964" y="1000.07"/>
      <point x="946" y="1008.08" type="curve" smooth="yes"/>
      <point x="852" y="1050.22"/>
      <point x="749" y="1074"/>
      <point x="646" y="1074" type="curve" smooth="yes"/>
      <point x="415" y="1074"/>
      <point x="190" y="942.817"/>
      <point x="190" y="622" type="curve" smooth="yes"/>
      <point x="190" y="302.497"/>
      <point x="414" y="168"/>
      <point x="646" y="168" type="curve" smooth="yes"/>
      <point x="748" y="168"/>
      <point x="853" y="192.398"/>
      <point x="946" y="233.958" type="curve" smooth="yes"/>
      <point x="964" y="241.946"/>
      <point x="977" y="233.605"/>
      <point x="977" y="214.089" type="curve" smooth="yes"/>
      <point x="977" y="139.295" type="line" smooth="yes"/>
      <point x="977" y="117.132"/>
      <point x="966" y="101.353"/>
      <point x="945" y="93.3145" type="curve" smooth="yes"/>
      <point x="873" y="65.1934"/>
      <point x="749" y="26.999"/>
    </contour>
    <contour>
      <point x="617" y="-365.233" type="curve" smooth="yes"/>
      <point x="504" y="-353.41"/>
      <point x="424" y="-284.121"/>
      <point x="424" y="-214.001" type="curve" smooth="yes"/>
      <point x="424" y="-163.001"/>
      <point x="466" y="-111.001"/>
      <point x="570" y="-81.001" type="curve"/>
      <point x="570" y="-44.001" type="line" smooth="yes"/>
      <point x="570" y="-22.2646"/>
      <point x="583" y="-10.001"/>
      <point x="604" y="-10.001" type="curve" smooth="yes"/>
      <point x="625" y="-10.001" type="line" smooth="yes"/>
      <point x="647" y="-10.001"/>
      <point x="659" y="-22.2646"/>
      <point x="659" y="-44.001" type="curve" smooth="yes"/>
      <point x="659" y="-94.3066" type="line" smooth="yes"/>
      <point x="659" y="-118.747"/>
      <point x="650" y="-131.189"/>
      <point x="626" y="-137.072" type="curve" smooth="yes"/>
      <point x="580" y="-148.531"/>
      <point x="561" y="-168.747"/>
      <point x="561" y="-191.001" type="curve" smooth="yes"/>
      <point x="561" y="-224.517"/>
      <point x="604" y="-263.648"/>
      <point x="658" y="-287.22" type="curve" smooth="yes"/>
      <point x="685" y="-299.518"/>
      <point x="678" y="-318.991"/>
      <point x="666" y="-339.911" type="curve" smooth="yes"/>
      <point x="657" y="-356.287"/>
      <point x="641" y="-365.544"/>
      <point x="622" y="-365.544" type="curve" smooth="yes"/>
      <point x="620" y="-365.544"/>
      <point x="618" y="-365.441"/>
    </contour>
  </outline>
</glyph>
<glyph name="Egrave" format="1">
  <advance width="632"/>
  <unicode hex="00C8"/>
  <outline>
    <contour>
      <point x="53" y="60" type="line" smooth="yes"/>
      <point x="31" y="60"/>
      <point x="19" y="72.2637"/>
      <point x="19" y="94" type="curve" smooth="yes"/>
      <point x="19" y="1147" type="line" smooth="yes"/>
      <point x="19" y="1168.74"/>
      <point x="31" y="1181"/>
      <point x="53" y="1181" type="curve" smooth="yes"/>
      <point x="588" y="1181" type="line" smooth="yes"/>
      <point x="609" y="1181"/>
      <point x="622" y="1168.74"/>
      <point x="622" y="1147" type="curve" smooth="yes"/>
      <point x="622" y="1079" type="line" smooth="yes"/>
      <point x="622" y="1057.26"/>
      <point x="609" y="1045"/>
      <point x="588" y="1045" type="curve" smooth="yes"/>
      <point x="193" y="1045" type="line"/>
      <point x="193" y="704" type="line"/>
      <point x="522" y="704" type="line" smooth="yes"/>
      <point x="543" y="704"/>
      <point x="556" y="691.736"/>
      <point x="556" y="670" type="curve" smooth="yes"/>
      <point x="556" y="606" type="line" smooth="yes"/>
      <point x="556" y="584.264"/>
      <point x="543" y="572"/>
      <point x="522" y="572" type="curve" smooth="yes"/>
      <point x="191" y="572" type="line"/>
      <point x="191" y="206" type="line"/>
      <point x="598" y="206" type="line" smooth="yes"/>
      <point x="619" y="206"/>
      <point x="632" y="193.736"/>
      <point x="632" y="172" type="curve" smooth="yes"/>
      <point x="632" y="94" type="line" smooth="yes"/>
      <point x="632" y="72.2637"/>
      <point x="619" y="60"/>
      <point x="598" y="60" type="curve" smooth="yes"/>
    </contour>
    <contour>
      <point x="348" y="1377.8" type="curve" smooth="yes"/>
      <point x="335" y="1377.8"/>
      <point x="321" y="1383.8"/>
      <point x="308" y="1397.8" type="curve" smooth="yes"/>
      <point x="49" y="1675.8" type="line" smooth="yes"/>
      <point x="15" y="1712.8"/>
      <point x="0" y="1749.8"/>
      <point x="0" y="1781.8" type="curve" smooth="yes"/>
      <point x="0" y="1838.8"/>
      <point x="44" y="1880.8"/>
      <point x="95" y="1880.8" type="curve" smooth="yes"/>
      <point x="137" y="1880.8"/>
      <point x="186" y="1851.8"/>
      <point x="220" y="1779.8" type="curve" smooth="yes"/>
      <point x="377" y="1448.8" type="line" smooth="yes"/>
      <point x="382" y="1437.8"/>
      <point x="384" y="1426.8"/>
      <point x="384" y="1417.8" type="curve" smooth="yes"/>
      <point x="384" y="1393.8"/>
      <point x="368" y="1377.8"/>
    </contour>
  </outline>
</glyph>
<glyph name="Eacute" format="1">
  <advance width="654"/>
  <unicode hex="00C9"/>
  <outline>
    <contour>
      <point x="34" y="60" type="line" smooth="yes"/>
      <point x="12" y="60"/>
      <point x="0" y="72.2637"/>
      <point x="0" y="94" type="curve" smooth="yes"/>
      <point x="0" y="1147" type="line" smooth="yes"/>
      <point x="0" y="1168.74"/>
      <point x="12" y="1181"/>
      <point x="34" y="1181" type="curve" smooth="yes"/>
      <point x="569" y="1181" type="line" smooth="yes"/>
      <point x="590" y="1181"/>
      <point x="603" y="1168.74"/>
      <point x="603" y="1147" type="curve" smooth="yes"/>
      <point x="603" y="1079" type="line" smooth="yes"/>
      <point x="603" y="1057.26"/>
      <point x="590" y="1045"/>
      <point x="569" y="1045" type="curve" smooth="yes"/>
      <point x="174" y="1045" type="line"/>
      <point x="174" y="704" type="line"/>
      <point x="503" y="704" type="line" smooth="yes"/>
      <point x="524" y="704"/>
      <point x="537" y="691.736"/>
      <point x="537" y="670" type="curve" smooth="yes"/>
      <point x="537" y="606" type="line" smooth="yes"/>
      <point x="537" y="584.264"/>
      <point x="524" y="572"/>
      <point x="503" y="572" type="curve" smooth="yes"/>
      <point x="172" y="572" type="line"/>
      <point x="172" y="206" type="line"/>
      <point x="579" y="206" type="line" smooth="yes"/>
      <point x="600" y="206"/>
      <point x="613" y="193.736"/>
      <point x="613" y="172" type="curve" smooth="yes"/>
      <point x="613" y="94" type="line" smooth="yes"/>
      <point x="613" y="72.2637"/>
      <point x="600" y="60"/>
      <point x="579" y="60" type="curve" smooth="yes"/>
    </contour>
    <contour>
      <point x="306" y="1377.4" type="curve" smooth="yes"/>
      <point x="286" y="1377.4"/>
      <point x="270" y="1393.49"/>
      <point x="270" y="1417.78" type="curve" smooth="yes"/>
      <point x="270" y="1427.07"/>
      <point x="272" y="1437.55"/>
      <point x="278" y="1448.8" type="curve" smooth="yes"/>
      <point x="435" y="1779.8" type="line" smooth="yes"/>
      <point x="469" y="1852.23"/>
      <point x="517" y="1880.82"/>
      <point x="560" y="1880.82" type="curve" smooth="yes"/>
      <point x="611" y="1880.82"/>
      <point x="654" y="1838.97"/>
      <point x="654" y="1782.29" type="curve" smooth="yes"/>
      <point x="654" y="1749.95"/>
      <point x="640" y="1712.78"/>
      <point x="606" y="1675.8" type="curve" smooth="yes"/>
      <point x="347" y="1397.8" type="line" smooth="yes"/>
      <point x="333" y="1383.57"/>
      <point x="319" y="1377.4"/>
    </contour>
  </outline>
</glyph>
<glyph name="Oslash" format="1">
  <advance width="1506"/>
  <unicode hex="00D8"/>
  <outline>
    <contour>
      <point x="1022" y="1096.2" type="line"/>
      <point x="938" y="1144.53"/>
      <point x="839" y="1168"/>
      <point x="735" y="1168" type="curve" smooth="yes"/>
      <point x="452" y="1168"/>
      <point x="206" y="994.001"/>
      <point x="206" y="619.001" type="curve" smooth="yes"/>
      <point x="206" y="398.353"/>
      <point x="297" y="247.665"/>
      <point x="426" y="161.188" type="curve"/>
    </contour>
    <contour>
      <point x="1268" y="618" type="curve" smooth="yes"/>
      <point x="1268" y="819.009"/>
      <point x="1196" y="962.288"/>
      <point x="1086" y="1052.11" type="curve"/>
      <point x="494" y="123.185" type="line"/>
      <point x="568" y="88.7793"/>
      <point x="651" y="72"/>
      <point x="735" y="72" type="curve" smooth="yes"/>
      <point x="990" y="72"/>
      <point x="1268" y="246"/>
    </contour>
    <contour>
      <point x="354" y="-71.5596" type="curve" smooth="yes"/>
      <point x="331" y="-71.5596"/>
      <point x="309" y="-52.8789"/>
      <point x="309" y="-31.5898" type="curve" smooth="yes"/>
      <point x="309" y="-25.5898"/>
      <point x="311" y="-19.3828"/>
      <point x="315" y="-13.3281" type="curve" smooth="yes"/>
      <point x="366" y="66.4062" type="line"/>
      <point x="197" y="169.933"/>
      <point x="78" y="353.758"/>
      <point x="78" y="619.001" type="curve" smooth="yes"/>
      <point x="78" y="1058"/>
      <point x="401" y="1274"/>
      <point x="735" y="1274" type="curve" smooth="yes"/>
      <point x="857" y="1274"/>
      <point x="977" y="1245.7"/>
      <point x="1081" y="1188.96" type="curve"/>
      <point x="1143" y="1286.33" type="line" smooth="yes"/>
      <point x="1151" y="1297.75"/>
      <point x="1160" y="1303.56"/>
      <point x="1170" y="1303.56" type="curve" smooth="yes"/>
      <point x="1193" y="1303.56"/>
      <point x="1215" y="1284.88"/>
      <point x="1215" y="1263.59" type="curve" smooth="yes"/>
      <point x="1215" y="1257.59"/>
      <point x="1213" y="1251.38"/>
      <point x="1209" y="1245.33" type="curve" smooth="yes"/>
      <point x="1147" y="1147.56" type="line"/>
      <point x="1295" y="1040.72"/>
      <point x="1397" y="866.044"/>
      <point x="1397" y="623.001" type="curve" smooth="yes"/>
      <point x="1397" y="182.001"/>
      <point x="1072" y="-33.999"/>
      <point x="737" y="-33.999" type="curve" smooth="yes"/>
      <point x="632" y="-33.999"/>
      <point x="528" y="-12.7832"/>
      <point x="434" y="29.8027" type="curve"/>
      <point x="381" y="-54.3291" type="line" smooth="yes"/>
      <point x="373" y="-65.749"/>
      <point x="364" y="-71.5596"/>
    </contour>
  </outline>
</glyph>
<glyph name="Thorn" format="1">
  <advance width="796"/>
  <unicode hex="00DE"/>
  <outline>
    <contour>
      <point x="34" y="0" type="line" smooth="yes"/>
      <point x="12" y="0"/>
      <point x="0" y="12.2637"/>
      <point x="0" y="34" type="curve" smooth="yes"/>
      <point x="0" y="1207" type="line" smooth="yes"/>
      <point x="0" y="1228.74"/>
      <point x="12" y="1241"/>
      <point x="34" y="1241" type="curve" smooth="yes"/>
      <point x="94" y="1241" type="line" smooth="yes"/>
      <point x="115" y="1241"/>
      <point x="128" y="1228.74"/>
      <point x="128" y="1207" type="curve" smooth="yes"/>
      <point x="128" y="1007" type="line"/>
      <point x="321" y="1007" type="line" smooth="yes"/>
      <point x="624" y="1007"/>
      <point x="796" y="893"/>
      <point x="796" y="653" type="curve" smooth="yes"/>
      <point x="796" y="372"/>
      <point x="598" y="291"/>
      <point x="317" y="291" type="curve" smooth="yes"/>
      <point x="128" y="291" type="line"/>
      <point x="128" y="34" type="line" smooth="yes"/>
      <point x="128" y="12.2637"/>
      <point x="115" y="0"/>
      <point x="94" y="0" type="curve" smooth="yes"/>
    </contour>
    <contour>
      <point x="128" y="393" type="line"/>
      <point x="331" y="393" type="line" smooth="yes"/>
      <point x="537" y="393"/>
      <point x="668" y="457"/>
      <point x="668" y="648" type="curve" smooth="yes"/>
      <point x="668" y="798"/>
      <point x="579" y="905"/>
      <point x="326" y="905" type="curve" smooth="yes"/>
      <point x="128" y="905" type="line"/>
    </contour>
  </outline>
</glyph>
<glyph name="ccedilla" format="1">
  <advance width="697"/>
  <unicode hex="00E7"/>
  <outline>
    <contour>
      <point x="126" y="414" type="curve" smooth="yes"/>
      <point x="126" y="233.566"/>
      <point x="226" y="80.9746"/>
      <point x="459" y="80.9746" type="curve" smooth="yes"/>
      <point x="556" y="80.9746"/>
      <point x="624" y="110.578"/>
      <point x="666" y="130.527" type="curve" smooth="yes"/>
      <point x="684" y="138.815"/>
      <point x="697" y="130.728"/>
      <point x="697" y="111.42" type="curve" smooth="yes"/>
      <point x="697" y="74.8643" type="line" smooth="yes"/>
      <point x="697" y="53.5273"/>
      <point x="686" y="36.5107"/>
      <point x="666" y="27.5928" type="curve" smooth="yes"/>
      <point x="632" y="11.8496"/>
      <point x="584" y="-4.37598"/>
      <point x="524" y="-11.8291" type="curve"/>
      <point x="526" y="-16.084"/>
      <point x="528" y="-21.3379"/>
      <point x="528" y="-27.5" type="curve" smooth="yes"/>
      <point x="528" y="-72.7666" type="line" smooth="yes"/>
      <point x="528" y="-97.6621"/>
      <point x="518" y="-109.886"/>
      <point x="494" y="-116.409" type="curve" smooth="yes"/>
      <point x="448" y="-128.97"/>
      <point x="430" y="-152.785"/>
      <point x="430" y="-180" type="curve" smooth="yes"/>
      <point x="430" y="-223.568"/>
      <point x="478" y="-275.044"/>
      <point x="536" y="-299.979" type="curve" smooth="yes"/>
      <point x="547" y="-305.041"/>
      <point x="553" y="-317.109"/>
      <point x="553" y="-328.652" type="curve" smooth="yes"/>
      <point x="553" y="-342.157"/>
      <point x="545" y="-354.942"/>
      <point x="528" y="-354.942" type="curve" smooth="yes"/>
      <point x="527" y="-354.942"/>
      <point x="526" y="-354.884"/>
      <point x="525" y="-354.765" type="curve" smooth="yes"/>
      <point x="424" y="-344.181"/>
      <point x="333" y="-267.296"/>
      <point x="333" y="-192.999" type="curve" smooth="yes"/>
      <point x="333" y="-144.999"/>
      <point x="371" y="-97.999"/>
      <point x="469" y="-69.999" type="curve"/>
      <point x="469" y="-27.5" type="line" smooth="yes"/>
      <point x="469" y="-23.1484"/>
      <point x="469" y="-19.249"/>
      <point x="470" y="-15.8359" type="curve"/>
      <point x="466" y="-15.9521"/>
      <point x="461" y="-16.0156"/>
      <point x="457" y="-16.0156" type="curve" smooth="yes"/>
      <point x="172" y="-16.0156"/>
      <point x="0" y="164.369"/>
      <point x="0" y="413.001" type="curve" smooth="yes"/>
      <point x="0" y="665.847"/>
      <point x="184" y="840.038"/>
      <point x="451" y="840.038" type="curve" smooth="yes"/>
      <point x="546" y="840.038"/>
      <point x="625" y="816.29"/>
      <point x="666" y="798.333" type="curve" smooth="yes"/>
      <point x="685" y="790.302"/>
      <point x="697" y="772.136"/>
      <point x="697" y="752.048" type="curve" smooth="yes"/>
      <point x="697" y="723.081" type="line" smooth="yes"/>
      <point x="697" y="703.323"/>
      <point x="684" y="695.205"/>
      <point x="666" y="703.046" type="curve" smooth="yes"/>
      <point x="629" y="719.184"/>
      <point x="559" y="742"/>
      <point x="461" y="742" type="curve" smooth="yes"/>
      <point x="235" y="742"/>
      <point x="126" y="583"/>
    </contour>
  </outline>
</glyph>
<glyph name="egrave" format="1">
  <advance width="727"/>
  <unicode hex="00E8"/>
  <outline>
    <contour>
      <point x="470" y="33" type="curve" smooth="yes"/>
      <point x="228" y="33"/>
      <point x="0" y="172.949"/>
      <point x="0" y="452.686" type="curve" smooth="yes"/>
      <point x="0" y="662.921"/>
      <point x="157" y="843.001"/>
      <point x="387" y="843.001" type="curve" smooth="yes"/>
      <point x="611" y="843.001"/>
      <point x="727" y="698.347"/>
      <point x="727" y="484.167" type="curve" smooth="yes"/>
      <point x="727" y="464.372"/>
      <point x="715" y="452.277"/>
      <point x="694" y="452.16" type="curve" smooth="yes"/>
      <point x="144" y="449" type="line"/>
      <point x="160" y="376.366" type="line"/>
      <point x="199" y="193.636"/>
      <point x="355" y="136"/>
      <point x="494" y="136" type="curve" smooth="yes"/>
      <point x="563" y="136"/>
      <point x="629" y="149.602"/>
      <point x="685" y="169.857" type="curve" smooth="yes"/>
      <point x="704" y="176.703"/>
      <point x="717" y="167.814"/>
      <point x="717" y="147.626" type="curve" smooth="yes"/>
      <point x="717" y="123.957" type="line" smooth="yes"/>
      <point x="717" y="102.325"/>
      <point x="706" y="85.7764"/>
      <point x="686" y="77.2363" type="curve" smooth="yes"/>
      <point x="619" y="48.5703"/>
      <point x="545" y="33"/>
    </contour>
    <contour>
      <point x="475" y="1037.5" type="curve" smooth="yes"/>
      <point x="462" y="1037.5"/>
      <point x="448" y="1043.5"/>
      <point x="435" y="1057.5" type="curve" smooth="yes"/>
      <point x="176" y="1335.5" type="line" smooth="yes"/>
      <point x="142" y="1372.5"/>
      <point x="127" y="1409.5"/>
      <point x="127" y="1441.5" type="curve" smooth="yes"/>
      <point x="127" y="1498.5"/>
      <point x="171" y="1540.5"/>
      <point x="222" y="1540.5" type="curve" smooth="yes"/>
      <point x="264" y="1540.5"/>
      <point x="313" y="1511.5"/>
      <point x="347" y="1439.5" type="curve" smooth="yes"/>
      <point x="504" y="1108.5" type="line" smooth="yes"/>
      <point x="509" y="1097.5"/>
      <point x="511" y="1086.5"/>
      <point x="511" y="1077.5" type="curve" smooth="yes"/>
      <point x="511" y="1053.5"/>
      <point x="495" y="1037.5"/>
    </contour>
    <contour>
      <point x="151" y="506" type="line"/>
      <point x="628" y="506" type="line"/>
      <point x="620" y="573.352" type="line" smooth="yes"/>
      <point x="605" y="699.103"/>
      <point x="514" y="761"/>
      <point x="415" y="761" type="curve" smooth="yes"/>
      <point x="303" y="761"/>
      <point x="203" y="691.771"/>
      <point x="172" y="582.315" type="curve" smooth="yes"/>
    </contour>
  </outline>
</glyph>
<glyph name="ntilde" format="1">
  <advance width="751"/>
  <unicode hex="00F1"/>
  <outline>
    <contour>
      <point x="435" y="742.302" type="curve" smooth="yes"/>
      <point x="292" y="742.302"/>
      <point x="190" y="666.571"/>
      <point x="128" y="602.419" type="curve"/>
      <point x="128" y="34" type="line" smooth="yes"/>
      <point x="128" y="12.2637"/>
      <point x="115" y="0"/>
      <point x="94" y="0" type="curve" smooth="yes"/>
      <point x="34" y="0" type="line" smooth="yes"/>
      <point x="12" y="0"/>
      <point x="0" y="12.2637"/>
      <point x="0" y="34" type="curve" smooth="yes"/>
      <point x="0" y="790" type="line" smooth="yes"/>
      <point x="0" y="811.736"/>
      <point x="12" y="824"/>
      <point x="34" y="824" type="curve" smooth="yes"/>
      <point x="94" y="824" type="line" smooth="yes"/>
      <point x="116" y="824"/>
      <point x="128" y="812"/>
      <point x="128" y="790" type="curve" smooth="yes"/>
      <point x="128" y="712.154" type="line"/>
      <point x="185" y="771.884"/>
      <point x="287" y="840"/>
      <point x="455" y="840" type="curve" smooth="yes"/>
      <point x="636" y="840"/>
      <point x="751" y="741"/>
      <point x="751" y="560" type="curve" smooth="yes"/>
      <point x="751" y="34" type="line" smooth="yes"/>
      <point x="751" y="12"/>
      <point x="739" y="0"/>
      <point x="717" y="0" type="curve" smooth="yes"/>
      <point x="657" y="0" type="line" smooth="yes"/>
      <point x="635" y="0"/>
      <point x="623" y="12"/>
      <point x="623" y="34" type="curve" smooth="yes"/>
      <point x="623" y="559" type="line" smooth="yes"/>
      <point x="623" y="684.738"/>
      <point x="568" y="742.302"/>
    </contour>
    <contour>
      <point x="219" y="954" type="curve" smooth="yes"/>
      <point x="148" y="954"/>
      <point x="80" y="996.74"/>
      <point x="70" y="1128.06" type="curve" smooth="yes"/>
      <point x="68" y="1148.62"/>
      <point x="81" y="1162"/>
      <point x="101" y="1162" type="curve" smooth="yes"/>
      <point x="130" y="1162" type="line" smooth="yes"/>
      <point x="154" y="1162"/>
      <point x="165" y="1151.76"/>
      <point x="168" y="1128.06" type="curve" smooth="yes"/>
      <point x="174" y="1082.82"/>
      <point x="194" y="1066"/>
      <point x="231" y="1066" type="curve" smooth="yes"/>
      <point x="295" y="1066"/>
      <point x="441" y="1176"/>
      <point x="541" y="1176" type="curve" smooth="yes"/>
      <point x="620" y="1176"/>
      <point x="680" y="1135.72"/>
      <point x="688" y="1001.99" type="curve" smooth="yes"/>
      <point x="690" y="981.217"/>
      <point x="677" y="968"/>
      <point x="657" y="968" type="curve" smooth="yes"/>
      <point x="629" y="968" type="line" smooth="yes"/>
      <point x="604" y="968"/>
      <point x="593" y="977.934"/>
      <point x="589" y="1001.91" type="curve" smooth="yes"/>
      <point x="584" y="1039.98"/>
      <point x="567" y="1060"/>
      <point x="536" y="1060" type="curve" smooth="yes"/>
      <point x="452" y="1060"/>
      <point x="344" y="954"/>
    </contour>
  </outline>
</glyph>
<glyph name="ograve" format="1">
  <advance width="868"/>
  <unicode hex="00F2"/>
  <outline>
    <contour>
      <point x="521" y="1037.5" type="curve" smooth="yes"/>
      <point x="508" y="1037.5"/>
      <point x="494" y="1043.5"/>
      <point x="481" y="1057.5" type="curve" smooth="yes"/>
      <point x="222" y="1335.5" type="line" smooth="yes"/>
      <point x="188" y="1372.5"/>
      <point x="173" y="1409.5"/>
      <point x="173" y="1441.5" type="curve" smooth="yes"/>
      <point x="173" y="1498.5"/>
      <point x="217" y="1540.5"/>
      <point x="268" y="1540.5" type="curve" smooth="yes"/>
      <point x="310" y="1540.5"/>
      <point x="359" y="1511.5"/>
      <point x="393" y="1439.5" type="curve" smooth="yes"/>
      <point x="550" y="1108.5" type="line" smooth="yes"/>
      <point x="555" y="1097.5"/>
      <point x="557" y="1086.5"/>
      <point x="557" y="1077.5" type="curve" smooth="yes"/>
      <point x="557" y="1053.5"/>
      <point x="541" y="1037.5"/>
    </contour>
    <contour>
      <point x="434" y="141" type="curve" smooth="yes"/>
      <point x="622" y="141"/>
      <point x="720" y="293.724"/>
      <point x="720" y="439" type="curve" smooth="yes"/>
      <point x="720" y="581.865"/>
      <point x="624" y="737"/>
      <point x="434" y="737" type="curve" smooth="yes"/>
      <point x="243" y="737"/>
      <point x="148" y="581.864"/>
      <point x="148" y="439" type="curve" smooth="yes"/>
      <point x="148" y="293.724"/>
      <point x="245" y="141"/>
    </contour>
    <contour>
      <point x="434" y="35" type="curve" smooth="yes"/>
      <point x="186" y="35"/>
      <point x="0" y="197.484"/>
      <point x="0" y="440.958" type="curve" smooth="yes"/>
      <point x="0" y="682.111"/>
      <point x="186" y="843"/>
      <point x="434" y="843" type="curve" smooth="yes"/>
      <point x="681" y="843"/>
      <point x="868" y="682.107"/>
      <point x="868" y="440.958" type="curve" smooth="yes"/>
      <point x="868" y="197.479"/>
      <point x="681" y="35"/>
    </contour>
  </outline>
</glyph>
<glyph name="oacute" format="1">
  <advance width="868"/>
  <unicode hex="00F3"/>
  <outline>
    <contour>
      <point x="498" y="1037.1" type="curve" smooth="yes"/>
      <point x="478" y="1037.1"/>
      <point x="462" y="1053.19"/>
      <point x="462" y="1077.48" type="curve" smooth="yes"/>
      <point x="462" y="1086.77"/>
      <point x="464" y="1097.25"/>
      <point x="470" y="1108.5" type="curve" smooth="yes"/>
      <point x="627" y="1439.5" type="line" smooth="yes"/>
      <point x="661" y="1511.93"/>
      <point x="709" y="1540.52"/>
      <point x="752" y="1540.52" type="curve" smooth="yes"/>
      <point x="803" y="1540.52"/>
      <point x="846" y="1498.67"/>
      <point x="846" y="1441.99" type="curve" smooth="yes"/>
      <point x="846" y="1409.65"/>
      <point x="832" y="1372.48"/>
      <point x="798" y="1335.5" type="curve" smooth="yes"/>
      <point x="539" y="1057.5" type="line" smooth="yes"/>
      <point x="525" y="1043.27"/>
      <point x="511" y="1037.1"/>
    </contour>
    <contour>
      <point x="434" y="141" type="curve" smooth="yes"/>
      <point x="622" y="141"/>
      <point x="720" y="293.724"/>
      <point x="720" y="439" type="curve" smooth="yes"/>
      <point x="720" y="581.865"/>
      <point x="624" y="737"/>
      <point x="434" y="737" type="curve" smooth="yes"/>
      <point x="243" y="737"/>
      <point x="148" y="581.864"/>
      <point x="148" y="439" type="curve" smooth="yes"/>
      <point x="148" y="293.724"/>
      <point x="245" y="141"/>
    </contour>
    <contour>
      <point x="434" y="35" type="curve" smooth="yes"/>
      <point x="186" y="35"/>
      <point x="0" y="197.484"/>
      <point x="0" y="440.958" type="curve" smooth="yes"/>
      <point x="0" y="682.111"/>
      <point x="186" y="843"/>
      <point x="434" y="843" type="curve" smooth="yes"/>
      <point x="681" y="843"/>
      <point x="868" y="682.107"/>
      <point x="868" y="440.958" type="curve" smooth="yes"/>
      <point x="868" y="197.479"/>
      <point x="681" y="35"/>
    </contour>
  </outline>
</glyph>
